<svg xmlns="http://www.w3.org/2000/svg" xmlns:xlink="http://www.w3.org/1999/xlink" width="500" zoomAndPan="magnify" viewBox="0 0 375 374.999991" height="500" preserveAspectRatio="xMidYMid meet" version="1.2"><defs><clipPath id="242a2f3c2f"><path d="M 145.875 89.070312 L 172.566406 89.070312 L 172.566406 115.761719 L 145.875 115.761719 Z M 145.875 89.070312 "/></clipPath><clipPath id="96cf22b0f5"><path d="M 159.21875 89.070312 C 151.847656 89.070312 145.875 95.042969 145.875 102.414062 C 145.875 109.785156 151.847656 115.761719 159.21875 115.761719 C 166.589844 115.761719 172.566406 109.785156 172.566406 102.414062 C 172.566406 95.042969 166.589844 89.070312 159.21875 89.070312 Z M 159.21875 89.070312 "/></clipPath><linearGradient x1="128" gradientTransform="matrix(0.104265,0,0,0.104265,145.873429,89.068818)" y1="-0.0000893031" x2="128" gradientUnits="userSpaceOnUse" y2="255.999891" id="1131b813e9"><stop style="stop-color:#7b2d9f;stop-opacity:1;" offset="0"/><stop style="stop-color:#7b2e9f;stop-opacity:1;" offset="0.00390625"/><stop style="stop-color:#7c2e9e;stop-opacity:1;" offset="0.0078125"/><stop style="stop-color:#7c2f9e;stop-opacity:1;" offset="0.0117188"/><stop style="stop-color:#7d309d;stop-opacity:1;" offset="0.015625"/><stop style="stop-color:#7d309d;stop-opacity:1;" offset="0.0195313"/><stop style="stop-color:#7e319c;stop-opacity:1;" offset="0.0234375"/><stop style="stop-color:#7e329c;stop-opacity:1;" offset="0.0273437"/><stop style="stop-color:#7f329c;stop-opacity:1;" offset="0.03125"/><stop style="stop-color:#7f339b;stop-opacity:1;" offset="0.0351562"/><stop style="stop-color:#80349b;stop-opacity:1;" offset="0.0390625"/><stop style="stop-color:#80349a;stop-opacity:1;" offset="0.0429688"/><stop style="stop-color:#81359a;stop-opacity:1;" offset="0.046875"/><stop style="stop-color:#823699;stop-opacity:1;" offset="0.0507812"/><stop style="stop-color:#823699;stop-opacity:1;" offset="0.0546875"/><stop style="stop-color:#833798;stop-opacity:1;" offset="0.0585938"/><stop style="stop-color:#833898;stop-opacity:1;" offset="0.0625"/><stop style="stop-color:#843898;stop-opacity:1;" offset="0.0664062"/><stop style="stop-color:#843997;stop-opacity:1;" offset="0.0703125"/><stop style="stop-color:#853a97;stop-opacity:1;" offset="0.0742188"/><stop style="stop-color:#853a96;stop-opacity:1;" offset="0.078125"/><stop style="stop-color:#863b96;stop-opacity:1;" offset="0.0820313"/><stop style="stop-color:#863c95;stop-opacity:1;" offset="0.0859375"/><stop style="stop-color:#873c95;stop-opacity:1;" offset="0.0898438"/><stop style="stop-color:#873d95;stop-opacity:1;" offset="0.09375"/><stop style="stop-color:#883e94;stop-opacity:1;" offset="0.0976562"/><stop style="stop-color:#883e94;stop-opacity:1;" offset="0.101562"/><stop style="stop-color:#893f93;stop-opacity:1;" offset="0.105469"/><stop style="stop-color:#894093;stop-opacity:1;" offset="0.109375"/><stop style="stop-color:#8a4092;stop-opacity:1;" offset="0.113281"/><stop style="stop-color:#8a4192;stop-opacity:1;" offset="0.117188"/><stop style="stop-color:#8b4291;stop-opacity:1;" offset="0.121094"/><stop style="stop-color:#8b4291;stop-opacity:1;" offset="0.125"/><stop style="stop-color:#8c4391;stop-opacity:1;" offset="0.128906"/><stop style="stop-color:#8c4490;stop-opacity:1;" offset="0.132812"/><stop style="stop-color:#8d4490;stop-opacity:1;" offset="0.136719"/><stop style="stop-color:#8d458f;stop-opacity:1;" offset="0.140625"/><stop style="stop-color:#8e468f;stop-opacity:1;" offset="0.144531"/><stop style="stop-color:#8e468e;stop-opacity:1;" offset="0.148438"/><stop style="stop-color:#8f478e;stop-opacity:1;" offset="0.152344"/><stop style="stop-color:#8f488d;stop-opacity:1;" offset="0.15625"/><stop style="stop-color:#90488d;stop-opacity:1;" offset="0.160156"/><stop style="stop-color:#90498d;stop-opacity:1;" offset="0.164063"/><stop style="stop-color:#914a8c;stop-opacity:1;" offset="0.167969"/><stop style="stop-color:#914a8c;stop-opacity:1;" offset="0.171875"/><stop style="stop-color:#924b8b;stop-opacity:1;" offset="0.175781"/><stop style="stop-color:#924c8b;stop-opacity:1;" offset="0.179688"/><stop style="stop-color:#934c8a;stop-opacity:1;" offset="0.183594"/><stop style="stop-color:#934d8a;stop-opacity:1;" offset="0.1875"/><stop style="stop-color:#944e89;stop-opacity:1;" offset="0.191406"/><stop style="stop-color:#944e89;stop-opacity:1;" offset="0.195312"/><stop style="stop-color:#954f89;stop-opacity:1;" offset="0.199219"/><stop style="stop-color:#955088;stop-opacity:1;" offset="0.203125"/><stop style="stop-color:#965088;stop-opacity:1;" offset="0.207031"/><stop style="stop-color:#965187;stop-opacity:1;" offset="0.210937"/><stop style="stop-color:#975287;stop-opacity:1;" offset="0.214844"/><stop style="stop-color:#975286;stop-opacity:1;" offset="0.21875"/><stop style="stop-color:#985386;stop-opacity:1;" offset="0.222656"/><stop style="stop-color:#985485;stop-opacity:1;" offset="0.226562"/><stop style="stop-color:#995485;stop-opacity:1;" offset="0.230469"/><stop style="stop-color:#995585;stop-opacity:1;" offset="0.234375"/><stop style="stop-color:#9a5684;stop-opacity:1;" offset="0.238281"/><stop style="stop-color:#9a5684;stop-opacity:1;" offset="0.242188"/><stop style="stop-color:#9b5783;stop-opacity:1;" offset="0.246094"/><stop style="stop-color:#9b5883;stop-opacity:1;" offset="0.25"/><stop style="stop-color:#9c5882;stop-opacity:1;" offset="0.253906"/><stop style="stop-color:#9c5982;stop-opacity:1;" offset="0.257813"/><stop style="stop-color:#9d5a81;stop-opacity:1;" offset="0.261719"/><stop style="stop-color:#9d5a81;stop-opacity:1;" offset="0.265625"/><stop style="stop-color:#9e5b81;stop-opacity:1;" offset="0.269531"/><stop style="stop-color:#9e5c80;stop-opacity:1;" offset="0.273438"/><stop style="stop-color:#9f5c80;stop-opacity:1;" offset="0.277344"/><stop style="stop-color:#9f5d7f;stop-opacity:1;" offset="0.28125"/><stop style="stop-color:#a05e7f;stop-opacity:1;" offset="0.285156"/><stop style="stop-color:#a05e7e;stop-opacity:1;" offset="0.289063"/><stop style="stop-color:#a15f7e;stop-opacity:1;" offset="0.292969"/><stop style="stop-color:#a2607e;stop-opacity:1;" offset="0.296875"/><stop style="stop-color:#a2607d;stop-opacity:1;" offset="0.300781"/><stop style="stop-color:#a3617d;stop-opacity:1;" offset="0.304688"/><stop style="stop-color:#a3627c;stop-opacity:1;" offset="0.308594"/><stop style="stop-color:#a4627c;stop-opacity:1;" offset="0.3125"/><stop style="stop-color:#a4637b;stop-opacity:1;" offset="0.316406"/><stop style="stop-color:#a5647b;stop-opacity:1;" offset="0.320313"/><stop style="stop-color:#a5647a;stop-opacity:1;" offset="0.324219"/><stop style="stop-color:#a6657a;stop-opacity:1;" offset="0.328125"/><stop style="stop-color:#a6667a;stop-opacity:1;" offset="0.332031"/><stop style="stop-color:#a76679;stop-opacity:1;" offset="0.335938"/><stop style="stop-color:#a76779;stop-opacity:1;" offset="0.339844"/><stop style="stop-color:#a86878;stop-opacity:1;" offset="0.34375"/><stop style="stop-color:#a86878;stop-opacity:1;" offset="0.347656"/><stop style="stop-color:#a96977;stop-opacity:1;" offset="0.351562"/><stop style="stop-color:#a96a77;stop-opacity:1;" offset="0.355469"/><stop style="stop-color:#aa6a76;stop-opacity:1;" offset="0.359375"/><stop style="stop-color:#aa6b76;stop-opacity:1;" offset="0.363281"/><stop style="stop-color:#ab6c76;stop-opacity:1;" offset="0.367188"/><stop style="stop-color:#ab6c75;stop-opacity:1;" offset="0.371094"/><stop style="stop-color:#ac6d75;stop-opacity:1;" offset="0.375"/><stop style="stop-color:#ac6e74;stop-opacity:1;" offset="0.378906"/><stop style="stop-color:#ad6e74;stop-opacity:1;" offset="0.382812"/><stop style="stop-color:#ad6f73;stop-opacity:1;" offset="0.386719"/><stop style="stop-color:#ae7073;stop-opacity:1;" offset="0.390625"/><stop style="stop-color:#ae7072;stop-opacity:1;" offset="0.394531"/><stop style="stop-color:#af7172;stop-opacity:1;" offset="0.398438"/><stop style="stop-color:#af7272;stop-opacity:1;" offset="0.402344"/><stop style="stop-color:#b07271;stop-opacity:1;" offset="0.40625"/><stop style="stop-color:#b07371;stop-opacity:1;" offset="0.410156"/><stop style="stop-color:#b17470;stop-opacity:1;" offset="0.414062"/><stop style="stop-color:#b17470;stop-opacity:1;" offset="0.417969"/><stop style="stop-color:#b2756f;stop-opacity:1;" offset="0.421875"/><stop style="stop-color:#b2766f;stop-opacity:1;" offset="0.425781"/><stop style="stop-color:#b3766e;stop-opacity:1;" offset="0.429687"/><stop style="stop-color:#b3776e;stop-opacity:1;" offset="0.433594"/><stop style="stop-color:#b4786e;stop-opacity:1;" offset="0.4375"/><stop style="stop-color:#b4786d;stop-opacity:1;" offset="0.441406"/><stop style="stop-color:#b5796d;stop-opacity:1;" offset="0.445312"/><stop style="stop-color:#b57a6c;stop-opacity:1;" offset="0.449219"/><stop style="stop-color:#b67a6c;stop-opacity:1;" offset="0.453125"/><stop style="stop-color:#b67b6b;stop-opacity:1;" offset="0.457031"/><stop style="stop-color:#b77c6b;stop-opacity:1;" offset="0.460937"/><stop style="stop-color:#b77c6a;stop-opacity:1;" offset="0.464844"/><stop style="stop-color:#b87d6a;stop-opacity:1;" offset="0.46875"/><stop style="stop-color:#b87e6a;stop-opacity:1;" offset="0.472656"/><stop style="stop-color:#b97e69;stop-opacity:1;" offset="0.476562"/><stop style="stop-color:#b97f69;stop-opacity:1;" offset="0.480469"/><stop style="stop-color:#ba8068;stop-opacity:1;" offset="0.484375"/><stop style="stop-color:#ba8068;stop-opacity:1;" offset="0.488281"/><stop style="stop-color:#bb8167;stop-opacity:1;" offset="0.492187"/><stop style="stop-color:#bb8267;stop-opacity:1;" offset="0.496094"/><stop style="stop-color:#bc8267;stop-opacity:1;" offset="0.5"/><stop style="stop-color:#bc8366;stop-opacity:1;" offset="0.503906"/><stop style="stop-color:#bd8466;stop-opacity:1;" offset="0.507812"/><stop style="stop-color:#bd8465;stop-opacity:1;" offset="0.511719"/><stop style="stop-color:#be8565;stop-opacity:1;" offset="0.515625"/><stop style="stop-color:#be8664;stop-opacity:1;" offset="0.519531"/><stop style="stop-color:#bf8664;stop-opacity:1;" offset="0.523438"/><stop style="stop-color:#bf8763;stop-opacity:1;" offset="0.527344"/><stop style="stop-color:#c08863;stop-opacity:1;" offset="0.53125"/><stop style="stop-color:#c18863;stop-opacity:1;" offset="0.535156"/><stop style="stop-color:#c18962;stop-opacity:1;" offset="0.539062"/><stop style="stop-color:#c28a62;stop-opacity:1;" offset="0.542969"/><stop style="stop-color:#c28a61;stop-opacity:1;" offset="0.546875"/><stop style="stop-color:#c38b61;stop-opacity:1;" offset="0.550781"/><stop style="stop-color:#c38c60;stop-opacity:1;" offset="0.554688"/><stop style="stop-color:#c48c60;stop-opacity:1;" offset="0.558594"/><stop style="stop-color:#c48d5f;stop-opacity:1;" offset="0.5625"/><stop style="stop-color:#c58e5f;stop-opacity:1;" offset="0.566406"/><stop style="stop-color:#c58e5f;stop-opacity:1;" offset="0.570313"/><stop style="stop-color:#c68f5e;stop-opacity:1;" offset="0.574219"/><stop style="stop-color:#c6905e;stop-opacity:1;" offset="0.578125"/><stop style="stop-color:#c7905d;stop-opacity:1;" offset="0.582031"/><stop style="stop-color:#c7915d;stop-opacity:1;" offset="0.585938"/><stop style="stop-color:#c8925c;stop-opacity:1;" offset="0.589844"/><stop style="stop-color:#c8925c;stop-opacity:1;" offset="0.59375"/><stop style="stop-color:#c9935b;stop-opacity:1;" offset="0.597656"/><stop style="stop-color:#c9945b;stop-opacity:1;" offset="0.601562"/><stop style="stop-color:#ca945b;stop-opacity:1;" offset="0.605469"/><stop style="stop-color:#ca955a;stop-opacity:1;" offset="0.609375"/><stop style="stop-color:#cb965a;stop-opacity:1;" offset="0.613281"/><stop style="stop-color:#cb9659;stop-opacity:1;" offset="0.617188"/><stop style="stop-color:#cc9759;stop-opacity:1;" offset="0.621094"/><stop style="stop-color:#cc9858;stop-opacity:1;" offset="0.625"/><stop style="stop-color:#cd9858;stop-opacity:1;" offset="0.628906"/><stop style="stop-color:#cd9957;stop-opacity:1;" offset="0.632813"/><stop style="stop-color:#ce9a57;stop-opacity:1;" offset="0.636719"/><stop style="stop-color:#ce9a57;stop-opacity:1;" offset="0.640625"/><stop style="stop-color:#cf9b56;stop-opacity:1;" offset="0.644531"/><stop style="stop-color:#cf9c56;stop-opacity:1;" offset="0.648438"/><stop style="stop-color:#d09c55;stop-opacity:1;" offset="0.652344"/><stop style="stop-color:#d09d55;stop-opacity:1;" offset="0.65625"/><stop style="stop-color:#d19e54;stop-opacity:1;" offset="0.660156"/><stop style="stop-color:#d19f54;stop-opacity:1;" offset="0.664062"/><stop style="stop-color:#d29f53;stop-opacity:1;" offset="0.667969"/><stop style="stop-color:#d2a053;stop-opacity:1;" offset="0.671875"/><stop style="stop-color:#d3a153;stop-opacity:1;" offset="0.675781"/><stop style="stop-color:#d3a152;stop-opacity:1;" offset="0.679688"/><stop style="stop-color:#d4a252;stop-opacity:1;" offset="0.683594"/><stop style="stop-color:#d4a351;stop-opacity:1;" offset="0.6875"/><stop style="stop-color:#d5a351;stop-opacity:1;" offset="0.691406"/><stop style="stop-color:#d5a450;stop-opacity:1;" offset="0.695313"/><stop style="stop-color:#d6a550;stop-opacity:1;" offset="0.699219"/><stop style="stop-color:#d6a550;stop-opacity:1;" offset="0.703125"/><stop style="stop-color:#d7a64f;stop-opacity:1;" offset="0.707031"/><stop style="stop-color:#d7a74f;stop-opacity:1;" offset="0.710938"/><stop style="stop-color:#d8a74e;stop-opacity:1;" offset="0.714844"/><stop style="stop-color:#d8a84e;stop-opacity:1;" offset="0.71875"/><stop style="stop-color:#d9a94d;stop-opacity:1;" offset="0.722656"/><stop style="stop-color:#d9a94d;stop-opacity:1;" offset="0.726562"/><stop style="stop-color:#daaa4c;stop-opacity:1;" offset="0.730469"/><stop style="stop-color:#daab4c;stop-opacity:1;" offset="0.734375"/><stop style="stop-color:#dbab4c;stop-opacity:1;" offset="0.738281"/><stop style="stop-color:#dbac4b;stop-opacity:1;" offset="0.742188"/><stop style="stop-color:#dcad4b;stop-opacity:1;" offset="0.746094"/><stop style="stop-color:#dcad4a;stop-opacity:1;" offset="0.75"/><stop style="stop-color:#ddae4a;stop-opacity:1;" offset="0.753906"/><stop style="stop-color:#ddaf49;stop-opacity:1;" offset="0.757812"/><stop style="stop-color:#deaf49;stop-opacity:1;" offset="0.761719"/><stop style="stop-color:#deb048;stop-opacity:1;" offset="0.765625"/><stop style="stop-color:#dfb148;stop-opacity:1;" offset="0.769531"/><stop style="stop-color:#dfb148;stop-opacity:1;" offset="0.773438"/><stop style="stop-color:#e0b247;stop-opacity:1;" offset="0.777344"/><stop style="stop-color:#e1b347;stop-opacity:1;" offset="0.78125"/><stop style="stop-color:#e1b346;stop-opacity:1;" offset="0.785156"/><stop style="stop-color:#e2b446;stop-opacity:1;" offset="0.789062"/><stop style="stop-color:#e2b545;stop-opacity:1;" offset="0.792969"/><stop style="stop-color:#e3b545;stop-opacity:1;" offset="0.796875"/><stop style="stop-color:#e3b644;stop-opacity:1;" offset="0.800781"/><stop style="stop-color:#e4b744;stop-opacity:1;" offset="0.804687"/><stop style="stop-color:#e4b744;stop-opacity:1;" offset="0.808594"/><stop style="stop-color:#e5b843;stop-opacity:1;" offset="0.8125"/><stop style="stop-color:#e5b943;stop-opacity:1;" offset="0.816406"/><stop style="stop-color:#e6b942;stop-opacity:1;" offset="0.820312"/><stop style="stop-color:#e6ba42;stop-opacity:1;" offset="0.824219"/><stop style="stop-color:#e7bb41;stop-opacity:1;" offset="0.828125"/><stop style="stop-color:#e7bb41;stop-opacity:1;" offset="0.832031"/><stop style="stop-color:#e8bc40;stop-opacity:1;" offset="0.835938"/><stop style="stop-color:#e8bd40;stop-opacity:1;" offset="0.839844"/><stop style="stop-color:#e9bd40;stop-opacity:1;" offset="0.84375"/><stop style="stop-color:#e9be3f;stop-opacity:1;" offset="0.847656"/><stop style="stop-color:#eabf3f;stop-opacity:1;" offset="0.851562"/><stop style="stop-color:#eabf3e;stop-opacity:1;" offset="0.855469"/><stop style="stop-color:#ebc03e;stop-opacity:1;" offset="0.859375"/><stop style="stop-color:#ebc13d;stop-opacity:1;" offset="0.863281"/><stop style="stop-color:#ecc13d;stop-opacity:1;" offset="0.867187"/><stop style="stop-color:#ecc23c;stop-opacity:1;" offset="0.871094"/><stop style="stop-color:#edc33c;stop-opacity:1;" offset="0.875"/><stop style="stop-color:#edc33c;stop-opacity:1;" offset="0.878906"/><stop style="stop-color:#eec43b;stop-opacity:1;" offset="0.882812"/><stop style="stop-color:#eec53b;stop-opacity:1;" offset="0.886719"/><stop style="stop-color:#efc53a;stop-opacity:1;" offset="0.890625"/><stop style="stop-color:#efc63a;stop-opacity:1;" offset="0.894531"/><stop style="stop-color:#f0c739;stop-opacity:1;" offset="0.898438"/><stop style="stop-color:#f0c739;stop-opacity:1;" offset="0.902344"/><stop style="stop-color:#f1c839;stop-opacity:1;" offset="0.90625"/><stop style="stop-color:#f1c938;stop-opacity:1;" offset="0.910156"/><stop style="stop-color:#f2c938;stop-opacity:1;" offset="0.914062"/><stop style="stop-color:#f2ca37;stop-opacity:1;" offset="0.917969"/><stop style="stop-color:#f3cb37;stop-opacity:1;" offset="0.921875"/><stop style="stop-color:#f3cb36;stop-opacity:1;" offset="0.925781"/><stop style="stop-color:#f4cc36;stop-opacity:1;" offset="0.929687"/><stop style="stop-color:#f4cd35;stop-opacity:1;" offset="0.933594"/><stop style="stop-color:#f5cd35;stop-opacity:1;" offset="0.9375"/><stop style="stop-color:#f5ce35;stop-opacity:1;" offset="0.941406"/><stop style="stop-color:#f6cf34;stop-opacity:1;" offset="0.945312"/><stop style="stop-color:#f6cf34;stop-opacity:1;" offset="0.949219"/><stop style="stop-color:#f7d033;stop-opacity:1;" offset="0.953125"/><stop style="stop-color:#f7d133;stop-opacity:1;" offset="0.957031"/><stop style="stop-color:#f8d132;stop-opacity:1;" offset="0.960938"/><stop style="stop-color:#f8d232;stop-opacity:1;" offset="0.964844"/><stop style="stop-color:#f9d331;stop-opacity:1;" offset="0.96875"/><stop style="stop-color:#f9d331;stop-opacity:1;" offset="0.972656"/><stop style="stop-color:#fad431;stop-opacity:1;" offset="0.976562"/><stop style="stop-color:#fad530;stop-opacity:1;" offset="0.980469"/><stop style="stop-color:#fbd530;stop-opacity:1;" offset="0.984375"/><stop style="stop-color:#fbd62f;stop-opacity:1;" offset="0.988281"/><stop style="stop-color:#fcd72f;stop-opacity:1;" offset="0.992188"/><stop style="stop-color:#fcd72e;stop-opacity:1;" offset="0.996094"/><stop style="stop-color:#fdd82e;stop-opacity:1;" offset="1"/></linearGradient></defs><g id="4e20938f34"><g style="fill:#000000;fill-opacity:1;"><g transform="translate(141.225552, 212.497743)"><path style="stroke:none" d="M 30.328125 -5.625 C 30.328125 3.695312 27.054688 11.628906 20.515625 18.171875 C 13.984375 24.703125 6.054688 27.96875 -3.265625 27.96875 L -3.265625 26.921875 C -0.128906 26.921875 2.523438 25.832031 4.703125 23.65625 C 6.878906 21.476562 7.96875 18.820312 7.96875 15.6875 L 7.96875 -89.65625 L 30.328125 -89.65625 Z M 30.328125 -5.625 "/></g></g><g style="fill:#000000;fill-opacity:1;"><g transform="translate(178.213426, 212.497743)"><path style="stroke:none" d="M -3.265625 -89.65625 L 63.90625 -89.65625 L 63.90625 -88.484375 L 41.5625 -88.484375 L 41.5625 0 L 19.078125 0 L 19.078125 -88.484375 L -3.265625 -88.484375 Z M -3.265625 -89.65625 "/></g></g><g clip-rule="nonzero" clip-path="url(#242a2f3c2f)"><g clip-rule="nonzero" clip-path="url(#96cf22b0f5)"><path style=" stroke:none;fill-rule:nonzero;fill:url(#1131b813e9);" d="M 145.875 89.070312 L 145.875 115.761719 L 172.566406 115.761719 L 172.566406 89.070312 Z M 145.875 89.070312 "/></g></g><g style="fill:#000000;fill-opacity:1;"><g transform="translate(71.094534, 268.056067)"><path style="stroke:none" d="M 2.328125 0.046875 C 1.867188 0.046875 1.4375 -0.0664062 1.03125 -0.296875 C 0.625 -0.535156 0.296875 -0.851562 0.046875 -1.25 L 0.234375 -1.40625 C 0.484375 -1.03125 0.789062 -0.734375 1.15625 -0.515625 C 1.519531 -0.304688 1.914062 -0.203125 2.34375 -0.203125 C 3.007812 -0.203125 3.503906 -0.394531 3.828125 -0.78125 C 4.148438 -1.175781 4.3125 -1.769531 4.3125 -2.5625 L 4.3125 -8.90625 L 0.890625 -8.90625 L 0.890625 -9.15625 L 4.578125 -9.15625 L 4.578125 -2.53125 C 4.578125 -0.8125 3.828125 0.046875 2.328125 0.046875 Z M 2.328125 0.046875 "/></g></g><g style="fill:#000000;fill-opacity:1;"><g transform="translate(80.564196, 268.056067)"><path style="stroke:none" d="M 7.828125 -0.25 L 7.828125 0 L 1.734375 0 L 1.734375 -9.15625 L 7.640625 -9.15625 L 7.640625 -8.90625 L 2 -8.90625 L 2 -4.78125 L 7.046875 -4.78125 L 7.046875 -4.53125 L 2 -4.53125 L 2 -0.25 Z M 7.828125 -0.25 "/></g></g><g style="fill:#000000;fill-opacity:1;"><g transform="translate(92.531663, 268.056067)"><path style="stroke:none" d="M 8.625 -9.15625 L 4.515625 0 L 4.25 0 L 0.125 -9.15625 L 0.4375 -9.15625 L 4.375 -0.359375 L 8.328125 -9.15625 Z M 8.625 -9.15625 "/></g></g><g style="fill:#000000;fill-opacity:1;"><g transform="translate(104.525289, 268.056067)"><path style="stroke:none" d="M 7.828125 -0.25 L 7.828125 0 L 1.734375 0 L 1.734375 -9.15625 L 7.640625 -9.15625 L 7.640625 -8.90625 L 2 -8.90625 L 2 -4.78125 L 7.046875 -4.78125 L 7.046875 -4.53125 L 2 -4.53125 L 2 -0.25 Z M 7.828125 -0.25 "/></g></g><g style="fill:#000000;fill-opacity:1;"><g transform="translate(116.492756, 268.056067)"><path style="stroke:none" d="M 1.734375 -9.15625 L 2 -9.15625 L 2 -0.25 L 7.453125 -0.25 L 7.453125 0 L 1.734375 0 Z M 1.734375 -9.15625 "/></g></g><g style="fill:#000000;fill-opacity:1;"><g transform="translate(127.309399, 268.056067)"><path style="stroke:none" d="M 5.46875 0.046875 C 4.582031 0.046875 3.78125 -0.148438 3.0625 -0.546875 C 2.351562 -0.953125 1.789062 -1.503906 1.375 -2.203125 C 0.96875 -2.910156 0.765625 -3.703125 0.765625 -4.578125 C 0.765625 -5.453125 0.96875 -6.238281 1.375 -6.9375 C 1.789062 -7.632812 2.351562 -8.179688 3.0625 -8.578125 C 3.78125 -8.984375 4.582031 -9.1875 5.46875 -9.1875 C 6.34375 -9.1875 7.140625 -8.984375 7.859375 -8.578125 C 8.578125 -8.179688 9.140625 -7.632812 9.546875 -6.9375 C 9.953125 -6.238281 10.15625 -5.453125 10.15625 -4.578125 C 10.15625 -3.703125 9.953125 -2.910156 9.546875 -2.203125 C 9.140625 -1.503906 8.578125 -0.953125 7.859375 -0.546875 C 7.140625 -0.148438 6.34375 0.046875 5.46875 0.046875 Z M 5.46875 -0.203125 C 6.289062 -0.203125 7.039062 -0.390625 7.71875 -0.765625 C 8.394531 -1.148438 8.925781 -1.675781 9.3125 -2.34375 C 9.707031 -3.007812 9.90625 -3.753906 9.90625 -4.578125 C 9.90625 -5.398438 9.707031 -6.144531 9.3125 -6.8125 C 8.925781 -7.476562 8.394531 -8 7.71875 -8.375 C 7.039062 -8.757812 6.289062 -8.953125 5.46875 -8.953125 C 4.632812 -8.953125 3.878906 -8.757812 3.203125 -8.375 C 2.535156 -8 2.003906 -7.476562 1.609375 -6.8125 C 1.222656 -6.144531 1.03125 -5.398438 1.03125 -4.578125 C 1.03125 -3.753906 1.222656 -3.007812 1.609375 -2.34375 C 2.003906 -1.675781 2.535156 -1.148438 3.203125 -0.765625 C 3.878906 -0.390625 4.632812 -0.203125 5.46875 -0.203125 Z M 5.46875 -0.203125 "/></g></g><g style="fill:#000000;fill-opacity:1;"><g transform="translate(141.473881, 268.056067)"><path style="stroke:none" d="M 8.9375 -9.15625 L 8.9375 0 L 8.703125 0 L 2 -8.671875 L 2 0 L 1.734375 0 L 1.734375 -9.15625 L 1.96875 -9.15625 L 8.671875 -0.484375 L 8.671875 -9.15625 Z M 8.9375 -9.15625 "/></g></g><g style="fill:#000000;fill-opacity:1;"><g transform="translate(155.376814, 268.056067)"><path style="stroke:none" d=""/></g></g><g style="fill:#000000;fill-opacity:1;"><g transform="translate(161.877892, 268.056067)"><path style="stroke:none" d="M 3.453125 -8.90625 L 0.046875 -8.90625 L 0.046875 -9.15625 L 7.109375 -9.15625 L 7.109375 -8.90625 L 3.71875 -8.90625 L 3.71875 0 L 3.453125 0 Z M 3.453125 -8.90625 "/></g></g><g style="fill:#000000;fill-opacity:1;"><g transform="translate(172.276062, 268.056067)"><path style="stroke:none" d="M 7.828125 -0.25 L 7.828125 0 L 1.734375 0 L 1.734375 -9.15625 L 7.640625 -9.15625 L 7.640625 -8.90625 L 2 -8.90625 L 2 -4.78125 L 7.046875 -4.78125 L 7.046875 -4.53125 L 2 -4.53125 L 2 -0.25 Z M 7.828125 -0.25 "/></g></g><g style="fill:#000000;fill-opacity:1;"><g transform="translate(184.24353, 268.056067)"><path style="stroke:none" d="M 5.46875 0.046875 C 4.582031 0.046875 3.78125 -0.148438 3.0625 -0.546875 C 2.351562 -0.953125 1.789062 -1.503906 1.375 -2.203125 C 0.96875 -2.910156 0.765625 -3.703125 0.765625 -4.578125 C 0.765625 -5.453125 0.96875 -6.238281 1.375 -6.9375 C 1.789062 -7.632812 2.351562 -8.179688 3.0625 -8.578125 C 3.78125 -8.984375 4.582031 -9.1875 5.46875 -9.1875 C 6.082031 -9.1875 6.65625 -9.085938 7.1875 -8.890625 C 7.726562 -8.703125 8.191406 -8.414062 8.578125 -8.03125 L 8.421875 -7.84375 C 7.648438 -8.582031 6.664062 -8.953125 5.46875 -8.953125 C 4.632812 -8.953125 3.878906 -8.757812 3.203125 -8.375 C 2.535156 -7.988281 2.003906 -7.460938 1.609375 -6.796875 C 1.222656 -6.128906 1.03125 -5.390625 1.03125 -4.578125 C 1.03125 -3.765625 1.222656 -3.023438 1.609375 -2.359375 C 2.003906 -1.691406 2.535156 -1.164062 3.203125 -0.78125 C 3.878906 -0.394531 4.632812 -0.203125 5.46875 -0.203125 C 6.664062 -0.203125 7.648438 -0.578125 8.421875 -1.328125 L 8.578125 -1.140625 C 8.191406 -0.753906 7.726562 -0.457031 7.1875 -0.25 C 6.644531 -0.0507812 6.070312 0.046875 5.46875 0.046875 Z M 5.46875 0.046875 "/></g></g><g style="fill:#000000;fill-opacity:1;"><g transform="translate(196.773336, 268.056067)"><path style="stroke:none" d="M 8.9375 -9.15625 L 8.9375 0 L 8.671875 0 L 8.671875 -4.53125 L 2 -4.53125 L 2 0 L 1.734375 0 L 1.734375 -9.15625 L 2 -9.15625 L 2 -4.78125 L 8.671875 -4.78125 L 8.671875 -9.15625 Z M 8.9375 -9.15625 "/></g></g><g style="fill:#000000;fill-opacity:1;"><g transform="translate(210.676269, 268.056067)"><path style="stroke:none" d="M 8.9375 -9.15625 L 8.9375 0 L 8.703125 0 L 2 -8.671875 L 2 0 L 1.734375 0 L 1.734375 -9.15625 L 1.96875 -9.15625 L 8.671875 -0.484375 L 8.671875 -9.15625 Z M 8.9375 -9.15625 "/></g></g><g style="fill:#000000;fill-opacity:1;"><g transform="translate(224.579203, 268.056067)"><path style="stroke:none" d="M 5.46875 0.046875 C 4.582031 0.046875 3.78125 -0.148438 3.0625 -0.546875 C 2.351562 -0.953125 1.789062 -1.503906 1.375 -2.203125 C 0.96875 -2.910156 0.765625 -3.703125 0.765625 -4.578125 C 0.765625 -5.453125 0.96875 -6.238281 1.375 -6.9375 C 1.789062 -7.632812 2.351562 -8.179688 3.0625 -8.578125 C 3.78125 -8.984375 4.582031 -9.1875 5.46875 -9.1875 C 6.34375 -9.1875 7.140625 -8.984375 7.859375 -8.578125 C 8.578125 -8.179688 9.140625 -7.632812 9.546875 -6.9375 C 9.953125 -6.238281 10.15625 -5.453125 10.15625 -4.578125 C 10.15625 -3.703125 9.953125 -2.910156 9.546875 -2.203125 C 9.140625 -1.503906 8.578125 -0.953125 7.859375 -0.546875 C 7.140625 -0.148438 6.34375 0.046875 5.46875 0.046875 Z M 5.46875 -0.203125 C 6.289062 -0.203125 7.039062 -0.390625 7.71875 -0.765625 C 8.394531 -1.148438 8.925781 -1.675781 9.3125 -2.34375 C 9.707031 -3.007812 9.90625 -3.753906 9.90625 -4.578125 C 9.90625 -5.398438 9.707031 -6.144531 9.3125 -6.8125 C 8.925781 -7.476562 8.394531 -8 7.71875 -8.375 C 7.039062 -8.757812 6.289062 -8.953125 5.46875 -8.953125 C 4.632812 -8.953125 3.878906 -8.757812 3.203125 -8.375 C 2.535156 -8 2.003906 -7.476562 1.609375 -6.8125 C 1.222656 -6.144531 1.03125 -5.398438 1.03125 -4.578125 C 1.03125 -3.753906 1.222656 -3.007812 1.609375 -2.34375 C 2.003906 -1.675781 2.535156 -1.148438 3.203125 -0.765625 C 3.878906 -0.390625 4.632812 -0.203125 5.46875 -0.203125 Z M 5.46875 -0.203125 "/></g></g><g style="fill:#000000;fill-opacity:1;"><g transform="translate(238.743684, 268.056067)"><path style="stroke:none" d="M 1.734375 -9.15625 L 2 -9.15625 L 2 -0.25 L 7.453125 -0.25 L 7.453125 0 L 1.734375 0 Z M 1.734375 -9.15625 "/></g></g><g style="fill:#000000;fill-opacity:1;"><g transform="translate(249.560327, 268.056067)"><path style="stroke:none" d="M 5.46875 0.046875 C 4.582031 0.046875 3.78125 -0.148438 3.0625 -0.546875 C 2.351562 -0.953125 1.789062 -1.503906 1.375 -2.203125 C 0.96875 -2.910156 0.765625 -3.703125 0.765625 -4.578125 C 0.765625 -5.453125 0.96875 -6.238281 1.375 -6.9375 C 1.789062 -7.632812 2.351562 -8.179688 3.0625 -8.578125 C 3.78125 -8.984375 4.582031 -9.1875 5.46875 -9.1875 C 6.34375 -9.1875 7.140625 -8.984375 7.859375 -8.578125 C 8.578125 -8.179688 9.140625 -7.632812 9.546875 -6.9375 C 9.953125 -6.238281 10.15625 -5.453125 10.15625 -4.578125 C 10.15625 -3.703125 9.953125 -2.910156 9.546875 -2.203125 C 9.140625 -1.503906 8.578125 -0.953125 7.859375 -0.546875 C 7.140625 -0.148438 6.34375 0.046875 5.46875 0.046875 Z M 5.46875 -0.203125 C 6.289062 -0.203125 7.039062 -0.390625 7.71875 -0.765625 C 8.394531 -1.148438 8.925781 -1.675781 9.3125 -2.34375 C 9.707031 -3.007812 9.90625 -3.753906 9.90625 -4.578125 C 9.90625 -5.398438 9.707031 -6.144531 9.3125 -6.8125 C 8.925781 -7.476562 8.394531 -8 7.71875 -8.375 C 7.039062 -8.757812 6.289062 -8.953125 5.46875 -8.953125 C 4.632812 -8.953125 3.878906 -8.757812 3.203125 -8.375 C 2.535156 -8 2.003906 -7.476562 1.609375 -6.8125 C 1.222656 -6.144531 1.03125 -5.398438 1.03125 -4.578125 C 1.03125 -3.753906 1.222656 -3.007812 1.609375 -2.34375 C 2.003906 -1.675781 2.535156 -1.148438 3.203125 -0.765625 C 3.878906 -0.390625 4.632812 -0.203125 5.46875 -0.203125 Z M 5.46875 -0.203125 "/></g></g><g style="fill:#000000;fill-opacity:1;"><g transform="translate(263.724809, 268.056067)"><path style="stroke:none" d="M 8.40625 -4.484375 L 8.65625 -4.484375 L 8.65625 -1.140625 C 8.269531 -0.753906 7.804688 -0.457031 7.265625 -0.25 C 6.722656 -0.0507812 6.132812 0.046875 5.5 0.046875 C 4.601562 0.046875 3.796875 -0.148438 3.078125 -0.546875 C 2.359375 -0.953125 1.789062 -1.503906 1.375 -2.203125 C 0.96875 -2.910156 0.765625 -3.703125 0.765625 -4.578125 C 0.765625 -5.453125 0.96875 -6.238281 1.375 -6.9375 C 1.789062 -7.632812 2.359375 -8.179688 3.078125 -8.578125 C 3.796875 -8.984375 4.601562 -9.1875 5.5 -9.1875 C 6.132812 -9.1875 6.722656 -9.085938 7.265625 -8.890625 C 7.804688 -8.703125 8.269531 -8.414062 8.65625 -8.03125 L 8.5 -7.84375 C 7.726562 -8.582031 6.726562 -8.953125 5.5 -8.953125 C 4.664062 -8.953125 3.90625 -8.757812 3.21875 -8.375 C 2.539062 -7.988281 2.003906 -7.460938 1.609375 -6.796875 C 1.222656 -6.128906 1.03125 -5.390625 1.03125 -4.578125 C 1.03125 -3.765625 1.222656 -3.023438 1.609375 -2.359375 C 2.003906 -1.691406 2.539062 -1.164062 3.21875 -0.78125 C 3.90625 -0.394531 4.664062 -0.203125 5.5 -0.203125 C 6.71875 -0.203125 7.6875 -0.550781 8.40625 -1.25 Z M 8.40625 -4.484375 "/></g></g><g style="fill:#000000;fill-opacity:1;"><g transform="translate(277.078489, 268.056067)"><path style="stroke:none" d="M 1.734375 -9.15625 L 2 -9.15625 L 2 0 L 1.734375 0 Z M 1.734375 -9.15625 "/></g></g><g style="fill:#000000;fill-opacity:1;"><g transform="translate(284.05037, 268.056067)"><path style="stroke:none" d="M 7.828125 -0.25 L 7.828125 0 L 1.734375 0 L 1.734375 -9.15625 L 7.640625 -9.15625 L 7.640625 -8.90625 L 2 -8.90625 L 2 -4.78125 L 7.046875 -4.78125 L 7.046875 -4.53125 L 2 -4.53125 L 2 -0.25 Z M 7.828125 -0.25 "/></g></g><g style="fill:#000000;fill-opacity:1;"><g transform="translate(296.017813, 268.056067)"><path style="stroke:none" d="M 3.96875 0.046875 C 3.3125 0.046875 2.691406 -0.0703125 2.109375 -0.3125 C 1.523438 -0.5625 1.078125 -0.875 0.765625 -1.25 L 0.9375 -1.421875 C 1.238281 -1.078125 1.660156 -0.785156 2.203125 -0.546875 C 2.753906 -0.316406 3.34375 -0.203125 3.96875 -0.203125 C 4.914062 -0.203125 5.628906 -0.390625 6.109375 -0.765625 C 6.597656 -1.148438 6.84375 -1.644531 6.84375 -2.25 C 6.84375 -2.71875 6.710938 -3.09375 6.453125 -3.375 C 6.203125 -3.65625 5.890625 -3.863281 5.515625 -4 C 5.148438 -4.144531 4.65625 -4.289062 4.03125 -4.4375 C 3.351562 -4.601562 2.816406 -4.757812 2.421875 -4.90625 C 2.035156 -5.0625 1.703125 -5.296875 1.421875 -5.609375 C 1.148438 -5.929688 1.015625 -6.359375 1.015625 -6.890625 C 1.015625 -7.304688 1.125 -7.6875 1.34375 -8.03125 C 1.5625 -8.382812 1.898438 -8.664062 2.359375 -8.875 C 2.828125 -9.082031 3.398438 -9.1875 4.078125 -9.1875 C 4.566406 -9.1875 5.046875 -9.109375 5.515625 -8.953125 C 5.984375 -8.804688 6.390625 -8.609375 6.734375 -8.359375 L 6.59375 -8.140625 C 6.238281 -8.410156 5.835938 -8.613281 5.390625 -8.75 C 4.953125 -8.882812 4.519531 -8.953125 4.09375 -8.953125 C 3.175781 -8.953125 2.476562 -8.753906 2 -8.359375 C 1.519531 -7.972656 1.28125 -7.476562 1.28125 -6.875 C 1.28125 -6.40625 1.40625 -6.03125 1.65625 -5.75 C 1.914062 -5.46875 2.234375 -5.253906 2.609375 -5.109375 C 2.984375 -4.972656 3.488281 -4.828125 4.125 -4.671875 C 4.78125 -4.503906 5.304688 -4.34375 5.703125 -4.1875 C 6.097656 -4.039062 6.425781 -3.8125 6.6875 -3.5 C 6.957031 -3.1875 7.09375 -2.769531 7.09375 -2.25 C 7.09375 -1.832031 6.976562 -1.445312 6.75 -1.09375 C 6.53125 -0.75 6.1875 -0.472656 5.71875 -0.265625 C 5.25 -0.0546875 4.664062 0.046875 3.96875 0.046875 Z M 3.96875 0.046875 "/></g></g></g></svg>