<svg xmlns="http://www.w3.org/2000/svg" xmlns:xlink="http://www.w3.org/1999/xlink" width="500" zoomAndPan="magnify" viewBox="0 0 375 374.999991" height="500" preserveAspectRatio="xMidYMid meet" version="1.2"><defs><clipPath id="e3be186122"><path d="M 197 119 L 290.390625 119 L 290.390625 316.773438 L 197 316.773438 Z M 197 119 "/></clipPath><clipPath id="b295c8bed9"><path d="M 85 58.023438 L 226 58.023438 L 226 264 L 85 264 Z M 85 58.023438 "/></clipPath><clipPath id="1a5ef6426f"><path d="M 235 58.023438 L 290.390625 58.023438 L 290.390625 116 L 235 116 Z M 235 58.023438 "/></clipPath></defs><g id="88358d98f4"><path style=" stroke:none;fill-rule:nonzero;fill:#148449;fill-opacity:1;" d="M 282.921875 126.140625 L 243.855469 126.128906 L 243.855469 205.003906 C 243.855469 239.761719 242.082031 252.992188 236.496094 264.410156 C 231.171875 275.566406 222.796875 282.832031 205.542969 291.136719 L 241.824219 308.773438 C 259.078125 299.953125 267.449219 291.910156 273.792969 279.199219 C 280.644531 265.972656 282.921875 250.664062 282.921875 218.761719 Z M 282.921875 126.140625 "/><path style=" stroke:none;fill-rule:nonzero;fill:#148449;fill-opacity:1;" d="M 217.308594 253.207031 L 217.308594 66.238281 L 177.949219 66.238281 L 177.949219 122.34375 C 172.082031 120.695312 167.21875 120.144531 160.832031 120.144531 C 119.679688 120.144531 93.101562 148.066406 93.101562 191.054688 C 93.101562 235.675781 118.144531 258.953125 166.203125 258.953125 C 182.300781 258.953125 197.125 257.304688 217.308594 253.207031 Z M 133.230469 190.222656 C 133.230469 167.226562 144.726562 154.082031 164.660156 154.082031 L 164.625 154.082031 C 164.90625 154.074219 165.175781 154.074219 165.457031 154.074219 C 169.929688 154.074219 174.21875 154.882812 177.957031 156.273438 L 177.957031 223.890625 C 172.339844 224.722656 168.765625 224.992188 164.421875 224.992188 C 144.226562 224.992188 133.230469 212.679688 133.230469 190.222656 Z M 133.230469 190.222656 "/><path style=" stroke:none;fill-rule:nonzero;fill:#148449;fill-opacity:1;" d="M 241.78125 64.890625 L 283.882812 64.890625 L 283.882812 108.296875 L 241.78125 108.296875 Z M 241.78125 64.890625 "/><g clip-rule="nonzero" clip-path="url(#e3be186122)"><path style=" stroke:none;fill-rule:nonzero;fill:#000000;fill-opacity:1;" d="M 241.464844 316.859375 C 240.257812 316.859375 239.023438 316.589844 237.910156 316.039062 L 201.988281 298.519531 C 199.199219 297.160156 197.429688 294.335938 197.4375 291.242188 C 197.449219 288.148438 199.222656 285.324219 202.019531 283.976562 C 217.382812 276.558594 224.40625 270.617188 228.878906 261.226562 C 233.871094 251.007812 235.382812 238.046875 235.382812 205.683594 L 235.382812 127.3125 C 235.382812 122.851562 239.015625 119.226562 243.488281 119.226562 L 282.175781 119.226562 C 286.652344 119.226562 290.28125 122.863281 290.28125 127.324219 L 290.28125 219.34375 C 290.28125 252.613281 287.773438 268.710938 280.339844 283.101562 C 273.230469 297.410156 263.355469 306.660156 245.171875 315.964844 C 244.015625 316.558594 242.742188 316.859375 241.464844 316.859375 Z M 223.046875 290.78125 L 241.316406 299.695312 C 254.097656 292.6875 260.71875 286.152344 265.863281 275.792969 C 272 263.890625 274.0625 249.679688 274.0625 219.332031 L 274.0625 135.410156 L 251.578125 135.398438 L 251.578125 205.671875 C 251.578125 241.316406 249.765625 255.351562 243.488281 268.234375 C 239.15625 277.347656 232.984375 284.289062 223.046875 290.78125 Z M 223.046875 290.78125 "/></g><g clip-rule="nonzero" clip-path="url(#b295c8bed9)"><path style=" stroke:none;fill-rule:nonzero;fill:#000000;fill-opacity:1;" d="M 166.226562 263.09375 C 113.847656 263.09375 85 237.550781 85 191.191406 C 85 146.492188 115.476562 116.46875 160.855469 116.46875 C 164.152344 116.46875 167.078125 116.609375 169.886719 116.910156 L 169.886719 66.195312 C 169.886719 61.730469 173.519531 58.109375 177.992188 58.109375 L 217.363281 58.109375 C 221.835938 58.109375 225.464844 61.730469 225.464844 66.195312 L 225.464844 249.605469 C 225.464844 253.488281 222.699219 256.820312 218.886719 257.550781 C 198.226562 261.488281 182.972656 263.09375 166.226562 263.09375 Z M 217.351562 249.605469 L 217.460938 249.605469 Z M 160.855469 132.640625 C 124.066406 132.640625 101.203125 155.074219 101.203125 191.191406 C 101.203125 228.691406 122.480469 246.910156 166.226562 246.910156 C 180.078125 246.910156 192.933594 245.722656 209.25 242.855469 L 209.25 74.28125 L 186.082031 74.28125 L 186.082031 126.613281 C 186.082031 129.113281 184.925781 131.488281 182.929688 133.015625 C 180.929688 134.546875 178.335938 135.054688 175.925781 134.441406 C 170.9375 133.125 166.851562 132.640625 160.855469 132.640625 Z M 164.441406 231.167969 C 139.839844 231.167969 125.148438 215.9375 125.148438 190.417969 C 125.148438 164.5 140.261719 148.402344 164.617188 148.371094 C 164.625 148.371094 164.636719 148.371094 164.648438 148.371094 C 164.625 148.328125 165.402344 148.347656 165.480469 148.347656 C 170.699219 148.347656 175.960938 149.222656 180.671875 150.871094 C 183.910156 152.003906 186.082031 155.066406 186.082031 158.503906 L 186.082031 222.058594 C 186.082031 226.101562 183.101562 229.519531 179.09375 230.070312 C 173.25 230.867188 169.28125 231.167969 164.441406 231.167969 Z M 164.691406 164.53125 C 149.199219 164.53125 141.355469 173.242188 141.355469 190.40625 C 141.355469 207.179688 148.691406 214.988281 164.441406 214.988281 C 166.355469 214.988281 168.074219 214.933594 169.886719 214.804688 L 169.886719 164.832031 C 168.34375 164.617188 166.765625 164.605469 165.199219 164.519531 C 165.027344 164.53125 164.863281 164.53125 164.691406 164.53125 Z M 164.691406 164.53125 "/></g><g clip-rule="nonzero" clip-path="url(#1a5ef6426f)"><path style=" stroke:none;fill-rule:nonzero;fill:#000000;fill-opacity:1;" d="M 282.175781 115.046875 L 243.488281 115.046875 C 239.015625 115.046875 235.382812 111.421875 235.382812 106.960938 L 235.382812 66.238281 C 235.382812 61.773438 239.015625 58.152344 243.488281 58.152344 L 282.175781 58.152344 C 286.652344 58.152344 290.28125 61.773438 290.28125 66.238281 L 290.28125 106.960938 C 290.28125 111.421875 286.652344 115.046875 282.175781 115.046875 Z M 251.589844 98.875 L 274.074219 98.875 L 274.074219 74.324219 L 251.589844 74.324219 Z M 251.589844 98.875 "/></g></g></svg>