<svg xmlns="http://www.w3.org/2000/svg" xmlns:xlink="http://www.w3.org/1999/xlink" width="500" zoomAndPan="magnify" viewBox="0 0 375 374.999991" height="500" preserveAspectRatio="xMidYMid meet" version="1.2"><defs><clipPath id="a302a35a9d"><path d="M 51 42 L 344.636719 42 L 344.636719 298 L 51 298 Z M 51 42 "/></clipPath><clipPath id="299dad1a0b"><path d="M 30.386719 82 L 124 82 L 124 333.332031 L 30.386719 333.332031 Z M 30.386719 82 "/></clipPath><clipPath id="6e1ecdf5b9"><path d="M 94 250 L 344.636719 250 L 344.636719 333.332031 L 94 333.332031 Z M 94 250 "/></clipPath></defs><g id="4b20f93fe5"><path style=" stroke:none;fill-rule:nonzero;fill:#fdf151;fill-opacity:1;" d="M 119.605469 294.238281 L 55.625 86.046875 L 276.671875 45.816406 L 340.652344 254.007812 Z M 119.605469 294.238281 "/><g clip-rule="nonzero" clip-path="url(#a302a35a9d)"><path style=" stroke:none;fill-rule:nonzero;fill:#0b122d;fill-opacity:1;" d="M 119.601562 297.988281 C 117.984375 297.988281 116.511719 296.933594 116.019531 295.339844 L 52.042969 87.148438 C 51.726562 86.125 51.867188 85.015625 52.421875 84.101562 C 52.976562 83.1875 53.902344 82.550781 54.953125 82.359375 L 276.003906 42.128906 C 277.875 41.789062 279.699219 42.902344 280.257812 44.71875 L 344.234375 252.90625 C 344.550781 253.929688 344.410156 255.039062 343.855469 255.953125 C 343.300781 256.871094 342.378906 257.503906 341.324219 257.695312 L 120.277344 297.925781 C 120.050781 297.964844 119.824219 297.984375 119.601562 297.984375 Z M 60.449219 88.980469 L 122.210938 289.953125 L 335.828125 251.078125 L 274.066406 50.101562 Z M 60.449219 88.980469 "/></g><path style=" stroke:none;fill-rule:nonzero;fill:#0b122d;fill-opacity:1;" d="M 248.042969 215.582031 C 254.289062 221.308594 260.820312 226.695312 270.601562 224.914062 C 278.816406 223.417969 281.945312 218.789062 280.3125 213.46875 C 278.355469 207.101562 273.203125 205.652344 263.023438 203.589844 L 257.457031 202.503906 C 241.402344 199.390625 229.691406 193.960938 225.042969 178.839844 C 220.761719 164.902344 228.828125 152.234375 246.53125 149.011719 C 259.136719 146.71875 269.457031 149.183594 279.300781 158.761719 L 266.722656 170.863281 C 261.570312 165.769531 257.207031 164.1875 251.515625 165.222656 C 245.707031 166.277344 243.089844 170.402344 244.472656 174.914062 C 246.1875 180.488281 250.566406 182.070312 260.128906 183.976562 L 265.695312 185.0625 C 284.628906 188.757812 296.253906 193.929688 301.023438 209.453125 C 306.164062 226.175781 294.957031 237.898438 276.128906 241.320312 C 257.714844 244.671875 244.585938 237.875 235.453125 228.15625 L 248.042969 215.578125 Z M 248.042969 215.582031 "/><path style=" stroke:none;fill-rule:nonzero;fill:#0b122d;fill-opacity:1;" d="M 267.027344 245.921875 C 253.878906 245.921875 242.15625 240.765625 232.722656 230.726562 C 231.335938 229.25 231.371094 226.941406 232.804688 225.507812 L 245.390625 212.929688 C 246.8125 211.507812 249.097656 211.460938 250.578125 212.816406 C 256.730469 218.460938 262.066406 222.660156 269.929688 221.226562 C 273.222656 220.628906 275.554688 219.445312 276.496094 217.890625 C 277.054688 216.972656 277.128906 215.886719 276.726562 214.570312 C 275.472656 210.480469 272.519531 209.335938 262.28125 207.265625 L 256.738281 206.179688 C 241.710938 203.269531 227.03125 198.074219 221.457031 179.941406 C 219.179688 172.519531 219.957031 165.089844 223.652344 159.015625 C 227.90625 152.019531 235.792969 147.15625 245.859375 145.324219 C 260.234375 142.710938 271.691406 146.125 281.917969 156.078125 C 282.644531 156.785156 283.054688 157.757812 283.050781 158.773438 C 283.046875 159.789062 282.632812 160.757812 281.902344 161.464844 L 269.320312 173.566406 C 267.855469 174.976562 265.53125 174.960938 264.082031 173.53125 C 259.238281 168.738281 256.054688 168.210938 252.1875 168.914062 C 250.300781 169.253906 248.910156 170.023438 248.269531 171.078125 C 247.804688 171.839844 247.734375 172.757812 248.058594 173.8125 C 249.042969 177.015625 250.9375 178.324219 260.863281 180.300781 L 266.417969 181.386719 C 286.058594 185.21875 299.296875 191.066406 304.609375 208.355469 C 307.027344 216.21875 306.320312 223.636719 302.566406 229.8125 C 297.929688 237.433594 288.78125 242.835938 276.804688 245.015625 C 273.472656 245.621094 270.207031 245.921875 267.03125 245.921875 Z M 240.773438 228.148438 C 250.339844 236.894531 261.992188 240.085938 275.460938 237.636719 C 285.296875 235.84375 292.648438 231.683594 296.15625 225.914062 C 298.800781 221.5625 299.234375 216.394531 297.441406 210.554688 C 293.1875 196.714844 282.75 192.210938 264.976562 188.746094 L 259.410156 187.65625 C 250.085938 185.800781 243.304688 183.878906 240.890625 176.015625 C 239.9375 172.914062 240.28125 169.777344 241.859375 167.183594 C 243.628906 164.273438 246.816406 162.269531 250.839844 161.535156 C 256.753906 160.460938 261.625 161.726562 266.628906 165.75 L 273.789062 158.859375 C 266.101562 152.589844 257.945312 150.742188 247.203125 152.703125 C 239.273438 154.144531 233.1875 157.769531 230.058594 162.910156 C 227.457031 167.191406 226.960938 172.316406 228.625 177.738281 C 232.789062 191.292969 243.449219 195.96875 258.167969 198.820312 L 263.742188 199.910156 C 273.09375 201.804688 281.148438 203.4375 283.894531 212.367188 C 284.9375 215.753906 284.59375 219.011719 282.90625 221.785156 C 281.4375 224.195312 278.230469 227.335938 271.273438 228.601562 C 260.960938 230.476562 253.507812 225.371094 248.179688 220.742188 L 240.769531 228.144531 Z M 240.773438 228.148438 "/><path style=" stroke:none;fill-rule:nonzero;fill:#0b122d;fill-opacity:1;" d="M 177.046875 229 C 181.765625 233.675781 187.726562 236.847656 194.515625 235.613281 C 201.011719 234.429688 204.007812 231.332031 201.121094 221.933594 L 182.304688 160.695312 L 202.769531 156.972656 L 222.496094 221.167969 C 228.480469 240.640625 219.210938 251.683594 201.699219 254.871094 C 185.875 257.75 171.351562 249.730469 163.816406 241.199219 Z M 177.046875 229 "/><path style=" stroke:none;fill-rule:nonzero;fill:#0b122d;fill-opacity:1;" d="M 194.949219 259.230469 C 180.195312 259.230469 167.761719 251.332031 161.003906 243.679688 C 159.65625 242.152344 159.773438 239.824219 161.273438 238.441406 L 174.503906 226.246094 C 175.980469 224.886719 178.261719 224.929688 179.6875 226.339844 C 184.304688 230.914062 189.066406 232.792969 193.84375 231.921875 C 196.132812 231.507812 197.546875 230.871094 198.058594 230.039062 C 198.460938 229.371094 198.933594 227.578125 197.535156 223.035156 L 178.71875 161.796875 C 178.402344 160.773438 178.542969 159.664062 179.097656 158.75 C 179.65625 157.835938 180.578125 157.203125 181.628906 157.007812 L 202.097656 153.285156 C 203.972656 152.941406 205.792969 154.058594 206.351562 155.871094 L 226.082031 220.070312 C 229.171875 230.125 228.664062 238.628906 224.574219 245.351562 C 220.472656 252.09375 212.792969 256.660156 202.371094 258.558594 C 199.84375 259.019531 197.363281 259.230469 194.945312 259.230469 Z M 169.203125 241.332031 C 176.6875 248.171875 188.640625 253.433594 201.03125 251.179688 C 209.285156 249.679688 215.210938 246.316406 218.167969 241.453125 C 221.097656 236.640625 221.347656 230.1875 218.914062 222.269531 L 200.164062 161.253906 L 187.128906 163.628906 L 204.707031 220.832031 C 206.476562 226.589844 206.398438 230.75 204.464844 233.929688 C 202.210938 237.636719 198.089844 238.769531 195.191406 239.296875 C 188.964844 240.429688 182.761719 238.625 177.089844 234.0625 L 169.207031 241.328125 Z M 169.203125 241.332031 "/><path style=" stroke:none;fill-rule:nonzero;fill:#fdf151;fill-opacity:1;" d="M 55.625 86.046875 L 34.261719 121.074219 L 98.238281 329.261719 L 119.605469 294.238281 Z M 55.625 86.046875 "/><g clip-rule="nonzero" clip-path="url(#299dad1a0b)"><path style=" stroke:none;fill-rule:nonzero;fill:#0b122d;fill-opacity:1;" d="M 98.238281 333.011719 C 98.085938 333.011719 97.929688 333 97.769531 332.980469 C 96.308594 332.796875 95.085938 331.773438 94.652344 330.363281 L 30.675781 122.171875 C 30.359375 121.148438 30.5 120.035156 31.058594 119.121094 L 52.421875 84.09375 C 53.191406 82.835938 54.621094 82.144531 56.09375 82.328125 C 57.554688 82.511719 58.777344 83.535156 59.210938 84.945312 L 123.1875 293.136719 C 123.503906 294.160156 123.363281 295.273438 122.804688 296.1875 L 101.441406 331.210938 C 100.753906 332.335938 99.535156 333.007812 98.238281 333.007812 Z M 38.339844 121.582031 L 99.375 320.199219 L 115.523438 293.726562 L 54.488281 95.113281 L 38.34375 121.582031 Z M 38.339844 121.582031 "/></g><path style=" stroke:none;fill-rule:nonzero;fill:#fdf151;fill-opacity:1;" d="M 340.652344 254.007812 L 319.285156 289.035156 L 98.238281 329.261719 L 119.605469 294.238281 Z M 340.652344 254.007812 "/><g clip-rule="nonzero" clip-path="url(#6e1ecdf5b9)"><path style=" stroke:none;fill-rule:nonzero;fill:#0b122d;fill-opacity:1;" d="M 98.238281 333.011719 C 97.015625 333.011719 95.855469 332.414062 95.148438 331.382812 C 94.3125 330.164062 94.265625 328.570312 95.035156 327.308594 L 116.402344 292.285156 C 116.960938 291.375 117.878906 290.742188 118.933594 290.546875 L 339.980469 250.320312 C 341.433594 250.054688 342.90625 250.667969 343.742188 251.882812 C 344.578125 253.101562 344.621094 254.699219 343.851562 255.957031 L 322.488281 290.984375 C 321.929688 291.894531 321.007812 292.527344 319.957031 292.71875 L 98.910156 332.949219 C 98.6875 332.992188 98.460938 333.007812 98.238281 333.007812 Z M 121.929688 297.625 L 105.792969 324.078125 L 316.960938 285.648438 L 333.097656 259.195312 Z M 121.929688 297.625 "/></g></g></svg>