<svg xmlns="http://www.w3.org/2000/svg" xmlns:xlink="http://www.w3.org/1999/xlink" width="500" zoomAndPan="magnify" viewBox="0 0 375 374.999991" height="500" preserveAspectRatio="xMidYMid meet" version="1.2"><defs><clipPath id="dbb706fcf1"><path d="M 83.730469 135 L 291.480469 135 L 291.480469 240 L 83.730469 240 Z M 83.730469 135 "/></clipPath><clipPath id="827654ab3d"><path d="M 83.730469 31.75 L 291.480469 31.75 L 291.480469 136 L 83.730469 136 Z M 83.730469 31.75 "/></clipPath><clipPath id="cf996ee43c"><path d="M 83.730469 239 L 188 239 L 188 343 L 83.730469 343 Z M 83.730469 239 "/></clipPath></defs><g id="dd3f5c725d"><g clip-rule="nonzero" clip-path="url(#dbb706fcf1)"><path style=" stroke:none;fill-rule:nonzero;fill:#24a8ff;fill-opacity:1;" d="M 291.480469 239.214844 L 83.730469 239.214844 L 83.730469 135.535156 L 187.605469 135.535156 Z M 291.480469 239.214844 "/></g><g clip-rule="nonzero" clip-path="url(#827654ab3d)"><path style=" stroke:none;fill-rule:nonzero;fill:#8ddcff;fill-opacity:1;" d="M 291.480469 31.851562 L 83.730469 31.851562 L 187.605469 135.535156 L 291.480469 135.535156 Z M 291.480469 31.851562 "/></g><g clip-rule="nonzero" clip-path="url(#cf996ee43c)"><path style=" stroke:none;fill-rule:nonzero;fill:#054eff;fill-opacity:1;" d="M 187.605469 239.214844 L 187.605469 342.898438 L 83.730469 239.214844 Z M 187.605469 239.214844 "/></g></g></svg>