<svg xmlns="http://www.w3.org/2000/svg" xmlns:xlink="http://www.w3.org/1999/xlink" width="500" zoomAndPan="magnify" viewBox="0 0 375 374.999991" height="500" preserveAspectRatio="xMidYMid meet" version="1.2"><defs><clipPath id="27d7580503"><path d="M 163 54.046875 L 230 54.046875 L 230 163 L 163 163 Z M 163 54.046875 "/></clipPath></defs><g id="46a7ea4bdc"><path style=" stroke:none;fill-rule:nonzero;fill:#4e7896;fill-opacity:1;" d="M 163.613281 197.777344 C 163.613281 197.777344 156.484375 202.117188 168.574219 203.359375 C 183.179688 205.222656 190.898438 204.910156 207.019531 201.8125 C 207.019531 201.8125 211.359375 204.605469 217.253906 206.777344 C 180.972656 222.285156 135.085938 205.84375 163.613281 197.777344 Z M 158.960938 177.613281 C 158.960938 177.613281 151.210938 183.507812 163.300781 184.746094 C 179.113281 186.296875 191.519531 186.609375 212.914062 182.269531 C 212.914062 182.269531 215.707031 185.371094 220.355469 186.921875 C 176.640625 199.953125 127.648438 188.160156 158.960938 177.613281 Z M 244.539062 212.980469 C 244.539062 212.980469 249.808594 217.320312 238.648438 220.738281 C 217.871094 226.941406 151.519531 228.804688 132.917969 220.738281 C 126.410156 217.941406 138.808594 213.90625 142.839844 213.289062 C 146.871094 212.359375 149.039062 212.359375 149.039062 212.359375 C 141.90625 207.394531 101.597656 222.597656 128.574219 226.972656 C 202.675781 239.074219 263.761719 221.699219 244.535156 213.011719 Z M 167.023438 156.511719 C 167.023438 156.511719 133.226562 164.582031 154.925781 167.371094 C 164.230469 168.609375 182.523438 168.300781 199.574219 167.058594 C 213.527344 165.820312 227.511719 163.335938 227.511719 163.335938 C 227.511719 163.335938 222.550781 165.507812 219.140625 167.679688 C 184.695312 176.683594 118.652344 172.648438 137.566406 163.34375 C 153.695312 155.585938 167.023438 156.511719 167.023438 156.511719 Z M 227.480469 190.332031 C 262.210938 172.335938 246.085938 154.960938 234.921875 157.136719 C 232.128906 157.753906 230.890625 158.375 230.890625 158.375 C 230.890625 158.375 231.820312 156.511719 233.992188 155.894531 C 256.003906 148.140625 273.371094 179.164062 226.863281 191.265625 C 226.863281 191.265625 227.171875 190.953125 227.480469 190.332031 Z M 170.433594 239.34375 C 203.917969 241.519531 255.078125 238.105469 256.320312 222.28125 C 256.320312 222.28125 253.84375 228.484375 228.726562 233.136719 C 200.203125 238.410156 164.851562 237.792969 144.078125 234.378906 C 144.078125 234.378906 148.417969 238.101562 170.433594 239.34375 Z M 170.433594 239.34375 "/><g clip-rule="nonzero" clip-path="url(#27d7580503)"><path style=" stroke:none;fill-rule:nonzero;fill:#f58219;fill-opacity:1;" d="M 206.371094 54.132812 C 206.371094 54.132812 225.59375 73.675781 188.078125 103.144531 C 158 127.035156 181.25 140.6875 188.078125 156.195312 C 170.402344 140.375 157.695312 126.410156 166.371094 113.382812 C 179.113281 94.15625 214.148438 84.847656 206.371094 54.132812 Z M 196.449219 143.171875 C 205.441406 153.410156 193.972656 162.714844 193.972656 162.714844 C 193.972656 162.714844 216.914062 150.929688 206.375 136.34375 C 196.761719 122.382812 189.320312 115.558594 229.628906 92.285156 C 229.628906 92.285156 166.066406 108.105469 196.457031 143.164062 Z M 196.449219 143.171875 "/></g><path style=" stroke:none;fill-rule:nonzero;fill:#4e7896;fill-opacity:1;" d="M 180.449219 305.765625 L 180.449219 275.363281 C 180.449219 267.605469 176.109375 262.335938 165.253906 262.335938 C 159.054688 262.335938 153.78125 263.882812 149.128906 265.746094 L 150.675781 271.332031 C 154.085938 270.089844 158.429688 268.851562 163.078125 268.851562 C 168.972656 268.851562 171.761719 271.332031 171.761719 276.296875 L 171.761719 280.332031 L 168.660156 280.332031 C 153.777344 280.332031 146.957031 285.917969 146.957031 294.945312 C 146.957031 302.390625 151.605469 306.730469 159.976562 306.730469 C 165.25 306.730469 169.28125 304.253906 173 301.144531 L 173.621094 305.800781 L 180.445312 305.800781 Z M 171.765625 295.835938 C 168.664062 298.632812 165.257812 300.179688 162.152344 300.179688 C 158.121094 300.179688 155.644531 297.703125 155.644531 293.351562 C 155.644531 289 158.121094 285.90625 168.046875 285.90625 L 171.765625 285.90625 Z M 209.59375 305.765625 L 198.742188 305.765625 L 185.71875 263.261719 L 195.019531 263.261719 L 203.082031 289.324219 L 204.945312 297.078125 C 208.976562 285.910156 212.074219 274.429688 213.316406 263.261719 L 222.617188 263.261719 C 220.140625 277.222656 215.792969 292.421875 209.59375 305.765625 Z M 259.820312 305.765625 L 259.820312 275.363281 C 259.820312 267.605469 255.480469 262.335938 244.628906 262.335938 C 238.425781 262.335938 233.15625 263.882812 228.5 265.746094 L 229.738281 271.332031 C 233.460938 270.089844 237.800781 268.851562 242.449219 268.851562 C 248.34375 268.851562 251.132812 271.332031 251.132812 276.296875 L 251.132812 280.332031 L 248.03125 280.332031 C 233.148438 280.332031 226.324219 285.917969 226.324219 294.945312 C 226.324219 302.390625 230.664062 306.730469 239.039062 306.730469 C 244.617188 306.730469 248.648438 304.253906 252.371094 301.144531 L 252.988281 305.800781 L 259.816406 305.800781 Z M 251.140625 295.835938 C 248.039062 298.632812 244.632812 300.179688 241.527344 300.179688 C 237.496094 300.179688 235.019531 297.703125 235.019531 293.351562 C 235.019531 289 237.496094 285.90625 247.421875 285.90625 L 251.140625 285.90625 Z M 137.351562 312.894531 C 134.875 316.617188 131.152344 319.40625 126.5 320.964844 L 122.46875 316 C 125.570312 314.136719 128.667969 311.34375 129.910156 308.863281 C 131.148438 306.691406 131.460938 303.589844 131.460938 296.453125 L 131.460938 248.0625 L 140.761719 248.0625 L 140.761719 295.835938 C 140.761719 305.457031 139.832031 309.179688 137.351562 312.902344 Z M 137.351562 312.894531 "/></g></svg>