<svg xmlns="http://www.w3.org/2000/svg" xmlns:xlink="http://www.w3.org/1999/xlink" width="500" zoomAndPan="magnify" viewBox="0 0 375 374.999991" height="500" preserveAspectRatio="xMidYMid meet" version="1.2"><defs><clipPath id="a13c6f54f4"><path d="M 187.5 101.449219 L 314.0625 101.449219 L 314.0625 251.449219 L 187.5 251.449219 Z M 187.5 101.449219 "/></clipPath><clipPath id="ed0ec4cd47"><path d="M 80.21875 101.449219 L 188.21875 101.449219 L 188.21875 251.449219 L 80.21875 251.449219 Z M 80.21875 101.449219 "/></clipPath></defs><g id="2851649853"><g clip-rule="nonzero" clip-path="url(#a13c6f54f4)"><path style=" stroke:none;fill-rule:nonzero;fill:#004aad;fill-opacity:1;" d="M 267.679688 251.421875 L 267.679688 157.246094 L 229.226562 157.246094 L 229.226562 251.421875 Z M 288.164062 139.953125 L 314.050781 101.5 L 187.488281 101.5 L 187.488281 139.953125 Z M 288.164062 139.953125 "/></g><g clip-rule="nonzero" clip-path="url(#ed0ec4cd47)"><path style=" stroke:none;fill-rule:nonzero;fill:#000000;fill-opacity:1;" d="M 94.097656 251.378906 L 94.097656 212.929688 L 139.675781 212.929688 C 145.242188 212.929688 149.773438 208.398438 149.773438 202.828125 L 149.773438 139.945312 L 105.90625 139.945312 L 80.222656 101.5 L 188.214844 101.5 L 188.214844 202.199219 C 188.214844 229.316406 166.15625 251.378906 139.046875 251.378906 Z M 94.097656 251.378906 "/></g><g style="fill:#000000;fill-opacity:1;"><g transform="translate(70.123674, 267.612609)"><path style="stroke:none" d="M 2.46875 0.078125 C 1.945312 0.078125 1.460938 -0.0351562 1.015625 -0.265625 C 0.578125 -0.492188 0.21875 -0.816406 -0.0625 -1.234375 L 0.515625 -1.890625 C 1.015625 -1.140625 1.671875 -0.765625 2.484375 -0.765625 C 3.617188 -0.765625 4.1875 -1.429688 4.1875 -2.765625 L 4.1875 -8.3125 L 0.84375 -8.3125 L 0.84375 -9.15625 L 5.140625 -9.15625 L 5.140625 -2.8125 C 5.140625 -1.851562 4.914062 -1.128906 4.46875 -0.640625 C 4.019531 -0.160156 3.351562 0.078125 2.46875 0.078125 Z M 2.46875 0.078125 "/></g></g><g style="fill:#000000;fill-opacity:1;"><g transform="translate(79.907514, 267.612609)"><path style="stroke:none" d="M 7.96875 -0.84375 L 7.96875 0 L 1.484375 0 L 1.484375 -9.15625 L 7.765625 -9.15625 L 7.765625 -8.3125 L 2.453125 -8.3125 L 2.453125 -5.0625 L 7.1875 -5.0625 L 7.1875 -4.234375 L 2.453125 -4.234375 L 2.453125 -0.84375 Z M 7.96875 -0.84375 "/></g></g><g style="fill:#000000;fill-opacity:1;"><g transform="translate(91.888481, 267.612609)"><path style="stroke:none" d="M 9.109375 -9.15625 L 5.046875 0 L 4.09375 0 L 0.046875 -9.15625 L 1.078125 -9.15625 L 4.59375 -1.203125 L 8.125 -9.15625 Z M 9.109375 -9.15625 "/></g></g><g style="fill:#000000;fill-opacity:1;"><g transform="translate(104.248706, 267.612609)"><path style="stroke:none" d="M 7.96875 -0.84375 L 7.96875 0 L 1.484375 0 L 1.484375 -9.15625 L 7.765625 -9.15625 L 7.765625 -8.3125 L 2.453125 -8.3125 L 2.453125 -5.0625 L 7.1875 -5.0625 L 7.1875 -4.234375 L 2.453125 -4.234375 L 2.453125 -0.84375 Z M 7.96875 -0.84375 "/></g></g><g style="fill:#000000;fill-opacity:1;"><g transform="translate(116.229674, 267.612609)"><path style="stroke:none" d="M 1.484375 -9.15625 L 2.453125 -9.15625 L 2.453125 -0.84375 L 7.578125 -0.84375 L 7.578125 0 L 1.484375 0 Z M 1.484375 -9.15625 "/></g></g><g style="fill:#000000;fill-opacity:1;"><g transform="translate(127.164389, 267.612609)"><path style="stroke:none" d="M 5.5 0.078125 C 4.582031 0.078125 3.753906 -0.125 3.015625 -0.53125 C 2.285156 -0.9375 1.710938 -1.488281 1.296875 -2.1875 C 0.890625 -2.894531 0.6875 -3.691406 0.6875 -4.578125 C 0.6875 -5.453125 0.890625 -6.242188 1.296875 -6.953125 C 1.710938 -7.660156 2.285156 -8.21875 3.015625 -8.625 C 3.753906 -9.03125 4.582031 -9.234375 5.5 -9.234375 C 6.40625 -9.234375 7.21875 -9.03125 7.9375 -8.625 C 8.664062 -8.226562 9.238281 -7.671875 9.65625 -6.953125 C 10.082031 -6.242188 10.296875 -5.453125 10.296875 -4.578125 C 10.296875 -3.691406 10.082031 -2.894531 9.65625 -2.1875 C 9.238281 -1.476562 8.664062 -0.921875 7.9375 -0.515625 C 7.21875 -0.117188 6.40625 0.078125 5.5 0.078125 Z M 5.5 -0.78125 C 6.21875 -0.78125 6.867188 -0.941406 7.453125 -1.265625 C 8.035156 -1.597656 8.492188 -2.050781 8.828125 -2.625 C 9.160156 -3.207031 9.328125 -3.859375 9.328125 -4.578125 C 9.328125 -5.296875 9.160156 -5.941406 8.828125 -6.515625 C 8.492188 -7.097656 8.035156 -7.550781 7.453125 -7.875 C 6.867188 -8.207031 6.21875 -8.375 5.5 -8.375 C 4.769531 -8.375 4.109375 -8.207031 3.515625 -7.875 C 2.929688 -7.550781 2.472656 -7.097656 2.140625 -6.515625 C 1.804688 -5.941406 1.640625 -5.296875 1.640625 -4.578125 C 1.640625 -3.859375 1.804688 -3.207031 2.140625 -2.625 C 2.472656 -2.050781 2.929688 -1.597656 3.515625 -1.265625 C 4.109375 -0.941406 4.769531 -0.78125 5.5 -0.78125 Z M 5.5 -0.78125 "/></g></g><g style="fill:#000000;fill-opacity:1;"><g transform="translate(141.368623, 267.612609)"><path style="stroke:none" d="M 9.140625 -9.15625 L 9.140625 0 L 8.34375 0 L 2.453125 -7.421875 L 2.453125 0 L 1.484375 0 L 1.484375 -9.15625 L 2.28125 -9.15625 L 8.1875 -1.71875 L 8.1875 -9.15625 Z M 9.140625 -9.15625 "/></g></g><g style="fill:#000000;fill-opacity:1;"><g transform="translate(155.23283, 267.612609)"><path style="stroke:none" d=""/></g></g><g style="fill:#000000;fill-opacity:1;"><g transform="translate(161.891014, 267.612609)"><path style="stroke:none" d="M 3.265625 -8.3125 L 0.046875 -8.3125 L 0.046875 -9.15625 L 7.453125 -9.15625 L 7.453125 -8.3125 L 4.234375 -8.3125 L 4.234375 0 L 3.265625 0 Z M 3.265625 -8.3125 "/></g></g><g style="fill:#000000;fill-opacity:1;"><g transform="translate(172.629554, 267.612609)"><path style="stroke:none" d="M 7.96875 -0.84375 L 7.96875 0 L 1.484375 0 L 1.484375 -9.15625 L 7.765625 -9.15625 L 7.765625 -8.3125 L 2.453125 -8.3125 L 2.453125 -5.0625 L 7.1875 -5.0625 L 7.1875 -4.234375 L 2.453125 -4.234375 L 2.453125 -0.84375 Z M 7.96875 -0.84375 "/></g></g><g style="fill:#000000;fill-opacity:1;"><g transform="translate(184.610521, 267.612609)"><path style="stroke:none" d="M 5.46875 0.078125 C 4.5625 0.078125 3.742188 -0.117188 3.015625 -0.515625 C 2.285156 -0.921875 1.710938 -1.476562 1.296875 -2.1875 C 0.890625 -2.894531 0.6875 -3.691406 0.6875 -4.578125 C 0.6875 -5.453125 0.890625 -6.242188 1.296875 -6.953125 C 1.710938 -7.671875 2.285156 -8.226562 3.015625 -8.625 C 3.753906 -9.03125 4.578125 -9.234375 5.484375 -9.234375 C 6.160156 -9.234375 6.785156 -9.117188 7.359375 -8.890625 C 7.929688 -8.660156 8.421875 -8.332031 8.828125 -7.90625 L 8.21875 -7.28125 C 7.5 -8.007812 6.59375 -8.375 5.5 -8.375 C 4.78125 -8.375 4.125 -8.207031 3.53125 -7.875 C 2.9375 -7.539062 2.472656 -7.085938 2.140625 -6.515625 C 1.804688 -5.941406 1.640625 -5.296875 1.640625 -4.578125 C 1.640625 -3.859375 1.804688 -3.210938 2.140625 -2.640625 C 2.472656 -2.066406 2.9375 -1.613281 3.53125 -1.28125 C 4.125 -0.945312 4.78125 -0.78125 5.5 -0.78125 C 6.601562 -0.78125 7.507812 -1.148438 8.21875 -1.890625 L 8.828125 -1.265625 C 8.421875 -0.828125 7.925781 -0.492188 7.34375 -0.265625 C 6.769531 -0.0351562 6.144531 0.078125 5.46875 0.078125 Z M 5.46875 0.078125 "/></g></g><g style="fill:#000000;fill-opacity:1;"><g transform="translate(197.245393, 267.612609)"><path style="stroke:none" d="M 9.140625 -9.15625 L 9.140625 0 L 8.1875 0 L 8.1875 -4.21875 L 2.453125 -4.21875 L 2.453125 0 L 1.484375 0 L 1.484375 -9.15625 L 2.453125 -9.15625 L 2.453125 -5.078125 L 8.1875 -5.078125 L 8.1875 -9.15625 Z M 9.140625 -9.15625 "/></g></g><g style="fill:#000000;fill-opacity:1;"><g transform="translate(211.1096, 267.612609)"><path style="stroke:none" d="M 9.140625 -9.15625 L 9.140625 0 L 8.34375 0 L 2.453125 -7.421875 L 2.453125 0 L 1.484375 0 L 1.484375 -9.15625 L 2.28125 -9.15625 L 8.1875 -1.71875 L 8.1875 -9.15625 Z M 9.140625 -9.15625 "/></g></g><g style="fill:#000000;fill-opacity:1;"><g transform="translate(224.973808, 267.612609)"><path style="stroke:none" d="M 5.5 0.078125 C 4.582031 0.078125 3.753906 -0.125 3.015625 -0.53125 C 2.285156 -0.9375 1.710938 -1.488281 1.296875 -2.1875 C 0.890625 -2.894531 0.6875 -3.691406 0.6875 -4.578125 C 0.6875 -5.453125 0.890625 -6.242188 1.296875 -6.953125 C 1.710938 -7.660156 2.285156 -8.21875 3.015625 -8.625 C 3.753906 -9.03125 4.582031 -9.234375 5.5 -9.234375 C 6.40625 -9.234375 7.21875 -9.03125 7.9375 -8.625 C 8.664062 -8.226562 9.238281 -7.671875 9.65625 -6.953125 C 10.082031 -6.242188 10.296875 -5.453125 10.296875 -4.578125 C 10.296875 -3.691406 10.082031 -2.894531 9.65625 -2.1875 C 9.238281 -1.476562 8.664062 -0.921875 7.9375 -0.515625 C 7.21875 -0.117188 6.40625 0.078125 5.5 0.078125 Z M 5.5 -0.78125 C 6.21875 -0.78125 6.867188 -0.941406 7.453125 -1.265625 C 8.035156 -1.597656 8.492188 -2.050781 8.828125 -2.625 C 9.160156 -3.207031 9.328125 -3.859375 9.328125 -4.578125 C 9.328125 -5.296875 9.160156 -5.941406 8.828125 -6.515625 C 8.492188 -7.097656 8.035156 -7.550781 7.453125 -7.875 C 6.867188 -8.207031 6.21875 -8.375 5.5 -8.375 C 4.769531 -8.375 4.109375 -8.207031 3.515625 -7.875 C 2.929688 -7.550781 2.472656 -7.097656 2.140625 -6.515625 C 1.804688 -5.941406 1.640625 -5.296875 1.640625 -4.578125 C 1.640625 -3.859375 1.804688 -3.207031 2.140625 -2.625 C 2.472656 -2.050781 2.929688 -1.597656 3.515625 -1.265625 C 4.109375 -0.941406 4.769531 -0.78125 5.5 -0.78125 Z M 5.5 -0.78125 "/></g></g><g style="fill:#000000;fill-opacity:1;"><g transform="translate(239.178042, 267.612609)"><path style="stroke:none" d="M 1.484375 -9.15625 L 2.453125 -9.15625 L 2.453125 -0.84375 L 7.578125 -0.84375 L 7.578125 0 L 1.484375 0 Z M 1.484375 -9.15625 "/></g></g><g style="fill:#000000;fill-opacity:1;"><g transform="translate(250.112756, 267.612609)"><path style="stroke:none" d="M 5.5 0.078125 C 4.582031 0.078125 3.753906 -0.125 3.015625 -0.53125 C 2.285156 -0.9375 1.710938 -1.488281 1.296875 -2.1875 C 0.890625 -2.894531 0.6875 -3.691406 0.6875 -4.578125 C 0.6875 -5.453125 0.890625 -6.242188 1.296875 -6.953125 C 1.710938 -7.660156 2.285156 -8.21875 3.015625 -8.625 C 3.753906 -9.03125 4.582031 -9.234375 5.5 -9.234375 C 6.40625 -9.234375 7.21875 -9.03125 7.9375 -8.625 C 8.664062 -8.226562 9.238281 -7.671875 9.65625 -6.953125 C 10.082031 -6.242188 10.296875 -5.453125 10.296875 -4.578125 C 10.296875 -3.691406 10.082031 -2.894531 9.65625 -2.1875 C 9.238281 -1.476562 8.664062 -0.921875 7.9375 -0.515625 C 7.21875 -0.117188 6.40625 0.078125 5.5 0.078125 Z M 5.5 -0.78125 C 6.21875 -0.78125 6.867188 -0.941406 7.453125 -1.265625 C 8.035156 -1.597656 8.492188 -2.050781 8.828125 -2.625 C 9.160156 -3.207031 9.328125 -3.859375 9.328125 -4.578125 C 9.328125 -5.296875 9.160156 -5.941406 8.828125 -6.515625 C 8.492188 -7.097656 8.035156 -7.550781 7.453125 -7.875 C 6.867188 -8.207031 6.21875 -8.375 5.5 -8.375 C 4.769531 -8.375 4.109375 -8.207031 3.515625 -7.875 C 2.929688 -7.550781 2.472656 -7.097656 2.140625 -6.515625 C 1.804688 -5.941406 1.640625 -5.296875 1.640625 -4.578125 C 1.640625 -3.859375 1.804688 -3.207031 2.140625 -2.625 C 2.472656 -2.050781 2.929688 -1.597656 3.515625 -1.265625 C 4.109375 -0.941406 4.769531 -0.78125 5.5 -0.78125 Z M 5.5 -0.78125 "/></g></g><g style="fill:#000000;fill-opacity:1;"><g transform="translate(264.316991, 267.612609)"><path style="stroke:none" d="M 7.9375 -4.578125 L 8.859375 -4.578125 L 8.859375 -1.078125 C 8.429688 -0.703125 7.925781 -0.414062 7.34375 -0.21875 C 6.757812 -0.0195312 6.144531 0.078125 5.5 0.078125 C 4.582031 0.078125 3.757812 -0.117188 3.03125 -0.515625 C 2.300781 -0.921875 1.726562 -1.476562 1.3125 -2.1875 C 0.894531 -2.894531 0.6875 -3.691406 0.6875 -4.578125 C 0.6875 -5.453125 0.894531 -6.242188 1.3125 -6.953125 C 1.726562 -7.671875 2.300781 -8.226562 3.03125 -8.625 C 3.757812 -9.03125 4.585938 -9.234375 5.515625 -9.234375 C 6.210938 -9.234375 6.851562 -9.117188 7.4375 -8.890625 C 8.019531 -8.671875 8.515625 -8.34375 8.921875 -7.90625 L 8.3125 -7.296875 C 7.59375 -8.015625 6.675781 -8.375 5.5625 -8.375 C 4.820312 -8.375 4.148438 -8.207031 3.546875 -7.875 C 2.953125 -7.550781 2.484375 -7.097656 2.140625 -6.515625 C 1.804688 -5.941406 1.640625 -5.296875 1.640625 -4.578125 C 1.640625 -3.859375 1.804688 -3.210938 2.140625 -2.640625 C 2.484375 -2.066406 2.953125 -1.613281 3.546875 -1.28125 C 4.140625 -0.945312 4.804688 -0.78125 5.546875 -0.78125 C 6.484375 -0.78125 7.28125 -1.015625 7.9375 -1.484375 Z M 7.9375 -4.578125 "/></g></g><g style="fill:#000000;fill-opacity:1;"><g transform="translate(277.658077, 267.612609)"><path style="stroke:none" d="M 1.484375 -9.15625 L 2.453125 -9.15625 L 2.453125 0 L 1.484375 0 Z M 1.484375 -9.15625 "/></g></g><g style="fill:#000000;fill-opacity:1;"><g transform="translate(284.839381, 267.612609)"><path style="stroke:none" d="M 7.96875 -0.84375 L 7.96875 0 L 1.484375 0 L 1.484375 -9.15625 L 7.765625 -9.15625 L 7.765625 -8.3125 L 2.453125 -8.3125 L 2.453125 -5.0625 L 7.1875 -5.0625 L 7.1875 -4.234375 L 2.453125 -4.234375 L 2.453125 -0.84375 Z M 7.96875 -0.84375 "/></g></g><g style="fill:#000000;fill-opacity:1;"><g transform="translate(296.82036, 267.612609)"><path style="stroke:none" d="M 4.015625 0.078125 C 3.335938 0.078125 2.6875 -0.03125 2.0625 -0.25 C 1.4375 -0.46875 0.953125 -0.753906 0.609375 -1.109375 L 1 -1.859375 C 1.320312 -1.523438 1.757812 -1.253906 2.3125 -1.046875 C 2.863281 -0.847656 3.429688 -0.75 4.015625 -0.75 C 4.835938 -0.75 5.453125 -0.894531 5.859375 -1.1875 C 6.265625 -1.488281 6.46875 -1.878906 6.46875 -2.359375 C 6.46875 -2.734375 6.359375 -3.03125 6.140625 -3.25 C 5.921875 -3.46875 5.648438 -3.632812 5.328125 -3.75 C 5.003906 -3.863281 4.550781 -3.988281 3.96875 -4.125 C 3.28125 -4.300781 2.734375 -4.46875 2.328125 -4.625 C 1.921875 -4.789062 1.570312 -5.039062 1.28125 -5.375 C 0.988281 -5.707031 0.84375 -6.15625 0.84375 -6.71875 C 0.84375 -7.1875 0.960938 -7.609375 1.203125 -7.984375 C 1.441406 -8.359375 1.816406 -8.660156 2.328125 -8.890625 C 2.835938 -9.117188 3.46875 -9.234375 4.21875 -9.234375 C 4.738281 -9.234375 5.25 -9.160156 5.75 -9.015625 C 6.25 -8.867188 6.679688 -8.671875 7.046875 -8.421875 L 6.71875 -7.65625 C 6.332031 -7.90625 5.921875 -8.09375 5.484375 -8.21875 C 5.054688 -8.34375 4.632812 -8.40625 4.21875 -8.40625 C 3.414062 -8.40625 2.8125 -8.25 2.40625 -7.9375 C 2 -7.632812 1.796875 -7.238281 1.796875 -6.75 C 1.796875 -6.382812 1.90625 -6.085938 2.125 -5.859375 C 2.34375 -5.640625 2.617188 -5.46875 2.953125 -5.34375 C 3.296875 -5.226562 3.75 -5.101562 4.3125 -4.96875 C 4.988281 -4.800781 5.53125 -4.632812 5.9375 -4.46875 C 6.351562 -4.3125 6.703125 -4.066406 6.984375 -3.734375 C 7.273438 -3.410156 7.421875 -2.972656 7.421875 -2.421875 C 7.421875 -1.953125 7.296875 -1.53125 7.046875 -1.15625 C 6.804688 -0.78125 6.425781 -0.476562 5.90625 -0.25 C 5.394531 -0.03125 4.765625 0.078125 4.015625 0.078125 Z M 4.015625 0.078125 "/></g></g></g></svg>