<svg xmlns="http://www.w3.org/2000/svg" xmlns:xlink="http://www.w3.org/1999/xlink" width="500" zoomAndPan="magnify" viewBox="0 0 375 374.999991" height="500" preserveAspectRatio="xMidYMid meet" version="1.2"><defs><clipPath id="e7efe7bb5a"><path d="M 177 60.171875 L 237 60.171875 L 237 282 L 177 282 Z M 177 60.171875 "/></clipPath><clipPath id="ba77a57412"><path d="M 121 60.171875 L 180 60.171875 L 180 284 L 121 284 Z M 121 60.171875 "/></clipPath><clipPath id="efe19cb7d9"><path d="M 173 251 L 189 251 L 189 315.171875 L 173 315.171875 Z M 173 251 "/></clipPath></defs><g id="c2fe86aeca"><g clip-rule="nonzero" clip-path="url(#e7efe7bb5a)"><path style=" stroke:none;fill-rule:nonzero;fill:#599636;fill-opacity:1;" d="M 178.109375 60.867188 L 184.894531 73.648438 C 186.417969 76.007812 188.070312 78.09375 190.019531 80.039062 C 195.699219 85.738281 201.09375 91.707031 205.9375 98.097656 C 217.433594 113.238281 225.1875 130.050781 230.726562 148.234375 C 234.046875 159.34375 235.851562 170.738281 235.984375 182.261719 C 236.542969 216.710938 224.765625 246.292969 201.03125 270.875 C 197.152344 274.761719 193.003906 278.367188 188.554688 281.570312 C 186.203125 281.570312 185.09375 279.761719 184.125 278.09375 C 182.320312 275.042969 181.214844 271.558594 180.660156 268.09375 C 179.824219 263.925781 179.277344 259.757812 179.546875 255.457031 L 179.546875 253.511719 C 179.355469 253.097656 177.285156 61.847656 178.109375 60.867188 Z M 178.109375 60.867188 "/></g><g clip-rule="nonzero" clip-path="url(#ba77a57412)"><path style=" stroke:none;fill-rule:nonzero;fill:#6cac48;fill-opacity:1;" d="M 178.109375 60.445312 C 177.832031 59.886719 177.554688 60.308594 177.273438 60.578125 C 177.410156 63.367188 176.441406 65.855469 174.921875 68.230469 C 173.253906 70.589844 171.046875 72.398438 168.832031 74.339844 C 156.515625 85.035156 146.824219 97.953125 139.0625 112.398438 C 128.734375 131.84375 123.410156 152.683594 121.902344 174.621094 C 121.210938 182.53125 124.398438 210.457031 126.882812 218.511719 C 133.667969 239.898438 145.855469 257.820312 161.640625 273.375 C 165.515625 277.121094 169.664062 280.597656 173.953125 283.933594 C 175.203125 283.933594 175.335938 282.820312 175.621094 281.992188 C 176.171875 280.214844 176.585938 278.410156 176.871094 276.574219 L 179.652344 255.742188 Z M 178.109375 60.445312 "/></g><g clip-rule="nonzero" clip-path="url(#efe19cb7d9)"><path style=" stroke:none;fill-rule:nonzero;fill:#c2bfbf;fill-opacity:1;" d="M 184.894531 290.03125 C 185.171875 286.84375 186.699219 284.199219 188.359375 281.5625 C 186.691406 280.867188 185.449219 279.488281 184.480469 277.949219 C 183.648438 276.5625 182.957031 274.898438 182.414062 273.367188 C 180.476562 267.535156 180.0625 261.414062 179.507812 255.457031 L 179.507812 251.84375 C 178.816406 252.402344 178.671875 257.121094 178.671875 257.820312 C 178.269531 264.128906 177.4375 270.378906 176.179688 276.574219 C 175.765625 279.074219 175.488281 281.570312 173.953125 283.792969 C 173.953125 284.070312 173.953125 284.351562 174.089844 284.765625 C 176.585938 292.128906 177.265625 299.625 177.6875 307.269531 L 177.6875 310.058594 C 177.6875 313.386719 177.554688 312.6875 180.308594 313.800781 C 181.421875 314.214844 182.660156 314.359375 183.773438 315.1875 C 184.609375 315.1875 184.742188 314.496094 184.742188 313.9375 L 184.328125 309.355469 L 184.328125 296.574219 C 184.195312 294.34375 184.609375 292.128906 184.886719 290.039062 Z M 184.894531 290.03125 "/></g></g></svg>