<svg xmlns="http://www.w3.org/2000/svg" xmlns:xlink="http://www.w3.org/1999/xlink" width="500" zoomAndPan="magnify" viewBox="0 0 375 374.999991" height="500" preserveAspectRatio="xMidYMid meet" version="1.2"><defs><clipPath id="fa8132702e"><path d="M 138 78.25 L 206.234375 78.25 L 206.234375 137.5 L 138 137.5 Z M 138 78.25 "/></clipPath></defs><g id="cc0def91d8"><path style=" stroke:none;fill-rule:nonzero;fill:#000000;fill-opacity:1;" d="M 239.382812 86.046875 C 160.132812 39.5 59.425781 96.351562 58.550781 188.128906 C 57.695312 277.746094 152.648438 335.632812 231.722656 296.1875 L 145.390625 169.3125 L 145.390625 247.847656 C 145.390625 256.546875 128.71875 256.546875 128.71875 247.847656 L 128.71875 142.570312 C 128.71875 135.660156 141.566406 135.09375 145.203125 141.097656 L 243.609375 289.421875 C 317.535156 241.863281 316.535156 131.355469 239.382812 86.046875 Z M 228.265625 234.671875 L 211.542969 209.15625 L 211.542969 139.3125 C 211.542969 132.800781 228.265625 132.800781 228.265625 139.3125 Z M 228.265625 234.671875 "/><g clip-rule="nonzero" clip-path="url(#fa8132702e)"><path style=" stroke:none;fill-rule:nonzero;fill:#020202;fill-opacity:1;" d="M 160.667969 114.945312 C 169.792969 107.652344 179.058594 100.550781 188.929688 94.292969 C 190.535156 93.273438 192.253906 92.429688 193.921875 91.511719 C 194.1875 91.363281 194.515625 91.074219 194.707031 91.554688 C 194.84375 91.902344 194.496094 91.984375 194.257812 92.128906 C 178.832031 101.300781 164.992188 112.617188 151.441406 124.300781 C 147.125 128.023438 143.132812 132.101562 139.617188 136.617188 C 139.402344 136.894531 139.300781 137.402344 138.628906 137.222656 C 138.027344 137.265625 137.996094 136.929688 138.378906 136.457031 C 139.53125 135.015625 140.648438 133.542969 141.875 132.167969 C 147.570312 125.800781 154.019531 120.261719 160.667969 114.945312 Z M 205.484375 94.660156 C 205.757812 94.507812 206.230469 94.375 205.984375 93.914062 C 205.746094 93.476562 205.421875 93.839844 205.164062 93.960938 C 204.300781 94.367188 203.4375 94.789062 202.589844 95.230469 C 193.636719 99.90625 185.253906 105.515625 176.871094 111.121094 C 169.054688 116.347656 161.339844 121.71875 154.289062 127.980469 C 153.71875 128.484375 153.121094 128.953125 152.726562 129.632812 C 152.433594 130.132812 152.65625 130.363281 152.886719 130.4375 C 153.457031 130.550781 153.621094 130.28125 153.824219 130.097656 C 154.359375 129.617188 154.859375 129.097656 155.40625 128.625 C 161.261719 123.5625 167.542969 119.066406 173.890625 114.664062 C 182.023438 109.023438 190.21875 103.476562 198.730469 98.421875 C 200.945312 97.109375 203.234375 95.921875 205.484375 94.660156 Z M 201.628906 78.773438 C 201.472656 78.410156 201.191406 78.332031 200.851562 78.40625 C 200.253906 78.535156 199.769531 78.898438 199.265625 79.21875 C 196.078125 81.273438 192.941406 83.40625 189.890625 85.660156 C 184.832031 89.402344 179.890625 93.273438 175.644531 97.957031 C 175.421875 98.203125 174.933594 98.429688 175.265625 98.828125 C 175.664062 99.308594 175.886719 98.730469 176.089844 98.53125 C 180.585938 94.046875 185.53125 90.121094 190.695312 86.449219 C 193.980469 84.109375 197.324219 81.859375 200.730469 79.699219 C 201.09375 79.46875 201.472656 79.234375 201.628906 78.773438 Z M 201.628906 78.773438 "/></g></g></svg>