<svg xmlns="http://www.w3.org/2000/svg" xmlns:xlink="http://www.w3.org/1999/xlink" width="500" zoomAndPan="magnify" viewBox="0 0 375 374.999991" height="500" preserveAspectRatio="xMidYMid meet" version="1.2"><defs><clipPath id="d831944cb4"><path d="M 84 71 L 291.464844 71 L 291.464844 304.53125 L 84 304.53125 Z M 84 71 "/></clipPath></defs><g id="42f1863810"><g clip-rule="nonzero" clip-path="url(#d831944cb4)"><path style=" stroke:none;fill-rule:nonzero;fill:#539e43;fill-opacity:1;" d="M 187.589844 304.496094 C 184.371094 304.496094 181.371094 303.640625 178.585938 302.144531 L 150.070312 285.214844 C 145.78125 282.859375 147.925781 282.003906 149.210938 281.574219 C 155 279.640625 156.074219 279.214844 162.078125 275.785156 C 162.71875 275.355469 163.578125 275.574219 164.21875 276.003906 L 186.085938 289.070312 C 186.945312 289.5 188.019531 289.5 188.667969 289.070312 L 274.207031 239.578125 C 275.066406 239.148438 275.496094 238.292969 275.496094 237.21875 L 275.496094 138.433594 C 275.496094 137.363281 275.066406 136.507812 274.207031 136.078125 L 188.667969 86.792969 C 187.808594 86.363281 186.734375 86.363281 186.085938 86.792969 L 100.542969 136.078125 C 99.683594 136.507812 99.253906 137.578125 99.253906 138.433594 L 99.253906 237.21875 C 99.253906 238.074219 99.683594 239.148438 100.542969 239.578125 L 123.910156 253.074219 C 136.5625 259.5 144.496094 252.007812 144.496094 244.503906 L 144.496094 147.003906 C 144.496094 145.722656 145.566406 144.433594 147.066406 144.433594 L 158.003906 144.433594 C 159.289062 144.433594 160.574219 145.507812 160.574219 147.007812 L 160.574219 244.503906 C 160.574219 261.433594 151.355469 271.292969 135.273438 271.292969 C 130.34375 271.292969 126.484375 271.292969 115.550781 265.929688 L 93.035156 253.074219 C 87.460938 249.863281 84.03125 243.863281 84.03125 237.4375 L 84.03125 138.652344 C 84.03125 132.222656 87.460938 126.222656 93.035156 123.007812 L 178.585938 73.511719 C 183.941406 70.507812 191.238281 70.507812 196.597656 73.507812 L 282.144531 123.007812 C 287.71875 126.222656 291.148438 132.222656 291.148438 138.648438 L 291.148438 237.433594 C 291.148438 243.859375 287.71875 249.859375 282.144531 253.070312 L 196.597656 302.570312 C 193.8125 303.855469 190.59375 304.496094 187.589844 304.496094 Z M 213.964844 236.578125 C 176.441406 236.578125 168.722656 219.429688 168.722656 204.859375 C 168.722656 203.570312 169.792969 202.285156 171.296875 202.285156 L 182.445312 202.285156 C 183.730469 202.285156 184.800781 203.144531 184.800781 204.429688 C 186.515625 215.789062 191.449219 221.359375 214.175781 221.359375 C 232.1875 221.359375 239.90625 217.285156 239.90625 207.648438 C 239.90625 202.078125 237.761719 198 209.679688 195.21875 C 186.304688 192.859375 171.726562 187.714844 171.726562 169.078125 C 171.726562 151.71875 186.304688 141.433594 210.746094 141.433594 C 238.1875 141.433594 251.699219 150.863281 253.414062 171.429688 C 253.414062 172.078125 253.199219 172.71875 252.769531 173.363281 C 252.339844 173.792969 251.699219 174.222656 251.054688 174.222656 L 239.90625 174.222656 C 238.835938 174.222656 237.761719 173.363281 237.550781 172.289062 C 234.976562 160.507812 228.328125 156.652344 210.746094 156.652344 C 191.019531 156.652344 188.667969 163.507812 188.667969 168.648438 C 188.667969 174.859375 191.449219 176.792969 218.035156 180.222656 C 244.410156 183.648438 256.847656 188.574219 256.847656 207 C 256.628906 225.855469 241.191406 236.578125 213.964844 236.578125 Z M 213.964844 236.578125 "/></g></g></svg>