<svg xmlns="http://www.w3.org/2000/svg" xmlns:xlink="http://www.w3.org/1999/xlink" width="500" zoomAndPan="magnify" viewBox="0 0 375 374.999991" height="500" preserveAspectRatio="xMidYMid meet" version="1.2"><defs><clipPath id="e0acb0a0ea"><path d="M 159 213 L 295.136719 213 L 295.136719 313.070312 L 159 313.070312 Z M 159 213 "/></clipPath><clipPath id="51cdc4a4d1"><path d="M 159.691406 311.453125 C 168.566406 312.503906 177.890625 313.070312 187.511719 313.070312 C 246.957031 313.070312 295.144531 291.640625 295.144531 265.210938 L 295.144531 236.8125 C 295.144531 223.863281 284.640625 213.367188 271.6875 213.367188 L 216.050781 213.367188 Z M 159.691406 311.453125 "/></clipPath><linearGradient x1="332.203" gradientTransform="matrix(0.523714,0,0,0.523437,53.439407,53.443539)" y1="496.00001" x2="332.203" gradientUnits="userSpaceOnUse" y2="305.522833" id="857c1f4376"><stop style="stop-color:#edc8f6;stop-opacity:1;" offset="0"/><stop style="stop-color:#edc9f6;stop-opacity:1;" offset="0.0625"/><stop style="stop-color:#edcaf6;stop-opacity:1;" offset="0.125"/><stop style="stop-color:#edcbf6;stop-opacity:1;" offset="0.1875"/><stop style="stop-color:#edcbf6;stop-opacity:1;" offset="0.25"/><stop style="stop-color:#edccf6;stop-opacity:1;" offset="0.3125"/><stop style="stop-color:#edcdf6;stop-opacity:1;" offset="0.375"/><stop style="stop-color:#edcef6;stop-opacity:1;" offset="0.4375"/><stop style="stop-color:#edcff6;stop-opacity:1;" offset="0.5"/><stop style="stop-color:#edd0f6;stop-opacity:1;" offset="0.5625"/><stop style="stop-color:#edd1f6;stop-opacity:1;" offset="0.625"/><stop style="stop-color:#edd2f6;stop-opacity:1;" offset="0.6875"/><stop style="stop-color:#edd3f6;stop-opacity:1;" offset="0.75"/><stop style="stop-color:#edd4f6;stop-opacity:1;" offset="0.8125"/><stop style="stop-color:#eed5f6;stop-opacity:1;" offset="0.875"/><stop style="stop-color:#eed6f6;stop-opacity:1;" offset="0.9375"/><stop style="stop-color:#eed6f6;stop-opacity:1;" offset="1"/></linearGradient><clipPath id="c0c0835233"><path d="M 79.886719 213 L 240 213 L 240 312 L 79.886719 312 Z M 79.886719 213 "/></clipPath><clipPath id="debae5f9b7"><path d="M 79.875 236.8125 L 79.875 265.210938 C 79.875 287.363281 113.734375 306 159.691406 311.453125 C 205.652344 306 239.511719 287.363281 239.511719 265.210938 L 239.511719 236.8125 C 239.511719 223.863281 229.007812 213.367188 216.050781 213.367188 L 103.335938 213.367188 C 90.378906 213.367188 79.875 223.863281 79.875 236.8125 Z M 79.875 236.8125 "/></clipPath><linearGradient x1="202.88499" gradientTransform="matrix(0.523714,0,0,0.523437,53.439407,53.443539)" y1="492.91392" x2="202.88499" gradientUnits="userSpaceOnUse" y2="305.522893" id="3202b8f835"><stop style="stop-color:#edbcf7;stop-opacity:1;" offset="0"/><stop style="stop-color:#edbdf7;stop-opacity:1;" offset="0.0625"/><stop style="stop-color:#edbdf7;stop-opacity:1;" offset="0.125"/><stop style="stop-color:#edbef7;stop-opacity:1;" offset="0.1875"/><stop style="stop-color:#edbff7;stop-opacity:1;" offset="0.25"/><stop style="stop-color:#edc0f7;stop-opacity:1;" offset="0.3125"/><stop style="stop-color:#edc0f7;stop-opacity:1;" offset="0.375"/><stop style="stop-color:#edc1f7;stop-opacity:1;" offset="0.4375"/><stop style="stop-color:#edc2f7;stop-opacity:1;" offset="0.5"/><stop style="stop-color:#edc3f7;stop-opacity:1;" offset="0.5625"/><stop style="stop-color:#edc4f7;stop-opacity:1;" offset="0.625"/><stop style="stop-color:#edc4f7;stop-opacity:1;" offset="0.6875"/><stop style="stop-color:#edc5f7;stop-opacity:1;" offset="0.75"/><stop style="stop-color:#edc6f7;stop-opacity:1;" offset="0.8125"/><stop style="stop-color:#edc7f6;stop-opacity:1;" offset="0.875"/><stop style="stop-color:#edc7f6;stop-opacity:1;" offset="0.9375"/><stop style="stop-color:#edc8f6;stop-opacity:1;" offset="1"/></linearGradient><clipPath id="8f867b2016"><path d="M 159 161 L 295.136719 161 L 295.136719 262 L 159 262 Z M 159 161 "/></clipPath><clipPath id="e3548010c9"><path d="M 216.050781 161.519531 L 271.6875 161.519531 C 284.640625 161.519531 295.144531 172.019531 295.144531 184.96875 L 295.144531 213.367188 C 295.144531 239.796875 246.957031 261.222656 187.511719 261.222656 C 177.890625 261.222656 168.566406 260.660156 159.691406 259.609375 Z M 216.050781 161.519531 "/></clipPath><linearGradient x1="332.203" gradientTransform="matrix(0.523714,0,0,0.523437,53.439407,53.443539)" y1="396.954286" x2="332.203" gradientUnits="userSpaceOnUse" y2="206.4771" id="d5601938ba"><stop style="stop-color:#de9afa;stop-opacity:1;" offset="0"/><stop style="stop-color:#de9afa;stop-opacity:1;" offset="0.015625"/><stop style="stop-color:#de9bfa;stop-opacity:1;" offset="0.03125"/><stop style="stop-color:#df9bfa;stop-opacity:1;" offset="0.046875"/><stop style="stop-color:#df9cfa;stop-opacity:1;" offset="0.0625"/><stop style="stop-color:#df9dfa;stop-opacity:1;" offset="0.078125"/><stop style="stop-color:#e09dfa;stop-opacity:1;" offset="0.09375"/><stop style="stop-color:#e09efb;stop-opacity:1;" offset="0.109375"/><stop style="stop-color:#e19efb;stop-opacity:1;" offset="0.125"/><stop style="stop-color:#e19ffb;stop-opacity:1;" offset="0.140625"/><stop style="stop-color:#e19ffb;stop-opacity:1;" offset="0.15625"/><stop style="stop-color:#e2a0fb;stop-opacity:1;" offset="0.171875"/><stop style="stop-color:#e2a1fb;stop-opacity:1;" offset="0.1875"/><stop style="stop-color:#e2a1fb;stop-opacity:1;" offset="0.203125"/><stop style="stop-color:#e3a2fb;stop-opacity:1;" offset="0.21875"/><stop style="stop-color:#e3a2fb;stop-opacity:1;" offset="0.234375"/><stop style="stop-color:#e4a3fb;stop-opacity:1;" offset="0.25"/><stop style="stop-color:#e4a3fb;stop-opacity:1;" offset="0.265625"/><stop style="stop-color:#e4a4fb;stop-opacity:1;" offset="0.28125"/><stop style="stop-color:#e5a4fb;stop-opacity:1;" offset="0.296875"/><stop style="stop-color:#e5a5fb;stop-opacity:1;" offset="0.3125"/><stop style="stop-color:#e6a6fc;stop-opacity:1;" offset="0.328125"/><stop style="stop-color:#e6a6fc;stop-opacity:1;" offset="0.34375"/><stop style="stop-color:#e6a7fc;stop-opacity:1;" offset="0.359375"/><stop style="stop-color:#e7a7fc;stop-opacity:1;" offset="0.375"/><stop style="stop-color:#e7a8fc;stop-opacity:1;" offset="0.390625"/><stop style="stop-color:#e8a8fc;stop-opacity:1;" offset="0.40625"/><stop style="stop-color:#e8a9fc;stop-opacity:1;" offset="0.421875"/><stop style="stop-color:#e8aafc;stop-opacity:1;" offset="0.4375"/><stop style="stop-color:#e9aafc;stop-opacity:1;" offset="0.453125"/><stop style="stop-color:#e9abfc;stop-opacity:1;" offset="0.46875"/><stop style="stop-color:#e9abfc;stop-opacity:1;" offset="0.484375"/><stop style="stop-color:#eaacfc;stop-opacity:1;" offset="0.5"/><stop style="stop-color:#eaacfc;stop-opacity:1;" offset="0.515625"/><stop style="stop-color:#ebadfd;stop-opacity:1;" offset="0.53125"/><stop style="stop-color:#ebaefd;stop-opacity:1;" offset="0.546875"/><stop style="stop-color:#ebaefd;stop-opacity:1;" offset="0.5625"/><stop style="stop-color:#ecaffd;stop-opacity:1;" offset="0.578125"/><stop style="stop-color:#ecaffd;stop-opacity:1;" offset="0.59375"/><stop style="stop-color:#edb0fd;stop-opacity:1;" offset="0.609375"/><stop style="stop-color:#edb0fd;stop-opacity:1;" offset="0.625"/><stop style="stop-color:#edb1fd;stop-opacity:1;" offset="0.640625"/><stop style="stop-color:#eeb1fd;stop-opacity:1;" offset="0.65625"/><stop style="stop-color:#eeb2fd;stop-opacity:1;" offset="0.671875"/><stop style="stop-color:#efb3fd;stop-opacity:1;" offset="0.6875"/><stop style="stop-color:#efb3fd;stop-opacity:1;" offset="0.703125"/><stop style="stop-color:#efb4fd;stop-opacity:1;" offset="0.71875"/><stop style="stop-color:#f0b4fe;stop-opacity:1;" offset="0.734375"/><stop style="stop-color:#f0b5fe;stop-opacity:1;" offset="0.75"/><stop style="stop-color:#f0b5fe;stop-opacity:1;" offset="0.765625"/><stop style="stop-color:#f1b6fe;stop-opacity:1;" offset="0.78125"/><stop style="stop-color:#f1b7fe;stop-opacity:1;" offset="0.796875"/><stop style="stop-color:#f2b7fe;stop-opacity:1;" offset="0.8125"/><stop style="stop-color:#f2b8fe;stop-opacity:1;" offset="0.828125"/><stop style="stop-color:#f2b8fe;stop-opacity:1;" offset="0.84375"/><stop style="stop-color:#f3b9fe;stop-opacity:1;" offset="0.859375"/><stop style="stop-color:#f3b9fe;stop-opacity:1;" offset="0.875"/><stop style="stop-color:#f4bafe;stop-opacity:1;" offset="0.890625"/><stop style="stop-color:#f4bafe;stop-opacity:1;" offset="0.90625"/><stop style="stop-color:#f4bbfe;stop-opacity:1;" offset="0.921875"/><stop style="stop-color:#f5bcff;stop-opacity:1;" offset="0.9375"/><stop style="stop-color:#f5bcff;stop-opacity:1;" offset="0.953125"/><stop style="stop-color:#f6bdff;stop-opacity:1;" offset="0.96875"/><stop style="stop-color:#f6bdff;stop-opacity:1;" offset="0.984375"/><stop style="stop-color:#f6beff;stop-opacity:1;" offset="1"/></linearGradient><clipPath id="76e43811f7"><path d="M 79.886719 161 L 240 161 L 240 260 L 79.886719 260 Z M 79.886719 161 "/></clipPath><clipPath id="f1fb4e152f"><path d="M 79.875 184.96875 L 79.875 213.367188 C 79.875 235.519531 113.734375 254.15625 159.691406 259.609375 C 205.652344 254.15625 239.511719 235.519531 239.511719 213.367188 L 239.511719 184.96875 C 239.511719 172.019531 229.007812 161.519531 216.050781 161.519531 L 103.335938 161.519531 C 90.378906 161.519531 79.875 172.019531 79.875 184.96875 Z M 79.875 184.96875 "/></clipPath><linearGradient x1="202.88499" gradientTransform="matrix(0.523714,0,0,0.523437,53.439407,53.443539)" y1="393.868106" x2="202.88499" gradientUnits="userSpaceOnUse" y2="206.47705" id="31f3a7136a"><stop style="stop-color:#d892f9;stop-opacity:1;" offset="0"/><stop style="stop-color:#d893f9;stop-opacity:1;" offset="0.03125"/><stop style="stop-color:#d993f9;stop-opacity:1;" offset="0.0625"/><stop style="stop-color:#d994f9;stop-opacity:1;" offset="0.09375"/><stop style="stop-color:#da94f9;stop-opacity:1;" offset="0.125"/><stop style="stop-color:#da95f9;stop-opacity:1;" offset="0.15625"/><stop style="stop-color:#da95f9;stop-opacity:1;" offset="0.1875"/><stop style="stop-color:#db96f9;stop-opacity:1;" offset="0.21875"/><stop style="stop-color:#db96f9;stop-opacity:1;" offset="0.25"/><stop style="stop-color:#db97fa;stop-opacity:1;" offset="0.28125"/><stop style="stop-color:#dc97fa;stop-opacity:1;" offset="0.3125"/><stop style="stop-color:#dc98fa;stop-opacity:1;" offset="0.34375"/><stop style="stop-color:#dc98fa;stop-opacity:1;" offset="0.375"/><stop style="stop-color:#dd99fa;stop-opacity:1;" offset="0.40625"/><stop style="stop-color:#dd99fa;stop-opacity:1;" offset="0.4375"/><stop style="stop-color:#dd9afa;stop-opacity:1;" offset="0.46875"/><stop style="stop-color:#de9afa;stop-opacity:1;" offset="0.5"/><stop style="stop-color:#de9bfa;stop-opacity:1;" offset="0.53125"/><stop style="stop-color:#df9bfa;stop-opacity:1;" offset="0.5625"/><stop style="stop-color:#df9cfa;stop-opacity:1;" offset="0.59375"/><stop style="stop-color:#df9cfa;stop-opacity:1;" offset="0.625"/><stop style="stop-color:#e09dfa;stop-opacity:1;" offset="0.65625"/><stop style="stop-color:#e09efa;stop-opacity:1;" offset="0.6875"/><stop style="stop-color:#e09efb;stop-opacity:1;" offset="0.71875"/><stop style="stop-color:#e19ffb;stop-opacity:1;" offset="0.75"/><stop style="stop-color:#e19ffb;stop-opacity:1;" offset="0.78125"/><stop style="stop-color:#e1a0fb;stop-opacity:1;" offset="0.8125"/><stop style="stop-color:#e2a0fb;stop-opacity:1;" offset="0.84375"/><stop style="stop-color:#e2a1fb;stop-opacity:1;" offset="0.875"/><stop style="stop-color:#e3a1fb;stop-opacity:1;" offset="0.90625"/><stop style="stop-color:#e3a2fb;stop-opacity:1;" offset="0.9375"/><stop style="stop-color:#e3a2fb;stop-opacity:1;" offset="0.96875"/><stop style="stop-color:#e4a3fb;stop-opacity:1;" offset="1"/></linearGradient><clipPath id="2208e2a8e1"><path d="M 79.886719 109 L 295.136719 109 L 295.136719 210 L 79.886719 210 Z M 79.886719 109 "/></clipPath><clipPath id="c640f94aef"><path d="M 79.875 161.519531 C 79.875 187.953125 128.066406 209.378906 187.511719 209.378906 C 246.957031 209.378906 295.144531 187.953125 295.144531 161.519531 L 295.144531 133.125 C 295.144531 120.175781 284.640625 109.675781 271.6875 109.675781 L 103.335938 109.675781 C 90.378906 109.675781 79.875 120.175781 79.875 133.125 Z M 79.875 161.519531 "/></clipPath><linearGradient x1="256" gradientTransform="matrix(0.523714,0,0,0.523437,53.439407,53.443539)" y1="297.908603" x2="256" gradientUnits="userSpaceOnUse" y2="107.431446" id="7f4c3013e1"><stop style="stop-color:#b45ff1;stop-opacity:1;" offset="0"/><stop style="stop-color:#b460f1;stop-opacity:1;" offset="0.015625"/><stop style="stop-color:#b561f1;stop-opacity:1;" offset="0.03125"/><stop style="stop-color:#b661f1;stop-opacity:1;" offset="0.046875"/><stop style="stop-color:#b662f1;stop-opacity:1;" offset="0.0625"/><stop style="stop-color:#b763f1;stop-opacity:1;" offset="0.078125"/><stop style="stop-color:#b764f1;stop-opacity:1;" offset="0.09375"/><stop style="stop-color:#b865f1;stop-opacity:1;" offset="0.109375"/><stop style="stop-color:#b966f1;stop-opacity:1;" offset="0.125"/><stop style="stop-color:#b966f1;stop-opacity:1;" offset="0.140625"/><stop style="stop-color:#ba67f1;stop-opacity:1;" offset="0.15625"/><stop style="stop-color:#bb68f1;stop-opacity:1;" offset="0.171875"/><stop style="stop-color:#bb69f1;stop-opacity:1;" offset="0.1875"/><stop style="stop-color:#bc6af1;stop-opacity:1;" offset="0.203125"/><stop style="stop-color:#bd6bf1;stop-opacity:1;" offset="0.21875"/><stop style="stop-color:#bd6bf1;stop-opacity:1;" offset="0.234375"/><stop style="stop-color:#be6cf1;stop-opacity:1;" offset="0.25"/><stop style="stop-color:#be6df1;stop-opacity:1;" offset="0.265625"/><stop style="stop-color:#bf6ef1;stop-opacity:1;" offset="0.28125"/><stop style="stop-color:#c06ff1;stop-opacity:1;" offset="0.296875"/><stop style="stop-color:#c070f1;stop-opacity:1;" offset="0.3125"/><stop style="stop-color:#c170f1;stop-opacity:1;" offset="0.328125"/><stop style="stop-color:#c271f1;stop-opacity:1;" offset="0.34375"/><stop style="stop-color:#c272f1;stop-opacity:1;" offset="0.359375"/><stop style="stop-color:#c373f1;stop-opacity:1;" offset="0.375"/><stop style="stop-color:#c474f1;stop-opacity:1;" offset="0.390625"/><stop style="stop-color:#c475f1;stop-opacity:1;" offset="0.40625"/><stop style="stop-color:#c575f1;stop-opacity:1;" offset="0.421875"/><stop style="stop-color:#c576f1;stop-opacity:1;" offset="0.4375"/><stop style="stop-color:#c677f1;stop-opacity:1;" offset="0.453125"/><stop style="stop-color:#c778f1;stop-opacity:1;" offset="0.46875"/><stop style="stop-color:#c779f1;stop-opacity:1;" offset="0.484375"/><stop style="stop-color:#c87af1;stop-opacity:1;" offset="0.5"/><stop style="stop-color:#c97af1;stop-opacity:1;" offset="0.515625"/><stop style="stop-color:#c97bf1;stop-opacity:1;" offset="0.53125"/><stop style="stop-color:#ca7cf1;stop-opacity:1;" offset="0.546875"/><stop style="stop-color:#cb7df1;stop-opacity:1;" offset="0.5625"/><stop style="stop-color:#cb7ef1;stop-opacity:1;" offset="0.578125"/><stop style="stop-color:#cc7ff1;stop-opacity:1;" offset="0.59375"/><stop style="stop-color:#cc7ff1;stop-opacity:1;" offset="0.609375"/><stop style="stop-color:#cd80f1;stop-opacity:1;" offset="0.625"/><stop style="stop-color:#ce81f1;stop-opacity:1;" offset="0.640625"/><stop style="stop-color:#ce82f1;stop-opacity:1;" offset="0.65625"/><stop style="stop-color:#cf83f1;stop-opacity:1;" offset="0.671875"/><stop style="stop-color:#d084f1;stop-opacity:1;" offset="0.6875"/><stop style="stop-color:#d084f1;stop-opacity:1;" offset="0.703125"/><stop style="stop-color:#d185f1;stop-opacity:1;" offset="0.71875"/><stop style="stop-color:#d186f1;stop-opacity:1;" offset="0.734375"/><stop style="stop-color:#d287f1;stop-opacity:1;" offset="0.75"/><stop style="stop-color:#d388f1;stop-opacity:1;" offset="0.765625"/><stop style="stop-color:#d389f1;stop-opacity:1;" offset="0.78125"/><stop style="stop-color:#d489f1;stop-opacity:1;" offset="0.796875"/><stop style="stop-color:#d58af0;stop-opacity:1;" offset="0.8125"/><stop style="stop-color:#d58bf0;stop-opacity:1;" offset="0.828125"/><stop style="stop-color:#d68cf0;stop-opacity:1;" offset="0.84375"/><stop style="stop-color:#d78df0;stop-opacity:1;" offset="0.859375"/><stop style="stop-color:#d78ef0;stop-opacity:1;" offset="0.875"/><stop style="stop-color:#d88ef0;stop-opacity:1;" offset="0.890625"/><stop style="stop-color:#d88ff0;stop-opacity:1;" offset="0.90625"/><stop style="stop-color:#d990f0;stop-opacity:1;" offset="0.921875"/><stop style="stop-color:#da91f0;stop-opacity:1;" offset="0.9375"/><stop style="stop-color:#da92f0;stop-opacity:1;" offset="0.953125"/><stop style="stop-color:#db93f0;stop-opacity:1;" offset="0.96875"/><stop style="stop-color:#dc93f0;stop-opacity:1;" offset="0.984375"/><stop style="stop-color:#dc94f0;stop-opacity:1;" offset="1"/></linearGradient><clipPath id="9e26758dbd"><path d="M 159 61.820312 L 295.136719 61.820312 L 295.136719 158 L 159 158 Z M 159 61.820312 "/></clipPath><clipPath id="fd3a4b5cbb"><path d="M 159.691406 63.433594 C 168.566406 62.382812 177.890625 61.820312 187.511719 61.820312 C 246.957031 61.820312 295.144531 83.246094 295.144531 109.675781 C 295.144531 136.109375 246.957031 157.535156 187.511719 157.535156 C 177.890625 157.535156 168.566406 156.972656 159.691406 155.921875 Z M 159.691406 63.433594 "/></clipPath><linearGradient x1="332.203" gradientTransform="matrix(0.523714,0,0,0.523437,53.439407,53.443539)" y1="198.86288" x2="332.203" gradientUnits="userSpaceOnUse" y2="15.999993" id="29dbce8bda"><stop style="stop-color:#7b2eec;stop-opacity:1;" offset="0"/><stop style="stop-color:#7b2fec;stop-opacity:1;" offset="0.03125"/><stop style="stop-color:#7c2fec;stop-opacity:1;" offset="0.0625"/><stop style="stop-color:#7c30ec;stop-opacity:1;" offset="0.09375"/><stop style="stop-color:#7d31ec;stop-opacity:1;" offset="0.125"/><stop style="stop-color:#7d32eb;stop-opacity:1;" offset="0.15625"/><stop style="stop-color:#7e32eb;stop-opacity:1;" offset="0.1875"/><stop style="stop-color:#7e33eb;stop-opacity:1;" offset="0.21875"/><stop style="stop-color:#7f34eb;stop-opacity:1;" offset="0.25"/><stop style="stop-color:#7f34eb;stop-opacity:1;" offset="0.28125"/><stop style="stop-color:#8035ea;stop-opacity:1;" offset="0.3125"/><stop style="stop-color:#8036ea;stop-opacity:1;" offset="0.34375"/><stop style="stop-color:#8137ea;stop-opacity:1;" offset="0.375"/><stop style="stop-color:#8137ea;stop-opacity:1;" offset="0.40625"/><stop style="stop-color:#8238ea;stop-opacity:1;" offset="0.4375"/><stop style="stop-color:#8239ea;stop-opacity:1;" offset="0.46875"/><stop style="stop-color:#833ae9;stop-opacity:1;" offset="0.5"/><stop style="stop-color:#833ae9;stop-opacity:1;" offset="0.53125"/><stop style="stop-color:#843be9;stop-opacity:1;" offset="0.5625"/><stop style="stop-color:#843ce9;stop-opacity:1;" offset="0.59375"/><stop style="stop-color:#853ce9;stop-opacity:1;" offset="0.625"/><stop style="stop-color:#853de8;stop-opacity:1;" offset="0.65625"/><stop style="stop-color:#863ee8;stop-opacity:1;" offset="0.6875"/><stop style="stop-color:#863fe8;stop-opacity:1;" offset="0.71875"/><stop style="stop-color:#873fe8;stop-opacity:1;" offset="0.75"/><stop style="stop-color:#8740e8;stop-opacity:1;" offset="0.78125"/><stop style="stop-color:#8841e8;stop-opacity:1;" offset="0.8125"/><stop style="stop-color:#8842e7;stop-opacity:1;" offset="0.84375"/><stop style="stop-color:#8942e7;stop-opacity:1;" offset="0.875"/><stop style="stop-color:#8943e7;stop-opacity:1;" offset="0.90625"/><stop style="stop-color:#8a44e7;stop-opacity:1;" offset="0.9375"/><stop style="stop-color:#8a44e7;stop-opacity:1;" offset="0.96875"/><stop style="stop-color:#8b45e6;stop-opacity:1;" offset="1"/></linearGradient><clipPath id="742dc7cabe"><path d="M 79.886719 63 L 240 63 L 240 156 L 79.886719 156 Z M 79.886719 63 "/></clipPath><clipPath id="e4714430da"><path d="M 159.691406 63.433594 C 113.734375 68.886719 79.875 87.523438 79.875 109.675781 C 79.875 131.832031 113.734375 150.46875 159.691406 155.921875 C 205.652344 150.46875 239.511719 131.832031 239.511719 109.675781 C 239.511719 87.523438 205.652344 68.886719 159.691406 63.433594 Z M 159.691406 63.433594 "/></clipPath><linearGradient x1="202.88499" gradientTransform="matrix(0.523714,0,0,0.523437,53.439407,53.443539)" y1="195.776759" x2="202.88499" gradientUnits="userSpaceOnUse" y2="19.086083" id="641a897d76"><stop style="stop-color:#7424ef;stop-opacity:1;" offset="0"/><stop style="stop-color:#7424ef;stop-opacity:1;" offset="0.03125"/><stop style="stop-color:#7424ef;stop-opacity:1;" offset="0.0625"/><stop style="stop-color:#7525ef;stop-opacity:1;" offset="0.09375"/><stop style="stop-color:#7525ee;stop-opacity:1;" offset="0.125"/><stop style="stop-color:#7526ee;stop-opacity:1;" offset="0.15625"/><stop style="stop-color:#7626ee;stop-opacity:1;" offset="0.1875"/><stop style="stop-color:#7627ee;stop-opacity:1;" offset="0.21875"/><stop style="stop-color:#7627ee;stop-opacity:1;" offset="0.25"/><stop style="stop-color:#7728ee;stop-opacity:1;" offset="0.28125"/><stop style="stop-color:#7728ee;stop-opacity:1;" offset="0.3125"/><stop style="stop-color:#7729ee;stop-opacity:1;" offset="0.34375"/><stop style="stop-color:#7829ed;stop-opacity:1;" offset="0.375"/><stop style="stop-color:#782aed;stop-opacity:1;" offset="0.40625"/><stop style="stop-color:#782aed;stop-opacity:1;" offset="0.4375"/><stop style="stop-color:#792bed;stop-opacity:1;" offset="0.46875"/><stop style="stop-color:#792bed;stop-opacity:1;" offset="0.5"/><stop style="stop-color:#792ced;stop-opacity:1;" offset="0.53125"/><stop style="stop-color:#7a2ced;stop-opacity:1;" offset="0.5625"/><stop style="stop-color:#7a2dec;stop-opacity:1;" offset="0.59375"/><stop style="stop-color:#7b2dec;stop-opacity:1;" offset="0.625"/><stop style="stop-color:#7b2eec;stop-opacity:1;" offset="0.65625"/><stop style="stop-color:#7b2eec;stop-opacity:1;" offset="0.6875"/><stop style="stop-color:#7c2fec;stop-opacity:1;" offset="0.71875"/><stop style="stop-color:#7c2fec;stop-opacity:1;" offset="0.75"/><stop style="stop-color:#7c30ec;stop-opacity:1;" offset="0.78125"/><stop style="stop-color:#7d30ec;stop-opacity:1;" offset="0.8125"/><stop style="stop-color:#7d31eb;stop-opacity:1;" offset="0.84375"/><stop style="stop-color:#7d31eb;stop-opacity:1;" offset="0.875"/><stop style="stop-color:#7e32eb;stop-opacity:1;" offset="0.90625"/><stop style="stop-color:#7e32eb;stop-opacity:1;" offset="0.9375"/><stop style="stop-color:#7e33eb;stop-opacity:1;" offset="0.96875"/><stop style="stop-color:#7f33eb;stop-opacity:1;" offset="1"/></linearGradient><clipPath id="0e0128ff58"><path d="M 167 171 L 188 171 L 188 191 L 167 191 Z M 167 171 "/></clipPath><clipPath id="5486d4368a"><path d="M 187.511719 181.082031 C 187.511719 181.734375 187.445312 182.378906 187.320312 183.015625 C 187.191406 183.65625 187.003906 184.273438 186.753906 184.875 C 186.507812 185.476562 186.199219 186.046875 185.839844 186.589844 C 185.476562 187.128906 185.066406 187.628906 184.605469 188.089844 C 184.144531 188.550781 183.644531 188.960938 183.105469 189.324219 C 182.5625 189.683594 181.992188 189.988281 181.390625 190.238281 C 180.789062 190.488281 180.167969 190.675781 179.53125 190.800781 C 178.890625 190.929688 178.246094 190.992188 177.59375 190.992188 C 176.945312 190.992188 176.300781 190.929688 175.660156 190.800781 C 175.023438 190.675781 174.402344 190.488281 173.800781 190.238281 C 173.199219 189.988281 172.628906 189.683594 172.085938 189.324219 C 171.546875 188.960938 171.042969 188.550781 170.585938 188.089844 C 170.125 187.628906 169.714844 187.128906 169.351562 186.589844 C 168.988281 186.046875 168.683594 185.476562 168.433594 184.875 C 168.1875 184.273438 167.996094 183.65625 167.871094 183.015625 C 167.742188 182.378906 167.679688 181.734375 167.679688 181.082031 C 167.679688 180.433594 167.742188 179.789062 167.871094 179.148438 C 167.996094 178.511719 168.1875 177.890625 168.433594 177.289062 C 168.683594 176.691406 168.988281 176.117188 169.351562 175.578125 C 169.714844 175.035156 170.125 174.535156 170.585938 174.074219 C 171.042969 173.617188 171.546875 173.207031 172.085938 172.84375 C 172.628906 172.480469 173.199219 172.175781 173.800781 171.929688 C 174.402344 171.679688 175.023438 171.492188 175.660156 171.363281 C 176.300781 171.238281 176.945312 171.171875 177.59375 171.171875 C 178.246094 171.171875 178.890625 171.238281 179.53125 171.363281 C 180.167969 171.492188 180.789062 171.679688 181.390625 171.929688 C 181.992188 172.175781 182.5625 172.480469 183.105469 172.84375 C 183.644531 173.207031 184.144531 173.617188 184.605469 174.074219 C 185.066406 174.535156 185.476562 175.035156 185.839844 175.578125 C 186.199219 176.117188 186.507812 176.691406 186.753906 177.289062 C 187.003906 177.890625 187.191406 178.511719 187.320312 179.148438 C 187.445312 179.789062 187.511719 180.433594 187.511719 181.082031 Z M 187.511719 181.082031 "/></clipPath><linearGradient x1="237.06799" gradientTransform="matrix(0.523714,0,0,0.523437,53.439407,53.443539)" y1="262.781012" x2="237.06799" gradientUnits="userSpaceOnUse" y2="224.916991" id="cc7e87de5a"><stop style="stop-color:#ede9ee;stop-opacity:1;" offset="0"/><stop style="stop-color:#edeaee;stop-opacity:1;" offset="0.03125"/><stop style="stop-color:#eeeaef;stop-opacity:1;" offset="0.0625"/><stop style="stop-color:#eeebef;stop-opacity:1;" offset="0.09375"/><stop style="stop-color:#efecf0;stop-opacity:1;" offset="0.125"/><stop style="stop-color:#efedf0;stop-opacity:1;" offset="0.15625"/><stop style="stop-color:#f0eef1;stop-opacity:1;" offset="0.1875"/><stop style="stop-color:#f0eef1;stop-opacity:1;" offset="0.21875"/><stop style="stop-color:#f1eff2;stop-opacity:1;" offset="0.25"/><stop style="stop-color:#f1f0f2;stop-opacity:1;" offset="0.28125"/><stop style="stop-color:#f2f1f3;stop-opacity:1;" offset="0.3125"/><stop style="stop-color:#f2f1f3;stop-opacity:1;" offset="0.34375"/><stop style="stop-color:#f3f2f3;stop-opacity:1;" offset="0.375"/><stop style="stop-color:#f4f3f4;stop-opacity:1;" offset="0.40625"/><stop style="stop-color:#f4f4f4;stop-opacity:1;" offset="0.4375"/><stop style="stop-color:#f5f5f5;stop-opacity:1;" offset="0.46875"/><stop style="stop-color:#f5f5f5;stop-opacity:1;" offset="0.5"/><stop style="stop-color:#f6f6f6;stop-opacity:1;" offset="0.53125"/><stop style="stop-color:#f6f7f6;stop-opacity:1;" offset="0.5625"/><stop style="stop-color:#f7f8f7;stop-opacity:1;" offset="0.59375"/><stop style="stop-color:#f7f8f7;stop-opacity:1;" offset="0.625"/><stop style="stop-color:#f8f9f8;stop-opacity:1;" offset="0.65625"/><stop style="stop-color:#f8faf8;stop-opacity:1;" offset="0.6875"/><stop style="stop-color:#f9fbf8;stop-opacity:1;" offset="0.71875"/><stop style="stop-color:#f9fbf9;stop-opacity:1;" offset="0.75"/><stop style="stop-color:#fafcf9;stop-opacity:1;" offset="0.78125"/><stop style="stop-color:#fbfdfa;stop-opacity:1;" offset="0.8125"/><stop style="stop-color:#fbfefa;stop-opacity:1;" offset="0.84375"/><stop style="stop-color:#fcfffb;stop-opacity:1;" offset="0.875"/><stop style="stop-color:#fcfffb;stop-opacity:1;" offset="1"/></linearGradient><clipPath id="37b368bcbc"><path d="M 131 166 L 152 166 L 152 186 L 131 186 Z M 131 166 "/></clipPath><clipPath id="9b5af95b74"><path d="M 151.707031 175.980469 C 151.707031 176.628906 151.640625 177.273438 151.515625 177.910156 C 151.386719 178.550781 151.199219 179.167969 150.953125 179.769531 C 150.703125 180.371094 150.398438 180.941406 150.035156 181.484375 C 149.671875 182.023438 149.261719 182.527344 148.800781 182.984375 C 148.339844 183.445312 147.839844 183.855469 147.300781 184.21875 C 146.757812 184.578125 146.1875 184.886719 145.585938 185.132812 C 144.984375 185.382812 144.363281 185.570312 143.726562 185.699219 C 143.085938 185.824219 142.441406 185.886719 141.792969 185.886719 C 141.140625 185.886719 140.496094 185.824219 139.855469 185.699219 C 139.21875 185.570312 138.597656 185.382812 137.996094 185.132812 C 137.394531 184.886719 136.824219 184.578125 136.28125 184.21875 C 135.742188 183.855469 135.242188 183.445312 134.78125 182.984375 C 134.320312 182.527344 133.910156 182.023438 133.546875 181.484375 C 133.183594 180.941406 132.878906 180.371094 132.628906 179.769531 C 132.382812 179.167969 132.195312 178.550781 132.066406 177.910156 C 131.941406 177.273438 131.875 176.628906 131.875 175.980469 C 131.875 175.328125 131.941406 174.683594 132.066406 174.046875 C 132.195312 173.40625 132.382812 172.789062 132.628906 172.1875 C 132.878906 171.585938 133.183594 171.015625 133.546875 170.472656 C 133.910156 169.933594 134.320312 169.429688 134.78125 168.972656 C 135.242188 168.511719 135.742188 168.101562 136.28125 167.738281 C 136.824219 167.378906 137.394531 167.074219 137.996094 166.824219 C 138.597656 166.574219 139.21875 166.386719 139.855469 166.257812 C 140.496094 166.132812 141.140625 166.070312 141.792969 166.070312 C 142.441406 166.070312 143.085938 166.132812 143.726562 166.257812 C 144.363281 166.386719 144.984375 166.574219 145.585938 166.824219 C 146.1875 167.074219 146.757812 167.378906 147.300781 167.738281 C 147.839844 168.101562 148.339844 168.511719 148.800781 168.972656 C 149.261719 169.429688 149.671875 169.933594 150.035156 170.472656 C 150.398438 171.015625 150.703125 171.585938 150.953125 172.1875 C 151.199219 172.789062 151.386719 173.40625 151.515625 174.046875 C 151.640625 174.683594 151.707031 175.328125 151.707031 175.980469 Z M 151.707031 175.980469 "/></clipPath><linearGradient x1="168.702" gradientTransform="matrix(0.523714,0,0,0.523437,53.439407,53.443539)" y1="253.029011" x2="168.702" gradientUnits="userSpaceOnUse" y2="215.16501" id="87031f48ea"><stop style="stop-color:#ede9ee;stop-opacity:1;" offset="0"/><stop style="stop-color:#edeaee;stop-opacity:1;" offset="0.03125"/><stop style="stop-color:#eeeaef;stop-opacity:1;" offset="0.0625"/><stop style="stop-color:#eeebef;stop-opacity:1;" offset="0.09375"/><stop style="stop-color:#efecf0;stop-opacity:1;" offset="0.125"/><stop style="stop-color:#efedf0;stop-opacity:1;" offset="0.15625"/><stop style="stop-color:#f0eef1;stop-opacity:1;" offset="0.1875"/><stop style="stop-color:#f0eef1;stop-opacity:1;" offset="0.21875"/><stop style="stop-color:#f1eff2;stop-opacity:1;" offset="0.25"/><stop style="stop-color:#f1f0f2;stop-opacity:1;" offset="0.28125"/><stop style="stop-color:#f2f1f3;stop-opacity:1;" offset="0.3125"/><stop style="stop-color:#f2f1f3;stop-opacity:1;" offset="0.34375"/><stop style="stop-color:#f3f2f3;stop-opacity:1;" offset="0.375"/><stop style="stop-color:#f4f3f4;stop-opacity:1;" offset="0.40625"/><stop style="stop-color:#f4f4f4;stop-opacity:1;" offset="0.4375"/><stop style="stop-color:#f5f5f5;stop-opacity:1;" offset="0.46875"/><stop style="stop-color:#f5f5f5;stop-opacity:1;" offset="0.5"/><stop style="stop-color:#f6f6f6;stop-opacity:1;" offset="0.53125"/><stop style="stop-color:#f6f7f6;stop-opacity:1;" offset="0.5625"/><stop style="stop-color:#f7f8f7;stop-opacity:1;" offset="0.59375"/><stop style="stop-color:#f7f9f7;stop-opacity:1;" offset="0.625"/><stop style="stop-color:#f8f9f8;stop-opacity:1;" offset="0.65625"/><stop style="stop-color:#f9faf8;stop-opacity:1;" offset="0.6875"/><stop style="stop-color:#f9fbf9;stop-opacity:1;" offset="0.71875"/><stop style="stop-color:#fafcf9;stop-opacity:1;" offset="0.75"/><stop style="stop-color:#fafcf9;stop-opacity:1;" offset="0.78125"/><stop style="stop-color:#fbfdfa;stop-opacity:1;" offset="0.8125"/><stop style="stop-color:#fbfefa;stop-opacity:1;" offset="0.84375"/><stop style="stop-color:#fcfffb;stop-opacity:1;" offset="0.875"/><stop style="stop-color:#fcfffb;stop-opacity:1;" offset="1"/></linearGradient><clipPath id="099aa9d58d"><path d="M 98 156 L 118 156 L 118 176 L 98 176 Z M 98 156 "/></clipPath><clipPath id="4c74bb44c6"><path d="M 117.949219 166.070312 C 117.949219 166.71875 117.886719 167.363281 117.761719 168.003906 C 117.632812 168.640625 117.445312 169.261719 117.195312 169.859375 C 116.945312 170.460938 116.640625 171.035156 116.28125 171.574219 C 115.917969 172.117188 115.507812 172.617188 115.046875 173.078125 C 114.585938 173.535156 114.085938 173.945312 113.542969 174.308594 C 113.003906 174.671875 112.433594 174.976562 111.832031 175.222656 C 111.230469 175.472656 110.609375 175.660156 109.96875 175.789062 C 109.332031 175.914062 108.6875 175.980469 108.035156 175.980469 C 107.386719 175.980469 106.742188 175.914062 106.101562 175.789062 C 105.464844 175.660156 104.84375 175.472656 104.242188 175.222656 C 103.640625 174.976562 103.070312 174.671875 102.527344 174.308594 C 101.984375 173.945312 101.484375 173.535156 101.023438 173.078125 C 100.566406 172.617188 100.152344 172.117188 99.792969 171.574219 C 99.429688 171.035156 99.125 170.460938 98.875 169.859375 C 98.625 169.261719 98.4375 168.640625 98.3125 168.003906 C 98.183594 167.363281 98.121094 166.71875 98.121094 166.070312 C 98.121094 165.417969 98.183594 164.773438 98.3125 164.136719 C 98.4375 163.496094 98.625 162.878906 98.875 162.277344 C 99.125 161.675781 99.429688 161.105469 99.792969 160.5625 C 100.152344 160.023438 100.566406 159.523438 101.023438 159.0625 C 101.484375 158.601562 101.984375 158.191406 102.527344 157.828125 C 103.070312 157.46875 103.640625 157.164062 104.242188 156.914062 C 104.84375 156.664062 105.464844 156.476562 106.101562 156.351562 C 106.742188 156.222656 107.386719 156.160156 108.035156 156.160156 C 108.6875 156.160156 109.332031 156.222656 109.96875 156.351562 C 110.609375 156.476562 111.230469 156.664062 111.832031 156.914062 C 112.433594 157.164062 113.003906 157.46875 113.542969 157.828125 C 114.085938 158.191406 114.585938 158.601562 115.046875 159.0625 C 115.507812 159.523438 115.917969 160.023438 116.28125 160.5625 C 116.640625 161.105469 116.945312 161.675781 117.195312 162.277344 C 117.445312 162.878906 117.632812 163.496094 117.761719 164.136719 C 117.886719 164.773438 117.949219 165.417969 117.949219 166.070312 Z M 117.949219 166.070312 "/></clipPath><linearGradient x1="104.249001" gradientTransform="matrix(0.523714,0,0,0.523437,53.439407,53.443539)" y1="234.097001" x2="104.249001" gradientUnits="userSpaceOnUse" y2="196.233" id="2a25e66c4c"><stop style="stop-color:#edeaef;stop-opacity:1;" offset="0"/><stop style="stop-color:#eeeaef;stop-opacity:1;" offset="0.03125"/><stop style="stop-color:#eeebef;stop-opacity:1;" offset="0.0625"/><stop style="stop-color:#eeecf0;stop-opacity:1;" offset="0.09375"/><stop style="stop-color:#efecf0;stop-opacity:1;" offset="0.125"/><stop style="stop-color:#efedf0;stop-opacity:1;" offset="0.15625"/><stop style="stop-color:#f0eef1;stop-opacity:1;" offset="0.1875"/><stop style="stop-color:#f0eef1;stop-opacity:1;" offset="0.21875"/><stop style="stop-color:#f1eff2;stop-opacity:1;" offset="0.25"/><stop style="stop-color:#f1f0f2;stop-opacity:1;" offset="0.28125"/><stop style="stop-color:#f2f0f2;stop-opacity:1;" offset="0.3125"/><stop style="stop-color:#f2f1f3;stop-opacity:1;" offset="0.34375"/><stop style="stop-color:#f3f2f3;stop-opacity:1;" offset="0.375"/><stop style="stop-color:#f3f2f3;stop-opacity:1;" offset="0.40625"/><stop style="stop-color:#f3f3f4;stop-opacity:1;" offset="0.4375"/><stop style="stop-color:#f4f4f4;stop-opacity:1;" offset="0.46875"/><stop style="stop-color:#f4f4f5;stop-opacity:1;" offset="0.5"/><stop style="stop-color:#f5f5f5;stop-opacity:1;" offset="0.53125"/><stop style="stop-color:#f5f5f5;stop-opacity:1;" offset="0.5625"/><stop style="stop-color:#f6f6f6;stop-opacity:1;" offset="0.59375"/><stop style="stop-color:#f6f7f6;stop-opacity:1;" offset="0.625"/><stop style="stop-color:#f7f7f7;stop-opacity:1;" offset="0.65625"/><stop style="stop-color:#f7f8f7;stop-opacity:1;" offset="0.6875"/><stop style="stop-color:#f8f9f7;stop-opacity:1;" offset="0.71875"/><stop style="stop-color:#f8f9f8;stop-opacity:1;" offset="0.75"/><stop style="stop-color:#f8faf8;stop-opacity:1;" offset="0.78125"/><stop style="stop-color:#f9fbf8;stop-opacity:1;" offset="0.8125"/><stop style="stop-color:#f9fbf9;stop-opacity:1;" offset="0.84375"/><stop style="stop-color:#fafcf9;stop-opacity:1;" offset="0.875"/><stop style="stop-color:#fafdfa;stop-opacity:1;" offset="0.90625"/><stop style="stop-color:#fbfdfa;stop-opacity:1;" offset="0.9375"/><stop style="stop-color:#fbfefa;stop-opacity:1;" offset="0.96875"/><stop style="stop-color:#fcfffb;stop-opacity:1;" offset="1"/></linearGradient></defs><g id="49abfc6695"><g clip-rule="nonzero" clip-path="url(#e0acb0a0ea)"><g clip-rule="nonzero" clip-path="url(#51cdc4a4d1)"><path style=" stroke:none;fill-rule:nonzero;fill:url(#857c1f4376);" d="M 159.691406 213.367188 L 159.691406 313.070312 L 295.136719 313.070312 L 295.136719 213.367188 Z M 159.691406 213.367188 "/></g></g><g clip-rule="nonzero" clip-path="url(#c0c0835233)"><g clip-rule="nonzero" clip-path="url(#debae5f9b7)"><path style=" stroke:none;fill-rule:nonzero;fill:url(#3202b8f835);" d="M 79.886719 213.367188 L 79.886719 311.453125 L 239.511719 311.453125 L 239.511719 213.367188 Z M 79.886719 213.367188 "/></g></g><g clip-rule="nonzero" clip-path="url(#8f867b2016)"><g clip-rule="nonzero" clip-path="url(#e3548010c9)"><path style=" stroke:none;fill-rule:nonzero;fill:url(#d5601938ba);" d="M 159.691406 161.519531 L 159.691406 261.222656 L 295.136719 261.222656 L 295.136719 161.519531 Z M 159.691406 161.519531 "/></g></g><g clip-rule="nonzero" clip-path="url(#76e43811f7)"><g clip-rule="nonzero" clip-path="url(#f1fb4e152f)"><path style=" stroke:none;fill-rule:nonzero;fill:url(#31f3a7136a);" d="M 79.886719 161.519531 L 79.886719 259.609375 L 239.511719 259.609375 L 239.511719 161.519531 Z M 79.886719 161.519531 "/></g></g><g clip-rule="nonzero" clip-path="url(#2208e2a8e1)"><g clip-rule="nonzero" clip-path="url(#c640f94aef)"><path style=" stroke:none;fill-rule:nonzero;fill:url(#7f4c3013e1);" d="M 79.886719 109.675781 L 79.886719 209.378906 L 295.136719 209.378906 L 295.136719 109.675781 Z M 79.886719 109.675781 "/></g></g><g clip-rule="nonzero" clip-path="url(#9e26758dbd)"><g clip-rule="nonzero" clip-path="url(#fd3a4b5cbb)"><path style=" stroke:none;fill-rule:nonzero;fill:url(#29dbce8bda);" d="M 159.691406 61.820312 L 159.691406 157.535156 L 295.136719 157.535156 L 295.136719 61.820312 Z M 159.691406 61.820312 "/></g></g><g clip-rule="nonzero" clip-path="url(#742dc7cabe)"><g clip-rule="nonzero" clip-path="url(#e4714430da)"><path style=" stroke:none;fill-rule:nonzero;fill:url(#641a897d76);" d="M 79.886719 63.433594 L 79.886719 155.921875 L 239.511719 155.921875 L 239.511719 63.433594 Z M 79.886719 63.433594 "/></g></g><g clip-rule="nonzero" clip-path="url(#0e0128ff58)"><g clip-rule="nonzero" clip-path="url(#5486d4368a)"><path style=" stroke:none;fill-rule:nonzero;fill:url(#cc7e87de5a);" d="M 167.679688 171.171875 L 167.679688 190.992188 L 187.511719 190.992188 L 187.511719 171.171875 Z M 167.679688 171.171875 "/></g></g><g clip-rule="nonzero" clip-path="url(#37b368bcbc)"><g clip-rule="nonzero" clip-path="url(#9b5af95b74)"><path style=" stroke:none;fill-rule:nonzero;fill:url(#87031f48ea);" d="M 131.875 166.070312 L 131.875 185.886719 L 151.707031 185.886719 L 151.707031 166.070312 Z M 131.875 166.070312 "/></g></g><g clip-rule="nonzero" clip-path="url(#099aa9d58d)"><g clip-rule="nonzero" clip-path="url(#4c74bb44c6)"><path style=" stroke:none;fill-rule:nonzero;fill:url(#2a25e66c4c);" d="M 98.121094 156.160156 L 98.121094 175.980469 L 117.949219 175.980469 L 117.949219 156.160156 Z M 98.121094 156.160156 "/></g></g></g></svg>