<svg xmlns="http://www.w3.org/2000/svg" xmlns:xlink="http://www.w3.org/1999/xlink" width="500" zoomAndPan="magnify" viewBox="0 0 375 374.999991" height="500" preserveAspectRatio="xMidYMid meet" version="1.2"><defs><clipPath id="acd0e620b7"><path d="M 65.511719 51 L 240 51 L 240 170 L 65.511719 170 Z M 65.511719 51 "/></clipPath><clipPath id="575becb4f4"><path d="M 65.511719 173 L 71 173 L 71 179 L 65.511719 179 Z M 65.511719 173 "/></clipPath></defs><g id="64f7251963"><path style=" stroke:none;fill-rule:nonzero;fill:#f0c020;fill-opacity:1;" d="M 301.085938 142.582031 C 303.429688 152.53125 304.589844 162.621094 304.566406 172.84375 C 304.546875 183.066406 303.34375 193.148438 300.960938 203.089844 C 300.632812 204.492188 300.1875 205.859375 299.628906 207.1875 C 299.070312 208.515625 298.40625 209.789062 297.636719 211.003906 C 296.863281 212.222656 295.996094 213.367188 295.03125 214.4375 C 294.066406 215.507812 293.019531 216.488281 291.890625 217.382812 C 290.761719 218.277344 289.566406 219.074219 288.304688 219.765625 C 287.042969 220.460938 285.734375 221.042969 284.371094 221.519531 C 283.011719 221.992188 281.621094 222.347656 280.203125 222.585938 C 278.78125 222.828125 277.351562 222.945312 275.914062 222.945312 L 236.632812 222.945312 L 236.632812 262.265625 C 236.632812 273.4375 229.378906 284.378906 216.242188 287.46875 C 206.402344 289.785156 196.433594 290.945312 186.328125 290.945312 C 176.222656 290.949219 166.25 289.789062 156.410156 287.476562 C 143.300781 284.390625 135.988281 273.5 135.988281 262.265625 L 135.988281 198.332031 C 135.988281 197.488281 136.027344 196.644531 136.113281 195.804688 C 136.195312 194.964844 136.316406 194.132812 136.480469 193.304688 C 136.648438 192.476562 136.851562 191.660156 137.097656 190.855469 C 137.339844 190.046875 137.625 189.253906 137.945312 188.472656 C 138.269531 187.695312 138.628906 186.933594 139.027344 186.1875 C 139.421875 185.445312 139.855469 184.722656 140.324219 184.019531 C 140.792969 183.320312 141.292969 182.640625 141.828125 181.988281 C 142.363281 181.339844 142.929688 180.714844 143.523438 180.117188 C 144.121094 179.519531 144.746094 178.953125 145.394531 178.417969 C 146.046875 177.882812 146.722656 177.382812 147.425781 176.914062 C 148.125 176.445312 148.847656 176.011719 149.589844 175.613281 C 150.335938 175.21875 151.09375 174.855469 151.875 174.535156 C 152.652344 174.210938 153.445312 173.925781 154.25 173.683594 C 155.058594 173.4375 155.875 173.234375 156.703125 173.066406 C 157.527344 172.902344 158.359375 172.78125 159.199219 172.695312 C 160.039062 172.613281 160.878906 172.574219 161.722656 172.574219 L 210.898438 172.574219 C 211.742188 172.574219 212.582031 172.53125 213.421875 172.449219 C 214.261719 172.367188 215.09375 172.242188 215.917969 172.078125 C 216.746094 171.914062 217.5625 171.707031 218.371094 171.464844 C 219.175781 171.21875 219.96875 170.933594 220.746094 170.613281 C 221.523438 170.289062 222.285156 169.929688 223.03125 169.53125 C 223.773438 169.132812 224.496094 168.699219 225.195312 168.234375 C 225.894531 167.765625 226.574219 167.261719 227.222656 166.726562 C 227.875 166.191406 228.5 165.625 229.09375 165.03125 C 229.691406 164.433594 230.257812 163.808594 230.789062 163.15625 C 231.324219 162.503906 231.828125 161.828125 232.296875 161.125 C 232.761719 160.425781 233.195312 159.703125 233.59375 158.960938 C 233.992188 158.214844 234.351562 157.453125 234.671875 156.675781 C 234.996094 155.894531 235.28125 155.101562 235.523438 154.292969 C 235.769531 153.488281 235.972656 152.671875 236.136719 151.84375 C 236.304688 151.015625 236.425781 150.183594 236.507812 149.34375 C 236.59375 148.503906 236.632812 147.660156 236.632812 146.820312 L 236.632812 122.207031 L 275.914062 122.207031 C 277.378906 122.207031 278.828125 122.328125 280.269531 122.574219 C 281.710938 122.824219 283.121094 123.191406 284.5 123.679688 C 285.878906 124.164062 287.207031 124.765625 288.484375 125.480469 C 289.761719 126.195312 290.96875 127.011719 292.105469 127.933594 C 293.242188 128.855469 294.292969 129.863281 295.257812 130.964844 C 296.222656 132.0625 297.089844 133.238281 297.851562 134.484375 C 298.617188 135.734375 299.273438 137.035156 299.816406 138.394531 C 300.355469 139.753906 300.78125 141.152344 301.085938 142.582031 Z M 301.085938 142.582031 "/><path style=" stroke:none;fill-rule:nonzero;fill:#72c1e8;fill-opacity:1;" d="M 236.632812 82.890625 L 236.632812 146.820312 C 236.632812 147.660156 236.59375 148.503906 236.507812 149.34375 C 236.425781 150.183594 236.304688 151.015625 236.140625 151.84375 C 235.976562 152.671875 235.769531 153.488281 235.527344 154.296875 C 235.28125 155.101562 234.996094 155.894531 234.675781 156.675781 C 234.351562 157.457031 233.992188 158.21875 233.59375 158.960938 C 233.199219 159.703125 232.765625 160.425781 232.296875 161.128906 C 231.828125 161.832031 231.328125 162.507812 230.792969 163.160156 C 230.257812 163.8125 229.691406 164.4375 229.097656 165.03125 C 228.5 165.628906 227.875 166.195312 227.226562 166.730469 C 226.574219 167.265625 225.898438 167.765625 225.195312 168.234375 C 224.496094 168.703125 223.773438 169.136719 223.03125 169.535156 C 222.285156 169.933594 221.527344 170.292969 220.746094 170.617188 C 219.96875 170.9375 219.175781 171.222656 218.371094 171.46875 C 217.5625 171.710938 216.746094 171.917969 215.917969 172.082031 C 215.09375 172.246094 214.261719 172.371094 213.421875 172.453125 C 212.582031 172.535156 211.742188 172.578125 210.898438 172.578125 L 161.722656 172.578125 C 160.878906 172.578125 160.039062 172.617188 159.199219 172.699219 C 158.359375 172.785156 157.527344 172.90625 156.703125 173.070312 C 155.875 173.234375 155.058594 173.441406 154.253906 173.6875 C 153.445312 173.929688 152.652344 174.214844 151.875 174.539062 C 151.097656 174.859375 150.335938 175.21875 149.59375 175.617188 C 148.847656 176.015625 148.125 176.449219 147.425781 176.917969 C 146.726562 177.386719 146.050781 177.886719 145.398438 178.421875 C 144.746094 178.957031 144.121094 179.523438 143.527344 180.121094 C 142.929688 180.714844 142.367188 181.339844 141.832031 181.992188 C 141.296875 182.644531 140.792969 183.320312 140.324219 184.023438 C 139.859375 184.722656 139.425781 185.445312 139.027344 186.191406 C 138.628906 186.933594 138.269531 187.695312 137.949219 188.476562 C 137.625 189.253906 137.339844 190.046875 137.097656 190.855469 C 136.851562 191.660156 136.648438 192.480469 136.484375 193.304688 C 136.320312 194.132812 136.195312 194.964844 136.113281 195.804688 C 136.03125 196.644531 135.988281 197.488281 135.988281 198.332031 L 135.988281 222.941406 L 96.703125 222.941406 C 95.261719 222.941406 93.835938 222.824219 92.414062 222.582031 C 90.996094 222.34375 89.605469 221.988281 88.246094 221.515625 C 86.886719 221.042969 85.578125 220.460938 84.316406 219.765625 C 83.054688 219.074219 81.859375 218.28125 80.730469 217.386719 C 79.601562 216.492188 78.554688 215.507812 77.589844 214.441406 C 76.628906 213.371094 75.757812 212.226562 74.988281 211.011719 C 74.214844 209.796875 73.550781 208.523438 72.992188 207.195312 C 72.433594 205.867188 71.988281 204.503906 71.65625 203.101562 C 69.253906 193.070312 68.050781 182.894531 68.050781 172.574219 C 68.050781 162.257812 69.253906 152.082031 71.65625 142.046875 C 71.988281 140.644531 72.433594 139.28125 72.992188 137.953125 C 73.550781 136.625 74.214844 135.355469 74.988281 134.136719 C 75.761719 132.921875 76.628906 131.78125 77.589844 130.710938 C 78.554688 129.640625 79.601562 128.65625 80.730469 127.765625 C 81.859375 126.871094 83.054688 126.074219 84.316406 125.382812 C 85.578125 124.691406 86.886719 124.105469 88.25 123.632812 C 89.609375 123.160156 90.996094 122.804688 92.417969 122.566406 C 93.835938 122.324219 95.265625 122.207031 96.703125 122.207031 L 135.988281 122.207031 L 135.988281 82.890625 C 135.988281 81.425781 136.109375 79.972656 136.355469 78.53125 C 136.605469 77.085938 136.972656 75.675781 137.457031 74.296875 C 137.945312 72.914062 138.546875 71.585938 139.261719 70.308594 C 139.972656 69.03125 140.789062 67.824219 141.710938 66.683594 C 142.628906 65.546875 143.640625 64.496094 144.738281 63.53125 C 145.835938 62.5625 147.007812 61.699219 148.257812 60.933594 C 149.503906 60.167969 150.804688 59.511719 152.164062 58.96875 C 153.519531 58.425781 154.914062 58 156.34375 57.695312 C 166.179688 55.378906 176.144531 54.214844 186.246094 54.210938 C 196.351562 54.207031 206.320312 55.359375 216.15625 57.667969 C 229.203125 60.734375 236.632812 71.523438 236.632812 82.890625 Z M 236.632812 82.890625 "/><path style=" stroke:none;fill-rule:nonzero;fill:#ffffff;fill-opacity:1;" d="M 172.851562 87.285156 C 173.050781 87.773438 173.203125 88.273438 173.308594 88.792969 C 173.410156 89.3125 173.460938 89.835938 173.460938 90.363281 C 173.464844 90.894531 173.410156 91.417969 173.308594 91.933594 C 173.207031 92.453125 173.054688 92.957031 172.851562 93.445312 C 172.648438 93.933594 172.402344 94.398438 172.109375 94.839844 C 171.816406 95.277344 171.480469 95.683594 171.109375 96.058594 C 170.734375 96.433594 170.328125 96.765625 169.890625 97.058594 C 169.449219 97.355469 168.988281 97.601562 168.5 97.804688 C 168.011719 98.007812 167.507812 98.160156 166.988281 98.261719 C 166.472656 98.367188 165.949219 98.417969 165.421875 98.417969 C 164.894531 98.417969 164.371094 98.367188 163.851562 98.261719 C 163.332031 98.160156 162.832031 98.007812 162.34375 97.804688 C 161.855469 97.605469 161.390625 97.355469 160.953125 97.0625 C 160.511719 96.769531 160.105469 96.433594 159.730469 96.0625 C 159.359375 95.6875 159.023438 95.28125 158.730469 94.839844 C 158.4375 94.402344 158.191406 93.9375 157.988281 93.449219 C 157.785156 92.960938 157.632812 92.457031 157.53125 91.9375 C 157.425781 91.421875 157.375 90.898438 157.375 90.367188 C 157.375 89.839844 157.425781 89.316406 157.527344 88.796875 C 157.632812 88.277344 157.785156 87.777344 157.984375 87.289062 C 158.1875 86.796875 158.4375 86.335938 158.730469 85.894531 C 159.023438 85.457031 159.355469 85.046875 159.730469 84.675781 C 160.101562 84.300781 160.507812 83.96875 160.949219 83.671875 C 161.386719 83.378906 161.851562 83.132812 162.339844 82.929688 C 162.828125 82.726562 163.328125 82.574219 163.847656 82.46875 C 164.367188 82.367188 164.886719 82.316406 165.417969 82.316406 C 165.945312 82.316406 166.46875 82.367188 166.984375 82.46875 C 167.503906 82.574219 168.007812 82.726562 168.496094 82.925781 C 168.984375 83.128906 169.445312 83.378906 169.886719 83.671875 C 170.324219 83.964844 170.730469 84.296875 171.105469 84.671875 C 171.480469 85.046875 171.8125 85.453125 172.105469 85.890625 C 172.398438 86.332031 172.648438 86.796875 172.851562 87.285156 Z M 172.851562 87.285156 "/><path style=" stroke:none;fill-rule:nonzero;fill:#ffffff;fill-opacity:1;" d="M 215.269531 254.757812 C 215.269531 255.289062 215.21875 255.8125 215.113281 256.328125 C 215.011719 256.847656 214.859375 257.351562 214.65625 257.839844 C 214.457031 258.328125 214.207031 258.792969 213.914062 259.230469 C 213.621094 259.671875 213.289062 260.078125 212.914062 260.449219 C 212.539062 260.824219 212.132812 261.15625 211.695312 261.453125 C 211.257812 261.746094 210.792969 261.992188 210.304688 262.195312 C 209.816406 262.398438 209.3125 262.550781 208.796875 262.652344 C 208.277344 262.757812 207.753906 262.808594 207.226562 262.808594 C 206.699219 262.808594 206.175781 262.757812 205.660156 262.652344 C 205.140625 262.550781 204.636719 262.398438 204.148438 262.195312 C 203.660156 261.992188 203.199219 261.746094 202.757812 261.453125 C 202.320312 261.15625 201.914062 260.824219 201.539062 260.449219 C 201.167969 260.078125 200.835938 259.671875 200.539062 259.230469 C 200.246094 258.792969 200 258.328125 199.796875 257.839844 C 199.59375 257.351562 199.441406 256.847656 199.339844 256.328125 C 199.238281 255.8125 199.183594 255.289062 199.183594 254.757812 C 199.183594 254.230469 199.238281 253.707031 199.339844 253.1875 C 199.441406 252.667969 199.59375 252.167969 199.796875 251.679688 C 200 251.191406 200.246094 250.726562 200.539062 250.285156 C 200.835938 249.847656 201.167969 249.441406 201.539062 249.066406 C 201.914062 248.691406 202.320312 248.359375 202.757812 248.066406 C 203.199219 247.773438 203.660156 247.523438 204.148438 247.320312 C 204.636719 247.121094 205.140625 246.96875 205.660156 246.863281 C 206.175781 246.761719 206.699219 246.710938 207.226562 246.710938 C 207.753906 246.710938 208.277344 246.761719 208.796875 246.863281 C 209.3125 246.96875 209.816406 247.121094 210.304688 247.320312 C 210.792969 247.523438 211.257812 247.773438 211.695312 248.066406 C 212.132812 248.359375 212.539062 248.691406 212.914062 249.066406 C 213.289062 249.441406 213.621094 249.847656 213.914062 250.285156 C 214.207031 250.726562 214.457031 251.191406 214.65625 251.679688 C 214.859375 252.167969 215.011719 252.667969 215.113281 253.1875 C 215.21875 253.707031 215.269531 254.230469 215.269531 254.757812 Z M 215.269531 254.757812 "/><path style=" stroke:none;fill-rule:nonzero;fill:#f9e5af;fill-opacity:1;" d="M 226.472656 265.199219 C 226.15625 265.199219 225.851562 265.140625 225.558594 265.019531 C 225.265625 264.898438 225.007812 264.722656 224.78125 264.5 C 224.558594 264.277344 224.386719 264.015625 224.265625 263.722656 C 224.144531 263.429688 224.082031 263.125 224.082031 262.808594 L 224.082031 258.164062 C 224.082031 257.84375 224.144531 257.539062 224.265625 257.246094 C 224.386719 256.953125 224.558594 256.695312 224.78125 256.46875 C 225.007812 256.246094 225.265625 256.074219 225.558594 255.953125 C 225.851562 255.832031 226.15625 255.769531 226.472656 255.769531 C 226.789062 255.769531 227.09375 255.832031 227.386719 255.953125 C 227.679688 256.074219 227.941406 256.246094 228.164062 256.46875 C 228.386719 256.695312 228.5625 256.953125 228.683594 257.246094 C 228.804688 257.539062 228.863281 257.84375 228.863281 258.164062 L 228.863281 262.808594 C 228.863281 263.125 228.804688 263.429688 228.683594 263.722656 C 228.5625 264.015625 228.386719 264.277344 228.164062 264.5 C 227.941406 264.722656 227.679688 264.898438 227.386719 265.019531 C 227.09375 265.140625 226.789062 265.199219 226.472656 265.199219 Z M 226.472656 250.984375 C 226.15625 250.984375 225.851562 250.921875 225.558594 250.800781 C 225.265625 250.679688 225.007812 250.507812 224.78125 250.28125 C 224.558594 250.058594 224.386719 249.800781 224.265625 249.507812 C 224.144531 249.214844 224.082031 248.90625 224.082031 248.589844 L 224.082031 209.546875 C 224.082031 209.226562 224.144531 208.921875 224.265625 208.628906 C 224.386719 208.335938 224.558594 208.078125 224.78125 207.851562 C 225.007812 207.628906 225.265625 207.457031 225.558594 207.335938 C 225.851562 207.214844 226.15625 207.152344 226.472656 207.152344 L 275.914062 207.152344 C 276.46875 207.15625 277.023438 207.109375 277.574219 207.019531 C 278.121094 206.929688 278.660156 206.792969 279.1875 206.609375 C 279.714844 206.425781 280.222656 206.203125 280.710938 205.933594 C 281.199219 205.667969 281.664062 205.359375 282.097656 205.011719 C 282.535156 204.667969 282.941406 204.285156 283.3125 203.871094 C 283.6875 203.457031 284.023438 203.015625 284.320312 202.542969 C 284.617188 202.070312 284.875 201.578125 285.089844 201.0625 C 285.304688 200.550781 285.476562 200.019531 285.601562 199.476562 C 287.714844 190.628906 288.773438 181.660156 288.773438 172.5625 C 288.773438 163.464844 287.714844 154.496094 285.601562 145.648438 C 285.476562 145.105469 285.304688 144.578125 285.089844 144.066406 C 284.871094 143.550781 284.617188 143.058594 284.316406 142.589844 C 284.019531 142.121094 283.683594 141.679688 283.3125 141.265625 C 282.9375 140.851562 282.535156 140.472656 282.097656 140.128906 C 281.660156 139.78125 281.199219 139.476562 280.710938 139.210938 C 280.222656 138.945312 279.714844 138.71875 279.1875 138.539062 C 278.664062 138.359375 278.125 138.222656 277.578125 138.132812 C 277.027344 138.042969 276.476562 137.996094 275.917969 138 C 275.601562 138 275.296875 137.941406 275.003906 137.816406 C 274.710938 137.695312 274.453125 137.523438 274.226562 137.300781 C 274.003906 137.074219 273.832031 136.816406 273.710938 136.523438 C 273.589844 136.230469 273.527344 135.925781 273.527344 135.609375 C 273.527344 135.289062 273.589844 134.984375 273.710938 134.691406 C 273.832031 134.398438 274.003906 134.140625 274.226562 133.914062 C 274.453125 133.691406 274.710938 133.519531 275.003906 133.398438 C 275.296875 133.273438 275.601562 133.214844 275.917969 133.214844 C 282.347656 133.214844 288.542969 137.269531 290.375 145.054688 C 292.515625 154.183594 293.574219 163.441406 293.554688 172.816406 C 293.535156 182.195312 292.4375 191.445312 290.261719 200.570312 C 290.074219 201.375 289.824219 202.15625 289.503906 202.917969 C 289.1875 203.679688 288.808594 204.410156 288.367188 205.109375 C 287.925781 205.804688 287.429688 206.460938 286.875 207.078125 C 286.324219 207.691406 285.726562 208.253906 285.078125 208.765625 C 284.429688 209.277344 283.746094 209.734375 283.023438 210.128906 C 282.296875 210.527344 281.546875 210.859375 280.765625 211.132812 C 279.988281 211.402344 279.191406 211.601562 278.375 211.738281 C 277.5625 211.875 276.742188 211.941406 275.917969 211.9375 L 228.867188 211.9375 L 228.867188 248.589844 C 228.867188 248.90625 228.808594 249.210938 228.6875 249.507812 C 228.566406 249.800781 228.390625 250.058594 228.167969 250.285156 C 227.941406 250.507812 227.683594 250.679688 227.390625 250.804688 C 227.097656 250.925781 226.789062 250.984375 226.472656 250.984375 Z M 226.472656 250.984375 "/><path style=" stroke:none;fill-rule:nonzero;fill:#c5e5ff;fill-opacity:1;" d="M 122.601562 211.9375 C 122.28125 211.9375 121.976562 211.878906 121.683594 211.757812 C 121.390625 211.632812 121.132812 211.460938 120.910156 211.238281 C 120.683594 211.011719 120.511719 210.753906 120.390625 210.460938 C 120.269531 210.167969 120.210938 209.863281 120.210938 209.546875 L 120.210938 205.257812 C 120.210938 204.9375 120.269531 204.632812 120.390625 204.339844 C 120.511719 204.046875 120.683594 203.789062 120.910156 203.5625 C 121.132812 203.339844 121.390625 203.167969 121.683594 203.046875 C 121.976562 202.925781 122.28125 202.863281 122.601562 202.863281 C 122.917969 202.863281 123.222656 202.925781 123.515625 203.046875 C 123.808594 203.167969 124.066406 203.339844 124.289062 203.5625 C 124.515625 203.789062 124.6875 204.046875 124.808594 204.339844 C 124.929688 204.632812 124.992188 204.9375 124.992188 205.257812 L 124.992188 209.546875 C 124.992188 209.863281 124.929688 210.167969 124.808594 210.460938 C 124.6875 210.753906 124.515625 211.011719 124.289062 211.238281 C 124.066406 211.460938 123.808594 211.632812 123.515625 211.757812 C 123.222656 211.878906 122.917969 211.9375 122.601562 211.9375 Z M 122.53125 198.074219 C 122.214844 198.054688 121.914062 197.972656 121.628906 197.832031 C 121.34375 197.691406 121.097656 197.5 120.890625 197.261719 C 120.679688 197.023438 120.527344 196.753906 120.425781 196.453125 C 120.324219 196.152344 120.28125 195.84375 120.304688 195.527344 C 120.394531 194.230469 120.546875 192.9375 120.757812 191.65625 C 120.96875 190.371094 121.238281 189.097656 121.570312 187.839844 C 121.902344 186.582031 122.289062 185.339844 122.738281 184.117188 C 123.183594 182.898438 123.6875 181.699219 124.246094 180.523438 C 124.804688 179.347656 125.417969 178.203125 126.082031 177.082031 C 126.75 175.964844 127.46875 174.882812 128.234375 173.832031 C 129.003906 172.78125 129.816406 171.769531 130.679688 170.796875 C 131.542969 169.824219 132.449219 168.890625 133.398438 168.003906 C 134.351562 167.113281 135.339844 166.273438 136.367188 165.476562 C 137.398438 164.679688 138.460938 163.933594 139.558594 163.238281 C 140.660156 162.542969 141.789062 161.898438 142.945312 161.308594 C 144.105469 160.71875 145.289062 160.183594 146.5 159.707031 C 147.707031 159.226562 148.9375 158.804688 150.183594 158.441406 C 151.433594 158.078125 152.695312 157.773438 153.972656 157.527344 C 155.25 157.285156 156.535156 157.097656 157.828125 156.972656 C 159.125 156.851562 160.421875 156.785156 161.722656 156.785156 L 210.898438 156.785156 C 211.554688 156.78125 212.199219 156.71875 212.839844 156.589844 C 213.480469 156.460938 214.105469 156.273438 214.707031 156.023438 C 215.3125 155.769531 215.886719 155.464844 216.429688 155.101562 C 216.972656 154.738281 217.472656 154.324219 217.9375 153.863281 C 218.398438 153.398438 218.8125 152.894531 219.175781 152.351562 C 219.539062 151.808594 219.84375 151.234375 220.09375 150.628906 C 220.34375 150.027344 220.535156 149.402344 220.664062 148.761719 C 220.789062 148.121094 220.855469 147.472656 220.855469 146.820312 L 220.855469 82.890625 C 220.859375 82.335938 220.8125 81.78125 220.722656 81.230469 C 220.632812 80.679688 220.496094 80.140625 220.3125 79.613281 C 220.132812 79.085938 219.90625 78.578125 219.640625 78.089844 C 219.371094 77.601562 219.066406 77.136719 218.71875 76.699219 C 218.375 76.261719 217.996094 75.859375 217.582031 75.484375 C 217.167969 75.113281 216.726562 74.777344 216.253906 74.476562 C 215.785156 74.179688 215.292969 73.921875 214.777344 73.707031 C 214.265625 73.492188 213.734375 73.320312 213.191406 73.195312 L 212.550781 73.042969 C 212.246094 72.964844 211.964844 72.835938 211.710938 72.648438 C 211.457031 72.464844 211.246094 72.238281 211.082031 71.96875 C 210.917969 71.699219 210.8125 71.410156 210.761719 71.097656 C 210.710938 70.789062 210.722656 70.480469 210.792969 70.171875 C 210.867188 69.867188 210.992188 69.582031 211.175781 69.328125 C 211.359375 69.070312 211.582031 68.859375 211.851562 68.691406 C 212.117188 68.523438 212.40625 68.414062 212.714844 68.359375 C 213.023438 68.304688 213.332031 68.3125 213.640625 68.382812 L 214.28125 68.53125 C 215.085938 68.71875 215.871094 68.972656 216.628906 69.289062 C 217.390625 69.609375 218.121094 69.988281 218.816406 70.429688 C 219.515625 70.871094 220.171875 71.367188 220.785156 71.921875 C 221.398438 72.472656 221.960938 73.074219 222.472656 73.722656 C 222.984375 74.367188 223.4375 75.054688 223.835938 75.777344 C 224.230469 76.503906 224.5625 77.253906 224.832031 78.035156 C 225.101562 78.816406 225.304688 79.613281 225.4375 80.429688 C 225.574219 81.242188 225.640625 82.0625 225.636719 82.890625 L 225.636719 146.816406 C 225.636719 147.785156 225.539062 148.742188 225.351562 149.691406 C 225.160156 150.640625 224.882812 151.5625 224.511719 152.457031 C 224.140625 153.351562 223.6875 154.203125 223.148438 155.007812 C 222.609375 155.8125 222 156.554688 221.316406 157.242188 C 220.632812 157.925781 219.886719 158.535156 219.082031 159.074219 C 218.277344 159.613281 217.429688 160.066406 216.535156 160.4375 C 215.644531 160.808594 214.722656 161.089844 213.773438 161.28125 C 212.824219 161.46875 211.867188 161.566406 210.898438 161.566406 L 161.722656 161.566406 C 160.570312 161.570312 159.421875 161.625 158.277344 161.734375 C 157.132812 161.84375 155.996094 162.007812 154.867188 162.226562 C 153.734375 162.441406 152.617188 162.710938 151.515625 163.035156 C 150.410156 163.355469 149.320312 163.726562 148.253906 164.152344 C 147.183594 164.574219 146.136719 165.046875 145.109375 165.570312 C 144.085938 166.09375 143.085938 166.660156 142.113281 167.277344 C 141.140625 167.894531 140.199219 168.550781 139.289062 169.257812 C 138.378906 169.960938 137.503906 170.707031 136.664062 171.492188 C 135.824219 172.277344 135.019531 173.101562 134.257812 173.964844 C 133.492188 174.824219 132.773438 175.71875 132.09375 176.648438 C 131.414062 177.578125 130.777344 178.539062 130.1875 179.527344 C 129.597656 180.515625 129.058594 181.53125 128.5625 182.570312 C 128.066406 183.609375 127.621094 184.667969 127.226562 185.75 C 126.832031 186.832031 126.488281 187.929688 126.195312 189.042969 C 125.902344 190.15625 125.664062 191.28125 125.476562 192.417969 C 125.289062 193.554688 125.152344 194.695312 125.074219 195.84375 C 125.054688 196.160156 124.972656 196.460938 124.832031 196.746094 C 124.691406 197.03125 124.503906 197.277344 124.261719 197.488281 C 124.023438 197.695312 123.753906 197.851562 123.453125 197.953125 C 123.15625 198.054688 122.847656 198.097656 122.53125 198.074219 Z M 122.53125 198.074219 "/><path style=" stroke:none;fill-rule:nonzero;fill:#000000;fill-opacity:1;" d="M 303.285156 141.488281 C 302.921875 139.957031 302.4375 138.46875 301.824219 137.019531 C 301.210938 135.570312 300.484375 134.179688 299.640625 132.851562 C 298.792969 131.527344 297.847656 130.277344 296.792969 129.109375 C 295.738281 127.941406 294.597656 126.867188 293.363281 125.890625 C 292.128906 124.914062 290.824219 124.046875 289.445312 123.289062 C 288.070312 122.535156 286.636719 121.894531 285.152344 121.378906 C 283.667969 120.859375 282.152344 120.46875 280.601562 120.207031 C 279.050781 119.945312 277.488281 119.8125 275.917969 119.8125 L 239.015625 119.8125 L 239.015625 108.738281 C 238.996094 108.433594 238.921875 108.144531 238.796875 107.867188 C 238.667969 107.589844 238.492188 107.347656 238.273438 107.140625 C 238.050781 106.929688 237.800781 106.769531 237.515625 106.65625 C 237.234375 106.542969 236.941406 106.488281 236.636719 106.484375 C 236.332031 106.484375 236.039062 106.539062 235.757812 106.648438 C 235.472656 106.761719 235.222656 106.917969 235 107.128906 C 234.777344 107.335938 234.601562 107.574219 234.46875 107.851562 C 234.339844 108.125 234.261719 108.414062 234.242188 108.71875 C 234.238281 108.722656 234.234375 108.730469 234.234375 108.738281 L 234.234375 146.820312 C 234.230469 147.585938 234.191406 148.347656 234.113281 149.109375 C 234.035156 149.871094 233.921875 150.625 233.769531 151.375 C 233.621094 152.121094 233.433594 152.863281 233.210938 153.59375 C 232.984375 154.324219 232.726562 155.042969 232.433594 155.75 C 232.140625 156.453125 231.8125 157.144531 231.453125 157.816406 C 231.089844 158.492188 230.699219 159.144531 230.273438 159.78125 C 229.847656 160.417969 229.394531 161.03125 228.910156 161.621094 C 228.425781 162.210938 227.910156 162.777344 227.371094 163.316406 C 226.832031 163.859375 226.265625 164.371094 225.675781 164.855469 C 225.085938 165.339844 224.472656 165.796875 223.839844 166.222656 C 223.203125 166.648438 222.550781 167.039062 221.878906 167.402344 C 221.203125 167.761719 220.515625 168.089844 219.808594 168.382812 C 219.105469 168.675781 218.386719 168.9375 217.65625 169.160156 C 216.925781 169.382812 216.1875 169.570312 215.4375 169.722656 C 214.691406 169.875 213.9375 169.988281 213.175781 170.066406 C 212.417969 170.140625 211.65625 170.183594 210.890625 170.183594 L 161.71875 170.183594 C 160.796875 170.183594 159.878906 170.230469 158.960938 170.320312 C 158.046875 170.410156 157.136719 170.542969 156.230469 170.722656 C 155.328125 170.902344 154.433594 171.125 153.554688 171.390625 C 152.671875 171.660156 151.804688 171.96875 150.953125 172.320312 C 150.101562 172.675781 149.269531 173.066406 148.457031 173.503906 C 147.644531 173.9375 146.855469 174.410156 146.089844 174.921875 C 145.324219 175.433594 144.585938 175.984375 143.871094 176.566406 C 143.160156 177.152344 142.480469 177.773438 141.828125 178.421875 C 141.175781 179.074219 140.558594 179.757812 139.972656 180.472656 C 139.390625 181.183594 138.839844 181.921875 138.328125 182.691406 C 137.816406 183.457031 137.34375 184.246094 136.910156 185.0625 C 136.476562 185.875 136.082031 186.707031 135.730469 187.558594 C 135.378906 188.410156 135.070312 189.277344 134.800781 190.160156 C 134.535156 191.042969 134.3125 191.9375 134.132812 192.839844 C 133.953125 193.746094 133.820312 194.65625 133.730469 195.574219 C 133.640625 196.492188 133.59375 197.414062 133.597656 198.335938 L 133.597656 220.550781 L 96.707031 220.550781 C 95.402344 220.554688 94.101562 220.453125 92.8125 220.238281 C 91.523438 220.023438 90.261719 219.703125 89.027344 219.277344 C 87.792969 218.851562 86.601562 218.324219 85.457031 217.695312 C 84.308594 217.066406 83.222656 216.347656 82.199219 215.535156 C 81.175781 214.722656 80.226562 213.832031 79.351562 212.859375 C 78.476562 211.886719 77.6875 210.847656 76.988281 209.742188 C 76.292969 208.640625 75.6875 207.484375 75.183594 206.277344 C 74.679688 205.070312 74.28125 203.828125 73.988281 202.554688 C 72.644531 196.949219 71.683594 191.28125 71.097656 185.546875 C 71.066406 185.230469 70.976562 184.933594 70.824219 184.652344 C 70.671875 184.375 70.476562 184.132812 70.230469 183.933594 C 69.984375 183.734375 69.707031 183.585938 69.402344 183.496094 C 69.097656 183.40625 68.789062 183.375 68.472656 183.40625 C 68.15625 183.441406 67.859375 183.53125 67.582031 183.683594 C 67.300781 183.832031 67.0625 184.03125 66.863281 184.277344 C 66.660156 184.523438 66.515625 184.800781 66.425781 185.105469 C 66.332031 185.410156 66.304688 185.71875 66.335938 186.035156 C 66.941406 191.976562 67.941406 197.847656 69.328125 203.65625 C 69.691406 205.1875 70.175781 206.679688 70.789062 208.128906 C 71.398438 209.582031 72.128906 210.96875 72.972656 212.296875 C 73.816406 213.625 74.765625 214.875 75.820312 216.042969 C 76.875 217.214844 78.015625 218.285156 79.25 219.261719 C 80.484375 220.238281 81.789062 221.105469 83.167969 221.863281 C 84.546875 222.621094 85.980469 223.257812 87.464844 223.777344 C 88.953125 224.292969 90.46875 224.683594 92.019531 224.945312 C 93.574219 225.207031 95.132812 225.335938 96.707031 225.335938 L 133.601562 225.335938 L 133.601562 262.261719 C 133.597656 263.859375 133.734375 265.445312 134.003906 267.019531 C 134.273438 268.597656 134.671875 270.136719 135.203125 271.644531 C 135.734375 273.148438 136.390625 274.601562 137.167969 275.996094 C 137.949219 277.390625 138.839844 278.710938 139.839844 279.953125 C 140.84375 281.195312 141.945312 282.347656 143.144531 283.402344 C 144.339844 284.457031 145.621094 285.402344 146.980469 286.242188 C 148.339844 287.078125 149.761719 287.796875 151.242188 288.390625 C 152.722656 288.988281 154.242188 289.453125 155.804688 289.789062 C 160.277344 290.511719 183.195312 297.417969 216.996094 289.75 C 218.546875 289.40625 220.058594 288.933594 221.527344 288.332031 C 223 287.730469 224.410156 287.007812 225.757812 286.167969 C 227.105469 285.328125 228.375 284.378906 229.5625 283.324219 C 230.753906 282.269531 231.84375 281.121094 232.835938 279.882812 C 233.832031 278.640625 234.714844 277.324219 235.488281 275.933594 C 236.257812 274.546875 236.90625 273.101562 237.433594 271.601562 C 237.960938 270.101562 238.359375 268.566406 238.625 267 C 238.894531 265.429688 239.027344 263.851562 239.027344 262.261719 L 239.027344 225.335938 L 250.511719 225.335938 C 250.828125 225.335938 251.136719 225.273438 251.425781 225.152344 C 251.71875 225.03125 251.980469 224.859375 252.203125 224.632812 C 252.425781 224.410156 252.601562 224.152344 252.722656 223.859375 C 252.84375 223.566406 252.902344 223.257812 252.902344 222.941406 C 252.902344 222.625 252.84375 222.320312 252.722656 222.027344 C 252.601562 221.734375 252.425781 221.476562 252.203125 221.25 C 251.980469 221.027344 251.71875 220.851562 251.425781 220.730469 C 251.136719 220.609375 250.828125 220.550781 250.511719 220.550781 L 186.308594 220.550781 C 185.992188 220.550781 185.6875 220.609375 185.394531 220.730469 C 185.101562 220.851562 184.84375 221.027344 184.617188 221.25 C 184.394531 221.476562 184.222656 221.734375 184.101562 222.027344 C 183.980469 222.320312 183.917969 222.625 183.917969 222.941406 C 183.917969 223.257812 183.980469 223.566406 184.101562 223.859375 C 184.222656 224.152344 184.394531 224.410156 184.617188 224.632812 C 184.84375 224.859375 185.101562 225.03125 185.394531 225.152344 C 185.6875 225.273438 185.992188 225.335938 186.308594 225.335938 L 234.242188 225.335938 L 234.242188 262.261719 C 234.25 263.59375 234.140625 264.917969 233.917969 266.230469 C 233.699219 267.546875 233.367188 268.832031 232.921875 270.089844 C 232.480469 271.347656 231.933594 272.554688 231.285156 273.71875 C 230.632812 274.882812 229.886719 275.980469 229.050781 277.015625 C 228.210938 278.050781 227.289062 279.007812 226.285156 279.882812 C 225.28125 280.757812 224.210938 281.542969 223.074219 282.234375 C 221.933594 282.925781 220.746094 283.515625 219.507812 284.003906 C 218.269531 284.492188 216.996094 284.867188 215.691406 285.136719 C 206.035156 287.402344 196.246094 288.535156 186.324219 288.539062 C 176.40625 288.539062 166.617188 287.410156 156.957031 285.148438 C 144.855469 282.273438 138.378906 272.457031 138.378906 262.261719 L 138.378906 198.332031 C 138.378906 197.566406 138.417969 196.804688 138.496094 196.042969 C 138.574219 195.28125 138.6875 194.527344 138.839844 193.777344 C 138.988281 193.027344 139.175781 192.289062 139.398438 191.558594 C 139.621094 190.824219 139.882812 190.105469 140.175781 189.402344 C 140.46875 188.695312 140.796875 188.003906 141.15625 187.332031 C 141.515625 186.65625 141.910156 186.003906 142.335938 185.367188 C 142.757812 184.734375 143.214844 184.121094 143.699219 183.527344 C 144.183594 182.9375 144.695312 182.371094 145.238281 181.832031 C 145.777344 181.292969 146.339844 180.777344 146.933594 180.292969 C 147.523438 179.808594 148.132812 179.351562 148.769531 178.925781 C 149.402344 178.503906 150.058594 178.109375 150.730469 177.746094 C 151.40625 177.386719 152.09375 177.058594 152.800781 176.765625 C 153.503906 176.472656 154.222656 176.214844 154.953125 175.988281 C 155.683594 175.765625 156.421875 175.578125 157.171875 175.429688 C 157.921875 175.277344 158.675781 175.164062 159.433594 175.085938 C 160.195312 175.007812 160.957031 174.96875 161.71875 174.96875 L 210.902344 174.96875 C 211.820312 174.964844 212.742188 174.921875 213.65625 174.832031 C 214.574219 174.738281 215.484375 174.605469 216.386719 174.425781 C 217.289062 174.246094 218.183594 174.019531 219.0625 173.753906 C 219.945312 173.484375 220.8125 173.175781 221.660156 172.820312 C 222.511719 172.46875 223.34375 172.074219 224.15625 171.640625 C 224.96875 171.207031 225.757812 170.730469 226.523438 170.21875 C 227.289062 169.707031 228.027344 169.160156 228.738281 168.574219 C 229.453125 167.988281 230.132812 167.371094 230.785156 166.71875 C 231.433594 166.066406 232.054688 165.386719 232.636719 164.671875 C 233.222656 163.960938 233.769531 163.21875 234.28125 162.453125 C 234.792969 161.6875 235.265625 160.898438 235.699219 160.085938 C 236.136719 159.273438 236.527344 158.441406 236.882812 157.589844 C 237.234375 156.738281 237.542969 155.871094 237.8125 154.988281 C 238.078125 154.105469 238.300781 153.210938 238.480469 152.308594 C 238.664062 151.40625 238.796875 150.492188 238.886719 149.578125 C 238.980469 148.660156 239.023438 147.738281 239.023438 146.816406 L 239.023438 124.597656 L 275.917969 124.597656 C 277.234375 124.59375 278.539062 124.699219 279.835938 124.914062 C 281.132812 125.132812 282.402344 125.457031 283.644531 125.890625 C 284.886719 126.324219 286.085938 126.859375 287.238281 127.496094 C 288.386719 128.136719 289.476562 128.863281 290.503906 129.6875 C 291.53125 130.507812 292.484375 131.414062 293.359375 132.398438 C 294.230469 133.378906 295.015625 134.429688 295.710938 135.550781 C 296.410156 136.667969 297.003906 137.835938 297.503906 139.054688 C 298 140.273438 298.390625 141.523438 298.675781 142.8125 C 298.707031 142.917969 298.734375 143.027344 298.753906 143.136719 C 303.613281 163.808594 302.980469 185.730469 298.628906 202.546875 C 298.332031 203.820312 297.933594 205.0625 297.429688 206.269531 C 296.925781 207.476562 296.324219 208.632812 295.625 209.738281 C 294.929688 210.84375 294.140625 211.882812 293.265625 212.855469 C 292.394531 213.828125 291.445312 214.71875 290.417969 215.53125 C 289.394531 216.34375 288.308594 217.0625 287.160156 217.691406 C 286.015625 218.320312 284.824219 218.847656 283.589844 219.277344 C 282.355469 219.703125 281.089844 220.023438 279.800781 220.238281 C 278.511719 220.449219 277.214844 220.554688 275.90625 220.550781 L 269.632812 220.550781 C 269.316406 220.550781 269.011719 220.609375 268.71875 220.730469 C 268.425781 220.851562 268.167969 221.027344 267.945312 221.25 C 267.71875 221.476562 267.546875 221.734375 267.425781 222.027344 C 267.304688 222.320312 267.242188 222.625 267.242188 222.941406 C 267.242188 223.257812 267.304688 223.566406 267.425781 223.859375 C 267.546875 224.152344 267.71875 224.410156 267.945312 224.632812 C 268.167969 224.859375 268.425781 225.03125 268.71875 225.152344 C 269.011719 225.273438 269.316406 225.335938 269.632812 225.335938 L 275.90625 225.335938 C 277.480469 225.335938 279.042969 225.203125 280.59375 224.941406 C 282.148438 224.679688 283.667969 224.292969 285.152344 223.773438 C 286.636719 223.257812 288.070312 222.617188 289.449219 221.859375 C 290.832031 221.101562 292.136719 220.234375 293.371094 219.257812 C 294.605469 218.277344 295.746094 217.203125 296.800781 216.035156 C 297.855469 214.863281 298.804688 213.617188 299.648438 212.285156 C 300.492188 210.957031 301.21875 209.566406 301.828125 208.113281 C 302.441406 206.664062 302.925781 205.171875 303.285156 203.636719 C 309.230469 178.5625 307.019531 161.84375 303.285156 141.488281 Z M 303.285156 141.488281 "/><path style=" stroke:none;fill-rule:nonzero;fill:#000000;fill-opacity:1;" d="M 262.464844 222.941406 C 262.464844 223.257812 262.40625 223.566406 262.285156 223.859375 C 262.164062 224.152344 261.988281 224.410156 261.765625 224.632812 C 261.542969 224.859375 261.285156 225.03125 260.992188 225.152344 C 260.699219 225.273438 260.390625 225.335938 260.074219 225.335938 C 259.757812 225.335938 259.453125 225.273438 259.160156 225.152344 C 258.867188 225.03125 258.609375 224.859375 258.386719 224.632812 C 258.160156 224.410156 257.988281 224.152344 257.867188 223.859375 C 257.746094 223.566406 257.683594 223.257812 257.683594 222.941406 C 257.683594 222.625 257.746094 222.320312 257.867188 222.027344 C 257.988281 221.734375 258.160156 221.476562 258.386719 221.25 C 258.609375 221.027344 258.867188 220.851562 259.160156 220.730469 C 259.453125 220.609375 259.757812 220.550781 260.074219 220.550781 C 260.390625 220.550781 260.699219 220.609375 260.992188 220.730469 C 261.285156 220.851562 261.542969 221.027344 261.765625 221.25 C 261.988281 221.476562 262.164062 221.734375 262.285156 222.027344 C 262.40625 222.320312 262.464844 222.625 262.464844 222.941406 Z M 262.464844 222.941406 "/><path style=" stroke:none;fill-rule:nonzero;fill:#000000;fill-opacity:1;" d="M 236.632812 96.773438 C 236.316406 96.769531 236.011719 96.832031 235.71875 96.953125 C 235.421875 97.070312 235.164062 97.242188 234.9375 97.46875 C 234.714844 97.691406 234.539062 97.949219 234.417969 98.242188 C 234.296875 98.535156 234.234375 98.839844 234.234375 99.160156 C 234.234375 99.476562 234.292969 99.78125 234.414062 100.074219 C 234.535156 100.371094 234.707031 100.628906 234.929688 100.855469 C 235.152344 101.078125 235.414062 101.253906 235.707031 101.375 C 236 101.496094 236.304688 101.558594 236.621094 101.558594 C 236.9375 101.558594 237.242188 101.5 237.535156 101.378906 C 237.828125 101.253906 238.089844 101.082031 238.3125 100.859375 C 238.539062 100.632812 238.710938 100.375 238.832031 100.082031 C 238.953125 99.789062 239.015625 99.484375 239.015625 99.164062 C 239.011719 98.847656 238.953125 98.546875 238.832031 98.253906 C 238.710938 97.960938 238.539062 97.703125 238.316406 97.480469 C 238.09375 97.253906 237.835938 97.082031 237.542969 96.960938 C 237.253906 96.835938 236.949219 96.773438 236.632812 96.773438 Z M 236.632812 96.773438 "/><g clip-rule="nonzero" clip-path="url(#acd0e620b7)"><path style=" stroke:none;fill-rule:nonzero;fill:#000000;fill-opacity:1;" d="M 68.183594 169.066406 C 68.488281 169.066406 68.785156 169.007812 69.070312 168.894531 C 69.355469 168.78125 69.609375 168.621094 69.828125 168.410156 C 70.050781 168.199219 70.226562 167.953125 70.355469 167.675781 C 70.484375 167.394531 70.558594 167.101562 70.574219 166.796875 L 70.574219 166.777344 C 70.941406 158.609375 72.082031 150.550781 73.988281 142.601562 C 74.28125 141.324219 74.679688 140.085938 75.183594 138.878906 C 75.6875 137.671875 76.289062 136.515625 76.988281 135.410156 C 77.6875 134.304688 78.472656 133.265625 79.347656 132.292969 C 80.222656 131.320312 81.171875 130.425781 82.195312 129.613281 C 83.222656 128.804688 84.304688 128.082031 85.453125 127.453125 C 86.597656 126.824219 87.789062 126.296875 89.023438 125.871094 C 90.261719 125.441406 91.523438 125.121094 92.8125 124.910156 C 94.101562 124.695312 95.398438 124.589844 96.707031 124.597656 L 186.308594 124.597656 C 186.625 124.597656 186.929688 124.535156 187.222656 124.414062 C 187.515625 124.292969 187.777344 124.121094 188 123.894531 C 188.222656 123.671875 188.398438 123.414062 188.519531 123.121094 C 188.640625 122.828125 188.699219 122.519531 188.699219 122.203125 C 188.699219 121.886719 188.640625 121.582031 188.519531 121.289062 C 188.398438 120.996094 188.222656 120.734375 188 120.511719 C 187.777344 120.289062 187.515625 120.113281 187.222656 119.992188 C 186.929688 119.871094 186.625 119.8125 186.308594 119.8125 L 138.382812 119.8125 L 138.382812 82.894531 C 138.375 81.5625 138.480469 80.242188 138.703125 78.925781 C 138.921875 77.613281 139.253906 76.332031 139.695312 75.074219 C 140.136719 73.816406 140.683594 72.609375 141.332031 71.445312 C 141.980469 70.285156 142.722656 69.1875 143.558594 68.152344 C 144.398438 67.117188 145.316406 66.160156 146.316406 65.285156 C 147.320312 64.410156 148.386719 63.625 149.523438 62.933594 C 150.660156 62.238281 151.847656 61.648438 153.085938 61.160156 C 154.320312 60.671875 155.59375 60.292969 156.894531 60.023438 C 177.1875 55.238281 198.453125 55.722656 215.800781 60.042969 C 217.097656 60.316406 218.363281 60.699219 219.59375 61.191406 C 220.828125 61.683594 222.007812 62.273438 223.140625 62.96875 C 224.273438 63.660156 225.335938 64.445312 226.332031 65.324219 C 227.328125 66.199219 228.242188 67.152344 229.078125 68.1875 C 229.910156 69.21875 230.648438 70.316406 231.296875 71.472656 C 231.941406 72.632812 232.484375 73.839844 232.925781 75.09375 C 233.363281 76.34375 233.695312 77.625 233.914062 78.933594 C 234.132812 80.246094 234.242188 81.5625 234.238281 82.890625 L 234.238281 89.589844 C 234.238281 89.90625 234.300781 90.210938 234.421875 90.503906 C 234.542969 90.796875 234.714844 91.058594 234.941406 91.28125 C 235.164062 91.503906 235.425781 91.679688 235.71875 91.800781 C 236.011719 91.921875 236.316406 91.980469 236.632812 91.980469 C 236.949219 91.980469 237.253906 91.921875 237.546875 91.800781 C 237.839844 91.679688 238.101562 91.503906 238.324219 91.28125 C 238.546875 91.058594 238.722656 90.796875 238.84375 90.503906 C 238.964844 90.210938 239.027344 89.90625 239.027344 89.589844 L 239.019531 82.890625 C 239.019531 70.480469 230.882812 58.644531 216.699219 55.335938 C 206.683594 52.992188 196.53125 51.824219 186.246094 51.828125 C 175.960938 51.832031 165.808594 53.011719 155.792969 55.363281 C 154.234375 55.699219 152.714844 56.167969 151.234375 56.765625 C 149.753906 57.359375 148.335938 58.078125 146.976562 58.914062 C 145.617188 59.753906 144.339844 60.699219 143.140625 61.757812 C 141.945312 62.8125 140.84375 63.960938 139.839844 65.203125 C 138.839844 66.449219 137.949219 67.765625 137.171875 69.160156 C 136.394531 70.554688 135.738281 72.003906 135.207031 73.511719 C 134.675781 75.019531 134.273438 76.558594 134.003906 78.132812 C 133.734375 79.707031 133.601562 81.292969 133.601562 82.890625 L 133.601562 119.808594 L 96.707031 119.808594 C 84.4375 119.808594 72.566406 127.835938 69.1875 142.097656 C 67.300781 150.148438 66.171875 158.304688 65.792969 166.5625 C 65.777344 166.890625 65.828125 167.207031 65.941406 167.511719 C 66.054688 167.820312 66.226562 168.089844 66.453125 168.328125 C 66.675781 168.5625 66.941406 168.746094 67.242188 168.875 C 67.542969 169 67.855469 169.066406 68.183594 169.066406 Z M 68.183594 169.066406 "/></g><g clip-rule="nonzero" clip-path="url(#575becb4f4)"><path style=" stroke:none;fill-rule:nonzero;fill:#000000;fill-opacity:1;" d="M 68.164062 178.636719 C 68.480469 178.625 68.78125 178.558594 69.070312 178.425781 C 69.359375 178.296875 69.613281 178.117188 69.832031 177.886719 C 70.050781 177.65625 70.214844 177.394531 70.328125 177.097656 C 70.441406 176.800781 70.496094 176.492188 70.488281 176.175781 C 70.480469 175.859375 70.414062 175.554688 70.285156 175.261719 C 70.160156 174.96875 69.980469 174.714844 69.746094 174.496094 C 69.515625 174.277344 69.25 174.109375 68.953125 174 C 68.65625 173.886719 68.347656 173.839844 68.027344 173.851562 C 67.710938 173.859375 67.40625 173.929688 67.117188 174.058594 C 66.828125 174.1875 66.574219 174.367188 66.355469 174.597656 C 66.136719 174.828125 65.972656 175.09375 65.859375 175.390625 C 65.746094 175.6875 65.691406 175.992188 65.703125 176.3125 C 65.710938 176.628906 65.78125 176.933594 65.910156 177.222656 C 66.039062 177.511719 66.21875 177.765625 66.449219 177.984375 C 66.679688 178.203125 66.945312 178.367188 67.242188 178.480469 C 67.539062 178.59375 67.84375 178.644531 68.164062 178.636719 Z M 68.164062 178.636719 "/></g><path style=" stroke:none;fill-rule:nonzero;fill:#000000;fill-opacity:1;" d="M 154.960938 90.394531 C 154.960938 91.078125 155.027344 91.757812 155.160156 92.429688 C 155.296875 93.105469 155.492188 93.757812 155.753906 94.390625 C 156.015625 95.023438 156.339844 95.625 156.71875 96.195312 C 157.101562 96.765625 157.53125 97.292969 158.015625 97.777344 C 158.5 98.261719 159.027344 98.695312 159.597656 99.078125 C 160.167969 99.457031 160.769531 99.78125 161.402344 100.042969 C 162.035156 100.304688 162.6875 100.503906 163.359375 100.636719 C 164.03125 100.769531 164.710938 100.835938 165.394531 100.835938 C 166.078125 100.835938 166.757812 100.769531 167.429688 100.636719 C 168.101562 100.503906 168.753906 100.304688 169.386719 100.042969 C 170.019531 99.777344 170.621094 99.457031 171.191406 99.078125 C 171.761719 98.695312 172.289062 98.261719 172.773438 97.777344 C 173.257812 97.292969 173.6875 96.765625 174.070312 96.195312 C 174.449219 95.625 174.769531 95.023438 175.03125 94.390625 C 175.296875 93.753906 175.492188 93.101562 175.625 92.429688 C 175.761719 91.757812 175.828125 91.078125 175.828125 90.394531 C 175.828125 89.707031 175.757812 89.027344 175.625 88.355469 C 175.492188 87.683594 175.292969 87.03125 175.03125 86.398438 C 174.769531 85.761719 174.449219 85.160156 174.066406 84.589844 C 173.6875 84.019531 173.253906 83.492188 172.769531 83.007812 C 172.285156 82.523438 171.757812 82.089844 171.1875 81.710938 C 170.617188 81.328125 170.019531 81.007812 169.382812 80.746094 C 168.75 80.484375 168.097656 80.285156 167.425781 80.152344 C 166.753906 80.019531 166.078125 79.953125 165.390625 79.953125 C 164.707031 79.953125 164.027344 80.019531 163.359375 80.15625 C 162.6875 80.289062 162.035156 80.488281 161.402344 80.75 C 160.769531 81.011719 160.167969 81.335938 159.597656 81.714844 C 159.03125 82.097656 158.503906 82.53125 158.019531 83.015625 C 157.535156 83.5 157.101562 84.027344 156.722656 84.597656 C 156.34375 85.164062 156.019531 85.765625 155.757812 86.398438 C 155.496094 87.035156 155.296875 87.6875 155.164062 88.359375 C 155.027344 89.03125 154.960938 89.707031 154.960938 90.394531 Z M 171.042969 90.394531 C 171.042969 90.765625 171.007812 91.132812 170.9375 91.496094 C 170.863281 91.863281 170.757812 92.214844 170.613281 92.558594 C 170.472656 92.902344 170.296875 93.226562 170.09375 93.535156 C 169.886719 93.847656 169.652344 94.132812 169.390625 94.394531 C 169.125 94.65625 168.839844 94.890625 168.53125 95.097656 C 168.222656 95.304688 167.898438 95.476562 167.554688 95.621094 C 167.210938 95.761719 166.859375 95.871094 166.496094 95.941406 C 166.132812 96.015625 165.765625 96.050781 165.394531 96.050781 C 165.023438 96.050781 164.652344 96.015625 164.289062 95.941406 C 163.925781 95.871094 163.574219 95.761719 163.230469 95.621094 C 162.886719 95.476562 162.5625 95.304688 162.253906 95.097656 C 161.945312 94.890625 161.660156 94.65625 161.394531 94.394531 C 161.132812 94.132812 160.898438 93.84375 160.695312 93.535156 C 160.488281 93.226562 160.3125 92.902344 160.171875 92.558594 C 160.03125 92.214844 159.921875 91.863281 159.851562 91.496094 C 159.777344 91.132812 159.742188 90.765625 159.742188 90.394531 C 159.742188 90.023438 159.777344 89.65625 159.851562 89.289062 C 159.921875 88.925781 160.03125 88.570312 160.171875 88.230469 C 160.3125 87.886719 160.488281 87.558594 160.695312 87.25 C 160.902344 86.941406 161.136719 86.65625 161.398438 86.394531 C 161.660156 86.132812 161.945312 85.898438 162.253906 85.691406 C 162.5625 85.484375 162.886719 85.308594 163.230469 85.167969 C 163.574219 85.027344 163.925781 84.917969 164.292969 84.847656 C 164.65625 84.773438 165.023438 84.738281 165.394531 84.738281 C 165.765625 84.738281 166.132812 84.773438 166.496094 84.847656 C 166.859375 84.921875 167.210938 85.027344 167.554688 85.171875 C 167.898438 85.3125 168.222656 85.488281 168.53125 85.691406 C 168.839844 85.898438 169.125 86.132812 169.386719 86.394531 C 169.648438 86.660156 169.882812 86.945312 170.089844 87.253906 C 170.296875 87.5625 170.472656 87.886719 170.613281 88.230469 C 170.753906 88.574219 170.863281 88.925781 170.933594 89.292969 C 171.007812 89.65625 171.042969 90.023438 171.042969 90.394531 Z M 171.042969 90.394531 "/><path style=" stroke:none;fill-rule:nonzero;fill:#000000;fill-opacity:1;" d="M 217.660156 254.757812 C 217.660156 254.074219 217.59375 253.394531 217.460938 252.722656 C 217.328125 252.050781 217.128906 251.398438 216.867188 250.761719 C 216.605469 250.128906 216.28125 249.527344 215.902344 248.957031 C 215.523438 248.386719 215.089844 247.859375 214.605469 247.375 C 214.121094 246.890625 213.59375 246.457031 213.023438 246.078125 C 212.453125 245.695312 211.855469 245.375 211.21875 245.113281 C 210.585938 244.847656 209.933594 244.652344 209.261719 244.515625 C 208.589844 244.382812 207.914062 244.316406 207.226562 244.316406 C 206.542969 244.316406 205.863281 244.382812 205.191406 244.515625 C 204.519531 244.652344 203.867188 244.847656 203.234375 245.109375 C 202.601562 245.375 202 245.695312 201.433594 246.074219 C 200.863281 246.457031 200.335938 246.890625 199.851562 247.375 C 199.367188 247.859375 198.933594 248.386719 198.554688 248.957031 C 198.171875 249.527344 197.851562 250.128906 197.589844 250.761719 C 197.328125 251.394531 197.128906 252.046875 196.996094 252.722656 C 196.863281 253.394531 196.792969 254.074219 196.792969 254.757812 C 196.792969 255.445312 196.863281 256.125 196.996094 256.796875 C 197.128906 257.46875 197.328125 258.121094 197.589844 258.753906 C 197.851562 259.386719 198.171875 259.988281 198.554688 260.558594 C 198.933594 261.128906 199.367188 261.65625 199.851562 262.140625 C 200.335938 262.628906 200.863281 263.058594 201.429688 263.441406 C 202 263.820312 202.601562 264.144531 203.234375 264.40625 C 203.867188 264.667969 204.519531 264.867188 205.191406 265 C 205.863281 265.132812 206.542969 265.199219 207.226562 265.199219 C 207.914062 265.199219 208.589844 265.132812 209.261719 265 C 209.933594 264.863281 210.585938 264.664062 211.21875 264.402344 C 211.851562 264.140625 212.453125 263.820312 213.019531 263.4375 C 213.589844 263.058594 214.117188 262.625 214.601562 262.140625 C 215.085938 261.65625 215.519531 261.128906 215.898438 260.558594 C 216.277344 259.988281 216.601562 259.386719 216.863281 258.753906 C 217.125 258.121094 217.324219 257.46875 217.457031 256.796875 C 217.59375 256.125 217.660156 255.445312 217.660156 254.757812 Z M 201.574219 254.757812 C 201.574219 254.386719 201.613281 254.019531 201.683594 253.65625 C 201.757812 253.292969 201.863281 252.9375 202.007812 252.59375 C 202.148438 252.25 202.320312 251.925781 202.527344 251.617188 C 202.734375 251.308594 202.96875 251.023438 203.230469 250.757812 C 203.492188 250.496094 203.777344 250.261719 204.085938 250.054688 C 204.394531 249.847656 204.722656 249.675781 205.0625 249.53125 C 205.40625 249.390625 205.761719 249.285156 206.125 249.210938 C 206.488281 249.136719 206.855469 249.101562 207.226562 249.101562 C 207.597656 249.101562 207.964844 249.136719 208.328125 249.210938 C 208.695312 249.28125 209.046875 249.390625 209.390625 249.53125 C 209.734375 249.675781 210.058594 249.847656 210.367188 250.054688 C 210.675781 250.261719 210.960938 250.496094 211.222656 250.757812 C 211.484375 251.019531 211.71875 251.308594 211.925781 251.617188 C 212.132812 251.925781 212.308594 252.25 212.449219 252.59375 C 212.589844 252.9375 212.699219 253.289062 212.769531 253.65625 C 212.84375 254.019531 212.878906 254.386719 212.878906 254.757812 C 212.878906 255.128906 212.84375 255.496094 212.769531 255.863281 C 212.699219 256.226562 212.589844 256.578125 212.449219 256.921875 C 212.308594 257.265625 212.132812 257.59375 211.925781 257.902344 C 211.71875 258.210938 211.484375 258.496094 211.222656 258.757812 C 210.960938 259.019531 210.675781 259.253906 210.367188 259.460938 C 210.058594 259.667969 209.734375 259.84375 209.390625 259.984375 C 209.046875 260.125 208.695312 260.234375 208.332031 260.304688 C 207.964844 260.378906 207.597656 260.414062 207.226562 260.414062 C 206.855469 260.414062 206.488281 260.378906 206.125 260.304688 C 205.761719 260.234375 205.410156 260.125 205.066406 259.984375 C 204.722656 259.839844 204.398438 259.667969 204.089844 259.460938 C 203.78125 259.253906 203.496094 259.019531 203.234375 258.757812 C 202.972656 258.496094 202.738281 258.207031 202.53125 257.898438 C 202.324219 257.589844 202.152344 257.265625 202.007812 256.921875 C 201.867188 256.582031 201.757812 256.226562 201.6875 255.863281 C 201.613281 255.5 201.578125 255.132812 201.574219 254.757812 Z M 201.574219 254.757812 "/></g></svg>