<svg xmlns="http://www.w3.org/2000/svg" viewBox="0 0 24 24" fill="currentColor">
  <path d="M14.23 12.004a2.236 2.236 0 0 1-2.235 2.236 2.236 2.236 0 0 1-2.236-2.236 2.236 2.236 0 0 1 2.235-2.236 2.236 2.236 0 0 1 2.236 2.236zm2.648-10.69c-1.346 0-3.107.96-4.888 2.622-1.78-1.653-3.542-2.602-4.887-2.602-.276 0-.56.015-.854.05C3.95 1.958 4.872 4.218 6.563 6.527c-1.704 2.322-2.895 4.676-2.895 5.482 0 .806.534 1.58 1.338 1.58.276 0 .56-.015.854-.05 1.108-.08 2.29-.68 3.474-1.82 1.18 1.14 2.366 1.74 3.474 1.82.294.035.578.05.854.05.804 0 1.338-.774 1.338-1.58 0-.806-1.191-3.16-2.895-5.482 1.691-2.309 2.613-4.569 2.613-6.527 0-.276-.015-.56-.05-.854-.08-1.108-.68-2.29-1.82-3.474z"/>
</svg>